<svg width="409" height="25" viewBox="0 0 409 25" fill="none" xmlns="http://www.w3.org/2000/svg">
<path fill-rule="evenodd" clip-rule="evenodd" d="M0 1C0 0.447716 0.447715 0 1 0H36C36.5523 0 37 0.447715 37 1V23C37 23.5523 36.5523 24 36 24H0.999999C0.447715 24 0 23.5523 0 23V1ZM8.03015 17.0931C8.03015 16.9506 8.06029 16.8142 8.12058 16.684C8.18288 16.5517 8.27131 16.4346 8.38586 16.3328C8.50242 16.231 8.64008 16.1506 8.79885 16.0916C8.95761 16.0305 9.13346 16 9.32639 16C9.51128 16 9.6811 16.0316 9.83584 16.0947C9.99059 16.1557 10.1242 16.2422 10.2368 16.3542C10.3493 16.4641 10.4367 16.5934 10.499 16.742C10.5613 16.8885 10.5925 17.0473 10.5925 17.2183H10.0047C10.0047 17.0148 9.94135 16.8499 9.81474 16.7237C9.69014 16.5954 9.52736 16.5313 9.32639 16.5313C9.21988 16.5313 9.12241 16.5466 9.03398 16.5771C8.94556 16.6076 8.87019 16.6504 8.80789 16.7053C8.74559 16.7603 8.69736 16.8214 8.6632 16.8885C8.63104 16.9537 8.61496 17.0219 8.61496 17.0931C8.61496 17.2316 8.66621 17.3384 8.7687 17.4137C8.87321 17.487 9.00082 17.5511 9.15155 17.6061C9.30428 17.659 9.47008 17.712 9.64894 17.7649C9.82982 17.8178 9.99562 17.8891 10.1463 17.9786C10.2991 18.0682 10.4267 18.1863 10.5292 18.3328C10.6337 18.4774 10.6859 18.6687 10.6859 18.9069C10.6859 19.0494 10.6538 19.1858 10.5895 19.316C10.5252 19.4463 10.4337 19.5634 10.3152 19.6672C10.1986 19.769 10.0569 19.8504 9.89011 19.9114C9.7233 19.9705 9.5354 20 9.32639 20C9.11738 20 8.93149 19.9705 8.7687 19.9114C8.60592 19.8504 8.46625 19.7669 8.34968 19.6611C8.23513 19.5532 8.14771 19.4249 8.08742 19.2763C8.02914 19.1257 8 18.9608 8 18.7817H8.58482C8.58482 19.0036 8.64611 19.1735 8.7687 19.2916C8.8933 19.4097 9.0792 19.4687 9.32639 19.4687C9.58966 19.4687 9.78359 19.4148 9.90819 19.3069C10.0348 19.199 10.0981 19.0656 10.0981 18.9069C10.0981 18.7603 10.0469 18.6453 9.94437 18.5618C9.84187 18.4784 9.71426 18.4092 9.56152 18.3542C9.40879 18.2972 9.24299 18.2422 9.06413 18.1893C8.88527 18.1344 8.71947 18.0641 8.56673 17.9786C8.41399 17.8931 8.28638 17.7822 8.18389 17.6458C8.08139 17.5074 8.03015 17.3232 8.03015 17.0931ZM14.2654 19.4076V19.9695H11.6428V16.0305H14.2051V16.5924H12.2276V17.655H14.0483V18.2198H12.2276V19.4076H14.2654ZM15.7919 18.5863C15.7196 18.4071 15.6834 18.2117 15.6834 18C15.6834 17.7883 15.7196 17.5929 15.7919 17.4137C15.8643 17.2326 15.9587 17.0768 16.0753 16.9466C16.1939 16.8142 16.3285 16.7125 16.4793 16.6412C16.632 16.5679 16.7887 16.5313 16.9495 16.5313C17.0902 16.5313 17.2178 16.5537 17.3324 16.5985C17.4469 16.6412 17.5484 16.7013 17.6368 16.7786C17.7253 16.8539 17.7996 16.9435 17.8599 17.0473C17.9202 17.1491 17.9664 17.258 17.9986 17.374H18.6166C18.5723 17.1868 18.5 17.0097 18.3995 16.8427C18.301 16.6758 18.1805 16.5303 18.0378 16.4061C17.8971 16.2799 17.7333 16.1812 17.5464 16.1099C17.3615 16.0366 17.1625 16 16.9495 16C16.7023 16 16.4662 16.0509 16.2411 16.1527C16.018 16.2545 15.8221 16.3959 15.6533 16.5771C15.4845 16.7583 15.3498 16.971 15.2493 17.2153C15.1488 17.4595 15.0986 17.7211 15.0986 18C15.0986 18.283 15.1488 18.5455 15.2493 18.7878C15.3498 19.03 15.4845 19.2417 15.6533 19.4229C15.8221 19.6041 16.018 19.7455 16.2411 19.8473C16.4662 19.9491 16.7023 20 16.9495 20C17.1726 20 17.3776 19.9644 17.5645 19.8931C17.7514 19.8198 17.9172 19.7211 18.0619 19.5969C18.2086 19.4707 18.3312 19.3242 18.4297 19.1573C18.5281 18.9903 18.6005 18.8132 18.6467 18.626H18.0287C17.9966 18.742 17.9503 18.8509 17.8901 18.9527C17.8318 19.0545 17.7574 19.144 17.667 19.2214C17.5765 19.2987 17.471 19.3598 17.3505 19.4046C17.2319 19.4473 17.0982 19.4687 16.9495 19.4687C16.7887 19.4687 16.632 19.4321 16.4793 19.3588C16.3285 19.2855 16.1939 19.1837 16.0753 19.0534C15.9587 18.9211 15.8643 18.7654 15.7919 18.5863ZM20.9902 19.4687C21.1128 19.4687 21.2263 19.4463 21.3308 19.4015C21.4373 19.3547 21.5298 19.2906 21.6082 19.2092C21.6865 19.1277 21.7468 19.03 21.789 18.916C21.8333 18.802 21.8554 18.6738 21.8554 18.5313V16.0305H22.4432V18.5313C22.4432 18.743 22.407 18.9394 22.3347 19.1206C22.2623 19.2997 22.1608 19.4555 22.0302 19.5878C21.9016 19.7181 21.7488 19.8198 21.572 19.8931C21.3951 19.9644 21.2012 20 20.9902 20C20.7812 20 20.5883 19.9644 20.4114 19.8931C20.2345 19.8198 20.0808 19.7181 19.9502 19.5878C19.8216 19.4555 19.7211 19.2997 19.6487 19.1206C19.5764 18.9394 19.5402 18.743 19.5402 18.5313V16.0305H20.128V18.5313C20.128 18.6738 20.1491 18.802 20.1913 18.916C20.2356 19.03 20.2968 19.1277 20.3752 19.2092C20.4536 19.2906 20.545 19.3547 20.6495 19.4015C20.7541 19.4463 20.8676 19.4687 20.9902 19.4687ZM24.1988 18.4061H24.8771L25.7724 19.9695H26.4206L25.4649 18.345C25.6257 18.2941 25.7694 18.2188 25.896 18.1191C26.0045 18.0356 26.104 17.9226 26.1945 17.7802C26.2849 17.6356 26.3301 17.4483 26.3301 17.2183C26.3301 17.0555 26.299 16.9018 26.2367 16.7573C26.1744 16.6107 26.091 16.4845 25.9865 16.3786C25.882 16.2707 25.7574 16.1863 25.6127 16.1252C25.47 16.0621 25.3182 16.0305 25.1575 16.0305H23.614V19.9695H24.1988V18.4061ZM25.1575 17.8443H24.1988V16.5924H25.1575C25.2358 16.5924 25.3092 16.6097 25.3775 16.6443C25.4479 16.6768 25.5092 16.7216 25.5614 16.7786C25.6157 16.8336 25.6589 16.8987 25.691 16.974C25.7252 17.0494 25.7423 17.1308 25.7423 17.2183C25.7423 17.3059 25.7252 17.3873 25.691 17.4626C25.6589 17.5379 25.6157 17.6041 25.5614 17.6611C25.5092 17.716 25.4479 17.7608 25.3775 17.7954C25.3092 17.828 25.2358 17.8443 25.1575 17.8443ZM30 19.4076V19.9695H27.3774V16.0305H29.9397V16.5924H27.9622V17.655H29.783V18.2198H27.9622V19.4076H30ZM14.0892 12.8853L15.4105 5.13111H17.5249L16.2025 12.8853H14.0892ZM12.3172 5.13973L10.2474 10.4279L10.0267 9.62942C9.61849 8.66734 8.45965 7.28565 7.09915 6.41489L8.99178 12.8815L11.2279 12.8777L14.5561 5.1381L12.3172 5.13973ZM8.30368 5.06483C8.74558 5.08168 9.1016 5.22246 9.22444 5.69481L9.93703 9.12024C9.23694 7.32816 7.54978 5.83776 5 5.2192L5.02718 5.06483H8.30368ZM21.8081 6.61755C22.4995 6.60668 23.0006 6.75778 23.3898 6.91432L23.5806 7.00401L23.8665 5.32336C23.448 5.16628 22.7919 4.99778 21.9733 4.99778C19.885 4.99778 18.4131 6.04954 18.4017 7.55679C18.3881 8.67052 19.4502 9.29234 20.2525 9.66358C21.0759 10.0441 21.3521 10.2859 21.3483 10.6257C21.3417 11.1447 20.6917 11.3828 20.0845 11.3828C19.2382 11.3828 18.7887 11.266 18.0946 10.9768L17.8223 10.8529L17.525 12.5884C18.0196 12.8053 18.9322 12.9917 19.8796 13.0015C22.1011 13.0015 23.5447 11.9622 23.56 10.3517C23.5692 9.47062 23.0055 8.79825 21.7842 8.24656C21.045 7.88673 20.5927 7.64757 20.5971 7.28448C20.5971 6.96215 20.9808 6.61755 21.8081 6.61755ZM27.6572 5.13976H29.29L31 12.8896H29.0394C29.0394 12.8896 28.8448 11.9988 28.7818 11.7281C28.6192 11.7281 27.9388 11.7272 27.2981 11.7263C26.7282 11.7255 26.1898 11.7248 26.0755 11.7248C25.9934 11.9341 25.6314 12.8896 25.6314 12.8896H23.4121L26.55 5.78332C26.7728 5.27782 27.15 5.13976 27.6572 5.13976ZM27.5256 7.97055C27.5256 7.97055 26.8576 9.6925 26.6837 10.1377H28.4393L27.9496 7.8988L27.8072 7.23024C27.7538 7.373 27.6825 7.55827 27.625 7.70784C27.5649 7.86409 27.5198 7.98138 27.5256 7.97055Z" fill="#545472"/>
<path d="M89.1885 0H53.9562C53.4275 0 53 0.428138 53 0.956241V23.1162C53 23.6443 53.4275 24.0724 53.9562 24.0724H89.1885C89.7173 24.0724 90.1448 23.6443 90.1448 23.1162V0.956241C90.1448 0.428138 89.7173 0 89.1885 0ZM55.876 7.2744H59.8403C60.375 7.29479 60.8058 7.46512 60.9544 8.03663L61.8166 12.1832C60.9696 10.0142 58.9282 8.2096 55.8431 7.46249L55.876 7.2744ZM60.6729 16.7316L58.383 8.90804C60.0291 9.96161 61.4312 11.6334 61.9251 12.7968L62.1921 13.7629L64.6965 7.3645H67.4061L63.3792 16.7296L60.6729 16.7316ZM69.3975 16.7382H66.8405L68.4393 7.35464H70.9976L69.3975 16.7382ZM73.8472 16.8789C72.7009 16.8671 71.5967 16.6402 70.9982 16.3778L71.358 14.2778L71.6875 14.4271C72.5273 14.7777 73.0712 14.9197 74.0952 14.9197C74.8298 14.9197 75.617 14.6323 75.6242 14.0036C75.6288 13.5926 75.2948 13.2992 74.2991 12.8389C73.3283 12.3904 72.0433 11.638 72.0591 10.2904C72.0729 8.46674 73.8538 7.19417 76.3812 7.19417C77.3716 7.19417 78.1654 7.39804 78.6718 7.58811L78.3266 9.62226L78.0957 9.51374C77.6248 9.32434 77.0191 9.14151 76.1819 9.15466C75.181 9.15466 74.7167 9.57162 74.7167 9.96161C74.7114 10.4009 75.2586 10.6903 76.153 11.1257C77.6281 11.7952 78.3101 12.6074 78.3009 13.6748C78.2812 15.6215 76.5364 16.8789 73.8472 16.8789ZM84.9288 16.7421C84.9288 16.7421 84.6954 15.6635 84.6178 15.336C84.2455 15.336 81.6359 15.3321 81.3426 15.3321C81.2433 15.5853 80.8053 16.7421 80.8053 16.7421H78.1201L81.9168 8.14317C82.1864 7.53221 82.6435 7.3645 83.2564 7.3645H85.232L87.3017 16.7415L84.9288 16.7421Z" fill="#545472"/>
<path d="M83.6089 10.7044L83.4366 9.89551C83.3064 10.2487 83.0821 10.8162 83.0966 10.7912C83.0966 10.7912 82.2883 12.8741 82.0779 13.414H84.2015C84.0989 12.9438 83.6089 10.7044 83.6089 10.7044Z" fill="#545472"/>
<path d="M114.116 9.81379C113.966 9.71514 113.741 9.66516 113.447 9.66516L113.195 9.66648C113.03 9.66516 112.861 9.79801 112.829 9.95848L112.596 10.9581C112.56 11.1199 112.663 11.2521 112.831 11.2521H113.019C113.436 11.2521 113.76 11.1673 113.992 10.9963C114.224 10.8266 114.343 10.5852 114.338 10.2728C114.339 10.0663 114.265 9.91178 114.116 9.81379Z" fill="#545472"/>
<path d="M118.227 12.1178C118.181 12.1191 117.833 12.1586 117.657 12.1803C117.46 12.2086 117.289 12.248 117.15 12.2947L116.824 12.517C116.748 12.613 116.711 12.7353 116.711 12.8925L116.86 13.1806C116.961 13.2371 117.109 13.2648 117.299 13.2648C117.424 13.2648 117.559 13.2345 117.701 13.1766L118.004 13.0208L118.123 12.8616C118.171 12.6762 118.269 12.2638 118.28 12.2125L118.227 12.1178Z" fill="#545472"/>
<path d="M142.333 0H107.101C106.572 0 106.145 0.428138 106.145 0.956241V23.1155C106.145 23.6436 106.572 24.0724 107.101 24.0724H142.333C142.862 24.0724 143.29 23.6443 143.29 23.1162V0.956241C143.29 0.428138 142.862 0 142.333 0ZM115.013 11.6775C114.489 12.0628 113.761 12.2549 112.819 12.2562H112.599C112.43 12.2562 112.265 12.389 112.23 12.5482L111.966 13.6912C111.928 13.8543 111.763 13.9845 111.596 13.9845H110.827C110.66 13.9845 110.555 13.8504 110.595 13.6912L111.676 8.98038C111.716 8.81859 111.88 8.68903 112.047 8.6864L113.654 8.68575C114.001 8.68903 114.302 8.71008 114.562 8.75743C114.819 8.8061 115.042 8.88765 115.232 9.0034C115.413 9.11783 115.56 9.27107 115.652 9.45653C115.755 9.64199 115.8 9.87414 115.8 10.1504C115.8 10.7817 115.54 11.2921 115.013 11.6775ZM119.789 11.0763L119.76 11.2743L119.198 13.7024C119.165 13.8484 119.02 13.9727 118.867 13.9904L118.857 13.9944H118.746H118.155H118.141L118.139 13.9918C117.992 13.978 117.901 13.8537 117.933 13.7037V13.7024L117.934 13.6978L117.963 13.5741L117.959 13.5695L117.669 13.7609L117.353 13.9372L116.981 14.0648C116.867 14.0924 116.706 14.1088 116.498 14.1088C116.17 14.1088 115.895 14.0187 115.687 13.8326C115.48 13.6425 115.374 13.3999 115.374 13.1026C115.374 12.7869 115.447 12.5199 115.593 12.2976C115.745 12.0767 115.962 11.9043 116.256 11.7754C116.529 11.6511 116.857 11.5591 117.232 11.5071C117.614 11.4519 117.93 11.4118 118.367 11.3841L118.478 11.3157L118.492 11.2072C118.492 11.0402 118.414 10.9251 118.26 10.8573C118.103 10.7916 117.868 10.7587 117.56 10.7587C117.351 10.7561 117.088 10.7988 116.838 10.8554C116.577 10.9146 116.506 10.9534 116.378 10.9915C116.319 11.0119 116.176 11.0218 116.229 10.7745L116.323 10.3871C116.323 10.3871 116.369 10.0945 116.662 10.0307C116.804 9.9991 116.826 9.99318 117.057 9.95766C117.369 9.90965 117.678 9.88532 117.988 9.88532C118.615 9.88532 119.074 9.96687 119.364 10.1306C119.655 10.2937 119.804 10.5489 119.802 10.8915L119.789 11.0763ZM121.026 15.8602L120.229 15.8615C120.063 15.8615 120.008 15.73 120.11 15.5682L120.792 14.3791C120.792 14.3791 120.846 14.3114 120.797 13.9234C120.692 13.2223 120.169 10.2418 120.169 10.2418C120.131 10.0806 120.233 9.94846 120.399 9.94846L121.089 9.94714C121.3 9.94714 121.47 10.0859 121.508 10.249L121.851 12.316L121.979 12.3174C122.086 12.1273 123.188 10.2359 123.188 10.2359C123.293 10.0767 123.506 9.94188 123.672 9.94188C123.672 9.94188 124.413 9.94385 124.595 9.94188C124.869 9.93793 124.574 10.3812 124.574 10.3812L121.507 15.5682C121.408 15.73 121.19 15.8602 121.026 15.8602ZM128.995 11.6978C128.469 12.0813 127.737 12.2753 126.795 12.2753H126.576C126.41 12.2726 126.244 12.4075 126.206 12.5666L125.946 13.7116C125.908 13.8714 125.739 14.0029 125.576 14.001L124.805 14.0029C124.641 14.0036 124.533 13.8708 124.572 13.7109L125.655 8.99748C125.694 8.83767 125.856 8.70745 126.023 8.70482L127.633 8.7035C127.978 8.70482 128.282 8.72915 128.537 8.77453C128.797 8.82188 129.02 8.90343 129.207 9.01984C129.391 9.13756 129.535 9.28817 129.631 9.47494C129.729 9.65909 129.777 9.8919 129.779 10.1681C129.779 10.7988 129.515 11.3078 128.995 11.6978ZM133.768 11.0796L133.74 11.2789L133.177 13.705C133.145 13.8517 133 13.976 132.848 13.9944L132.838 13.9983H132.727C132.568 13.9983 132.233 13.9983 132.136 13.9983H132.122L132.121 13.9944C131.972 13.9806 131.88 13.8569 131.916 13.7063L131.915 13.7044L131.918 13.7017L131.944 13.5781L131.939 13.5722L131.651 13.7662L131.333 13.9418L130.962 14.0674C130.847 14.097 130.685 14.1095 130.48 14.1128C130.151 14.1128 129.878 14.0194 129.669 13.8346C129.462 13.6465 129.354 13.4025 129.354 13.1039C129.354 12.7902 129.427 12.5219 129.575 12.3009C129.725 12.0799 129.946 11.9083 130.236 11.7781C130.511 11.6531 130.841 11.5624 131.214 11.5097C131.594 11.4545 131.91 11.4144 132.351 11.3874L132.461 11.3177L132.473 11.2092C132.473 11.0435 132.397 10.9271 132.24 10.86C132.084 10.7936 131.848 10.7607 131.542 10.7607C131.331 10.7594 131.068 10.8014 130.819 10.8573C130.559 10.9179 130.489 10.9553 130.362 10.9935C130.297 11.0126 130.159 11.0237 130.211 10.7765L130.305 10.3897C130.305 10.3897 130.349 10.0964 130.643 10.0333C130.786 10.0024 130.809 9.99515 131.039 9.96161C131.35 9.91163 131.661 9.88729 131.971 9.88729C132.595 9.88729 133.053 9.97016 133.346 10.1339C133.639 10.297 133.786 10.5509 133.786 10.8935L133.768 11.0796ZM136.234 9.03628L135.203 13.7063L135.167 13.7616C135.106 13.8931 134.975 13.9997 134.834 13.9997H134.118L134.105 13.9832C133.969 13.9622 133.88 13.8523 133.913 13.709L133.911 13.7057L133.942 13.5709L134.906 9.18952L134.941 9.03694L134.979 8.97709C135.042 8.84819 135.169 8.74362 135.311 8.74362H135.999C136.167 8.74362 136.268 8.87449 136.232 9.03496L136.234 9.03628ZM137.601 8.53119H137.343V8.87384L137.345 8.96591L137.363 9.02773L137.403 9.06719L137.482 9.07969L137.547 9.07048L137.595 9.05601H137.601V9.16847L137.524 9.1836L137.451 9.18952L137.276 9.12704L137.216 8.92974V8.53119H137.129V8.42465H137.216V8.21091H137.343V8.42465H137.601V8.53119ZM138.847 8.68838V9.17307H138.723V8.74559L138.715 8.65418L138.698 8.58184L138.655 8.53909L138.571 8.52396L138.467 8.55092L138.36 8.61866L138.362 8.65549L138.363 8.69495V9.17439H138.238V8.74691L138.233 8.65418L138.215 8.58249L138.173 8.53974L138.088 8.52462L137.985 8.55027L137.88 8.61538V9.17439H137.757V8.42531H137.88V8.50883L138 8.43255L138.124 8.40492L138.254 8.43583L138.334 8.52528L138.472 8.43255L138.607 8.40492L138.789 8.47924L138.848 8.68838H138.847Z" fill="#545472"/>
<path d="M132.207 12.1216C132.161 12.1209 131.815 12.1617 131.641 12.1841C131.442 12.2123 131.271 12.2511 131.134 12.2985C130.993 12.3537 130.879 12.4281 130.804 12.5208C130.731 12.6168 130.694 12.7391 130.694 12.897L130.845 13.1844C130.941 13.2416 131.087 13.2692 131.283 13.2692C131.406 13.2692 131.541 13.239 131.682 13.1817L131.983 13.0259L132.107 12.8667C132.153 12.6793 132.253 12.2682 132.261 12.2169L132.207 12.1216Z" fill="#545472"/>
<path d="M128.092 9.83142C127.94 9.73211 127.719 9.68344 127.424 9.68213L127.174 9.68344C127.008 9.68213 126.839 9.81629 126.805 9.9761L126.572 10.9751C126.535 11.1356 126.642 11.2697 126.809 11.2684H127C127.416 11.2684 127.739 11.1829 127.972 11.0159C128.202 10.8442 128.319 10.6048 128.318 10.2898C128.314 10.0846 128.242 9.93007 128.092 9.83142Z" fill="#545472"/>
<path d="M169.188 10.4388C168.492 10.4388 167.959 10.6624 167.959 10.6624L167.811 11.5371C167.811 11.5371 168.251 11.3583 168.918 11.3583C169.296 11.3583 169.572 11.4003 169.572 11.7075C169.572 11.8942 169.539 11.9633 169.539 11.9633C169.539 11.9633 169.241 11.939 169.102 11.939C168.225 11.939 167.302 12.3125 167.302 13.443C167.302 14.3335 167.907 14.5367 168.282 14.5367C168.999 14.5367 169.308 14.0724 169.323 14.0711L169.29 14.4591H170.184L170.582 11.6641C170.582 10.477 169.547 10.4388 169.188 10.4388ZM168.687 13.6864C168.372 13.6864 168.29 13.4463 168.29 13.303C168.29 13.0254 168.44 12.6913 169.184 12.6913C169.358 12.692 169.376 12.7098 169.405 12.715C169.425 12.886 169.298 13.6864 168.687 13.6864Z" fill="#545472"/>
<path d="M172.416 11.3765C172.558 11.3765 173.109 11.4218 173.109 11.4218L173.237 10.5261C173.237 10.5261 172.881 10.4465 172.301 10.4465C171.55 10.4465 170.788 10.7464 170.788 11.7717C170.788 12.9345 172.059 12.8161 172.059 13.3067C172.059 13.6329 171.704 13.6599 171.43 13.6599C170.956 13.6599 170.53 13.4981 170.528 13.5047L170.393 14.3932C170.417 14.3997 170.68 14.5168 171.532 14.5168C171.76 14.5168 173.067 14.576 173.067 13.2271C173.067 11.9657 171.857 12.215 171.857 11.7079C171.857 11.4554 172.054 11.3765 172.416 11.3765Z" fill="#545472"/>
<path d="M174.551 11.4905H175.089L175.218 10.5356H174.712L174.815 9.94373H173.8C173.778 9.96543 173.201 13.282 173.201 13.6845C173.201 14.2836 173.537 14.5493 174.01 14.5447C174.38 14.5421 174.669 14.4395 174.771 14.4112L174.898 13.5484C174.828 13.5484 174.726 13.5786 174.636 13.5786C174.283 13.5786 174.244 13.3899 174.266 13.2511L174.551 11.4905Z" fill="#545472"/>
<path d="M178.804 5.95032H176.993C176.75 6.27915 176.521 6.62902 176.314 6.97101H179.545C179.321 6.61456 179.073 6.27389 178.804 5.95032Z" fill="#545472"/>
<path d="M192.937 17.4328C192.917 17.4031 192.901 17.3807 192.887 17.3669C192.88 17.3603 192.871 17.353 192.859 17.3497C192.887 17.3477 192.911 17.3372 192.928 17.3194C192.945 17.3016 192.954 17.2805 192.954 17.2561C192.954 17.2389 192.949 17.2224 192.939 17.2073C192.929 17.1921 192.914 17.1809 192.897 17.1749C192.88 17.1683 192.852 17.165 192.813 17.165H192.698V17.4981H192.752V17.357H192.783C192.802 17.357 192.817 17.3609 192.825 17.3688C192.839 17.3801 192.859 17.4058 192.882 17.446L192.911 17.4988H192.978L192.937 17.4328ZM192.817 17.3128H192.751V17.2125H192.813C192.839 17.2125 192.856 17.2145 192.866 17.2185C192.876 17.2224 192.883 17.2284 192.889 17.2356C192.894 17.2435 192.897 17.2521 192.897 17.2613C192.897 17.2765 192.891 17.2897 192.88 17.2989C192.869 17.3075 192.847 17.3128 192.817 17.3128Z" fill="#545472"/>
<path d="M180.094 7.97302H175.749C175.471 8.49849 175.287 8.89572 175.235 8.99437H180.506C180.387 8.64318 180.25 8.30317 180.094 7.97302Z" fill="#545472"/>
<path d="M166.059 9.63062L165.059 12.5967L165.007 9.63062H163.526L162.714 14.4638H163.693L164.311 10.8203L164.402 14.4638H165.101L166.405 10.8203L165.827 14.4638H166.866L167.666 9.63062H166.059Z" fill="#545472"/>
<path d="M185.641 10.4388C184.944 10.4388 184.412 10.6624 184.412 10.6624L184.264 11.5371C184.264 11.5371 184.704 11.3583 185.37 11.3583C185.748 11.3583 186.025 11.4003 186.025 11.7075C186.025 11.8942 185.99 11.9633 185.99 11.9633C185.99 11.9633 185.693 11.939 185.553 11.939C184.676 11.939 183.755 12.3125 183.755 13.443C183.755 14.3335 184.36 14.5367 184.734 14.5367C185.45 14.5367 185.759 14.0724 185.776 14.0711L185.742 14.4591H186.635L187.034 11.6641C187.036 10.477 186 10.4388 185.641 10.4388ZM185.142 13.6864C184.826 13.6864 184.744 13.4463 184.744 13.303C184.744 13.0254 184.895 12.6913 185.639 12.6913C185.812 12.692 185.83 12.7098 185.86 12.715C185.879 12.886 185.752 13.6864 185.142 13.6864Z" fill="#545472"/>
<path d="M192.968 14.0187C192.941 13.9687 192.902 13.9306 192.853 13.9043C192.804 13.8773 192.754 13.8641 192.701 13.8641C192.651 13.8648 192.6 13.8779 192.55 13.9043C192.501 13.9306 192.463 13.9687 192.435 14.0187C192.407 14.068 192.394 14.1193 192.394 14.1726C192.394 14.2258 192.407 14.2765 192.435 14.3252C192.462 14.3738 192.5 14.4126 192.549 14.4402C192.598 14.4672 192.649 14.481 192.701 14.481C192.755 14.481 192.807 14.4672 192.855 14.4402C192.903 14.4126 192.941 14.3738 192.968 14.3252C192.997 14.2765 193.009 14.2258 193.009 14.1726C193.009 14.118 192.996 14.0667 192.968 14.0187ZM192.926 14.2995C192.903 14.3403 192.872 14.3712 192.83 14.3955C192.79 14.4179 192.747 14.4297 192.703 14.4297C192.659 14.4297 192.616 14.4179 192.576 14.3955C192.534 14.3725 192.503 14.3409 192.48 14.2995C192.456 14.2581 192.446 14.216 192.446 14.1719C192.446 14.1279 192.457 14.0851 192.481 14.0437C192.504 14.0029 192.535 13.9713 192.577 13.9483C192.619 13.9253 192.661 13.9154 192.703 13.9154C192.746 13.9154 192.788 13.926 192.828 13.9483C192.87 13.9713 192.901 14.0022 192.924 14.0437C192.947 14.0851 192.96 14.1279 192.96 14.1719C192.96 14.216 192.949 14.2587 192.926 14.2995Z" fill="#545472"/>
<path d="M192.807 14.2778C192.787 14.2468 192.77 14.225 192.758 14.2118C192.75 14.2046 192.741 14.1986 192.729 14.1947C192.758 14.1927 192.781 14.1822 192.798 14.1643C192.815 14.1472 192.824 14.1248 192.824 14.101C192.824 14.0845 192.819 14.0674 192.809 14.0522C192.798 14.0377 192.784 14.0265 192.768 14.0199C192.751 14.0133 192.722 14.01 192.683 14.01H192.567V14.3424H192.621V14.2013H192.652C192.671 14.2013 192.687 14.2052 192.696 14.2125C192.71 14.2244 192.728 14.2494 192.753 14.291L192.781 14.3431H192.848L192.807 14.2778ZM192.688 14.1558H192.623V14.0549H192.683C192.71 14.0549 192.727 14.0568 192.737 14.0601C192.746 14.0648 192.754 14.0694 192.759 14.0779C192.765 14.0865 192.768 14.0938 192.768 14.105C192.768 14.1195 192.762 14.132 192.752 14.1413C192.739 14.1525 192.719 14.1558 192.688 14.1558Z" fill="#545472"/>
<path d="M189.09 10.4871C188.636 10.4871 188.298 11.1072 188.298 11.1072L188.389 10.537H187.443L186.81 14.4712H187.852C188.148 12.7902 188.202 11.4269 188.907 11.6761C189.031 11.0263 189.151 10.7745 189.285 10.5002C189.285 10.5009 189.222 10.4871 189.09 10.4871Z" fill="#545472"/>
<path d="M191.708 9.63588L191.489 10.994C191.489 10.994 191.107 10.4659 190.509 10.4659C189.578 10.4665 188.803 11.5878 188.803 12.8755C188.803 13.7075 189.217 14.5223 190.062 14.5223C190.67 14.5223 191.007 14.0981 191.007 14.0981L190.963 14.4605H191.95L192.726 9.63391L191.708 9.63588ZM190.421 13.5358C190.055 13.5358 189.884 13.2294 189.884 12.7479C189.884 11.9607 190.237 11.4418 190.684 11.4418C191.048 11.4425 191.235 11.6931 191.235 12.2836C191.235 12.8196 190.97 13.5358 190.421 13.5358Z" fill="#545472"/>
<path d="M195.478 0H160.246C159.717 0 159.29 0.428138 159.29 0.956241V23.1162C159.29 23.6443 159.717 24.0724 160.246 24.0724H195.478C196.007 24.0724 196.434 23.6443 196.434 23.1162V0.956241C196.434 0.428138 196.007 0 195.478 0ZM193.099 17.48C193.072 17.53 193.034 17.5681 192.986 17.5951C192.937 17.6221 192.886 17.6359 192.833 17.6359C192.779 17.6359 192.728 17.6221 192.679 17.5951C192.631 17.5681 192.593 17.53 192.565 17.48C192.538 17.432 192.524 17.3807 192.524 17.3274C192.524 17.2742 192.538 17.2235 192.565 17.1735C192.592 17.1236 192.632 17.0861 192.68 17.0591C192.73 17.0335 192.78 17.0196 192.832 17.0196C192.884 17.0196 192.934 17.0335 192.983 17.0591C193.032 17.0861 193.071 17.1236 193.098 17.1735C193.126 17.2235 193.139 17.2748 193.139 17.3274C193.139 17.38 193.127 17.4333 193.099 17.48ZM193.789 12.0365C193.79 17.3011 189.524 21.5707 184.259 21.572C181.797 21.5726 179.551 20.6394 177.86 19.1064C176.168 20.6368 173.928 21.5693 171.469 21.5693C166.207 21.5693 161.937 17.2991 161.937 12.0365C161.937 6.79497 166.174 2.53726 171.408 2.50306C171.429 2.50306 171.449 2.50306 171.469 2.50306C173.928 2.50306 176.169 3.43563 177.861 4.96601C179.551 3.43497 181.794 2.50175 184.254 2.50109C189.52 2.49912 193.789 6.76669 193.79 12.0319C193.789 12.0332 193.789 12.0339 193.789 12.0365Z" fill="#545472"/>
<path d="M176.884 18.0642C177.186 18.4338 177.505 18.7863 177.859 19.1059C177.867 19.0987 177.875 19.0921 177.883 19.0856C177.883 19.0856 177.882 19.0856 177.882 19.0849H177.884C178.232 18.7686 178.556 18.4279 178.852 18.0642H176.884Z" fill="#545472"/>
<path d="M178.182 12.8316C178.182 12.8316 178.316 12.1739 178.316 11.9062C178.316 11.2374 177.983 10.4219 176.869 10.4219C175.848 10.4225 175.092 11.5221 175.092 12.7651C175.092 14.1995 176.039 14.5402 176.846 14.5402C177.59 14.5402 177.918 14.3731 177.918 14.3731L178.097 13.3945C178.097 13.3945 177.53 13.6444 177.019 13.6444C175.929 13.6444 176.12 12.8316 176.12 12.8316H178.182ZM176.872 11.3327C177.445 11.3327 177.339 11.9766 177.339 12.0279H176.212C176.212 11.9615 176.319 11.3327 176.872 11.3327Z" fill="#545472"/>
<path d="M182.942 10.557C183.459 10.557 183.874 10.8471 183.874 10.8471L184.039 9.77179C184.039 9.77179 183.425 9.52319 182.896 9.52319C181.725 9.52319 180.585 10.5399 180.585 12.4491C180.585 13.7151 181.2 14.551 182.412 14.551C182.754 14.551 183.299 14.4123 183.299 14.4123L183.481 13.3048C183.481 13.3048 182.984 13.554 182.642 13.554C181.921 13.5533 181.632 13.0035 181.632 12.4143C181.632 11.2154 182.252 10.557 182.942 10.557Z" fill="#545472"/>
<path d="M175.611 16.0613C175.776 16.4158 175.968 16.7531 176.174 17.082H179.557C179.762 16.7545 179.947 16.4138 180.112 16.0613H175.611Z" fill="#545472"/>
<path d="M180.567 10.4883C180.112 10.4883 179.776 11.1084 179.776 11.1084L179.867 10.5382H178.922L178.289 14.4724H179.33C179.626 12.792 179.681 11.4281 180.385 11.6773C180.509 11.0269 180.628 10.775 180.763 10.5001C180.763 10.5001 180.7 10.4869 180.567 10.4883Z" fill="#545472"/>
<path fill-rule="evenodd" clip-rule="evenodd" d="M212.434 1C212.434 0.447716 212.882 0 213.434 0H248.434C248.987 0 249.434 0.447715 249.434 1V23C249.434 23.5523 248.987 24 248.434 24H213.434C212.882 24 212.434 23.5523 212.434 23V1ZM239.538 17C239.428 17 239.324 16.9822 239.225 16.9465C239.125 16.9087 239.038 16.8572 238.961 16.7921C238.888 16.7249 238.828 16.6462 238.782 16.5559C238.739 16.4656 238.717 16.3669 238.717 16.2598C238.717 16.1528 238.739 16.0541 238.782 15.9638C238.828 15.8735 238.888 15.7958 238.961 15.7307C239.038 15.6635 239.125 15.6121 239.225 15.5764C239.324 15.5386 239.428 15.5197 239.538 15.5197C239.609 15.5197 239.672 15.5281 239.728 15.5449C239.784 15.5596 239.833 15.5753 239.873 15.5921C239.919 15.6131 239.96 15.6362 239.995 15.6614V15H240.434V16.9843H240.11L240.034 16.8425C239.993 16.8719 239.948 16.8982 239.9 16.9213C239.857 16.9423 239.805 16.9612 239.744 16.978C239.683 16.9927 239.614 17 239.538 17ZM240.034 16.2598C240.034 16.1402 239.992 16.0446 239.908 15.9732C239.824 15.9018 239.719 15.8661 239.595 15.8661C239.47 15.8661 239.366 15.9018 239.282 15.9732C239.198 16.0446 239.156 16.1402 239.156 16.2598C239.156 16.3795 239.198 16.4751 239.282 16.5465C239.366 16.6178 239.47 16.6535 239.595 16.6535C239.719 16.6535 239.824 16.6178 239.908 16.5465C239.992 16.4751 240.034 16.3795 240.034 16.2598ZM228.472 15.189H228.854V15.5354H229.235V15.8661H228.854V16.4646C228.854 16.5276 228.876 16.578 228.919 16.6157C228.965 16.6514 229.026 16.6693 229.102 16.6693H229.152C229.164 16.6672 229.176 16.6651 229.186 16.663C229.196 16.6609 229.206 16.6577 229.216 16.6535V16.9685C229.199 16.9748 229.178 16.9801 229.155 16.9843C229.112 16.9948 229.063 17 229.007 17C228.92 17 228.84 16.9885 228.766 16.9654C228.695 16.9402 228.633 16.9045 228.579 16.8583C228.528 16.8121 228.488 16.7575 228.457 16.6945C228.429 16.6315 228.415 16.5601 228.415 16.4803V15.8661H228.148V15.5669H228.262C228.402 15.5669 228.472 15.5092 228.472 15.3937V15.189ZM222.255 15.5197C222.344 15.5197 222.42 15.5302 222.484 15.5512C222.547 15.5701 222.599 15.5911 222.64 15.6142C222.686 15.6415 222.723 15.673 222.751 15.7087C222.791 15.673 222.838 15.6415 222.892 15.6142C222.938 15.5911 222.992 15.5701 223.056 15.5512C223.12 15.5302 223.189 15.5197 223.266 15.5197C223.457 15.5197 223.609 15.5701 223.724 15.6709C223.838 15.7717 223.895 15.9207 223.895 16.1181V16.9843H223.457V16.1496C223.457 16.0614 223.427 15.9921 223.369 15.9417C223.313 15.8913 223.247 15.8661 223.17 15.8661C223.094 15.8661 223.027 15.8913 222.968 15.9417C222.912 15.9921 222.884 16.0614 222.884 16.1496V16.9843H222.445V16.1496C222.445 16.0614 222.416 15.9921 222.358 15.9417C222.302 15.8913 222.236 15.8661 222.159 15.8661C222.083 15.8661 222.016 15.8913 221.957 15.9417C221.901 15.9921 221.873 16.0614 221.873 16.1496V16.9843H221.434V15.5354H221.759L221.835 15.6772C221.871 15.6478 221.91 15.6215 221.953 15.5984C221.989 15.5795 222.032 15.5617 222.083 15.5449C222.134 15.5281 222.191 15.5197 222.255 15.5197ZM225.212 15.5197C225.311 15.5197 225.403 15.5344 225.486 15.5638C225.57 15.5911 225.643 15.6299 225.704 15.6803C225.765 15.7307 225.812 15.7906 225.845 15.8598C225.881 15.9291 225.899 16.0047 225.899 16.0866V16.9843H225.574L225.498 16.8425C225.457 16.8719 225.413 16.8982 225.364 16.9213C225.321 16.9423 225.269 16.9612 225.208 16.978C225.147 16.9927 225.078 17 225.002 17C224.811 17 224.665 16.9622 224.563 16.8866C224.461 16.8089 224.41 16.7102 224.41 16.5906C224.41 16.5192 224.427 16.4541 224.46 16.3953C224.496 16.3344 224.554 16.2829 224.636 16.2409C224.717 16.1968 224.824 16.1633 224.956 16.1402C225.091 16.115 225.259 16.1024 225.46 16.1024C225.46 16.0226 225.433 15.9606 225.38 15.9165C225.329 15.8724 225.26 15.8504 225.174 15.8504C225.115 15.8504 225.068 15.8588 225.032 15.8756C224.999 15.8924 224.973 15.9102 224.952 15.9291C224.929 15.9522 224.914 15.9785 224.907 16.0079H224.468C224.478 15.9407 224.501 15.8777 224.536 15.8189C224.575 15.7601 224.625 15.7087 224.689 15.6646C224.753 15.6205 224.828 15.5858 224.914 15.5606C225.003 15.5333 225.102 15.5197 225.212 15.5197ZM225.078 16.7165C225.193 16.7165 225.284 16.6892 225.353 16.6346C225.424 16.578 225.46 16.5055 225.46 16.4173V16.3543C225.33 16.3543 225.226 16.3596 225.147 16.3701C225.068 16.3785 225.006 16.3921 224.96 16.411C224.917 16.4278 224.887 16.4488 224.872 16.474C224.857 16.4992 224.849 16.5276 224.849 16.5591C224.849 16.5989 224.871 16.6357 224.914 16.6693C224.957 16.7008 225.012 16.7165 225.078 16.7165ZM226.897 16.6504C226.851 16.6168 226.823 16.5759 226.813 16.5276H226.393C226.411 16.6703 226.478 16.7848 226.595 16.8709C226.715 16.957 226.889 17 227.118 17C227.217 17 227.306 16.9885 227.385 16.9654C227.467 16.9402 227.535 16.9076 227.591 16.8677C227.647 16.8278 227.69 16.7816 227.721 16.7291C227.751 16.6745 227.767 16.6178 227.767 16.5591C227.767 16.473 227.744 16.4037 227.698 16.3512C227.655 16.2966 227.6 16.2525 227.534 16.2189C227.468 16.1853 227.395 16.1601 227.317 16.1433C227.24 16.1244 227.169 16.1076 227.103 16.0929C227.037 16.0761 226.981 16.0583 226.935 16.0394C226.892 16.0205 226.87 15.9942 226.87 15.9606C226.87 15.9207 226.888 15.8871 226.923 15.8598C226.962 15.8325 227.014 15.8189 227.08 15.8189C227.146 15.8189 227.201 15.8346 227.244 15.8661C227.29 15.8976 227.318 15.9291 227.328 15.9606H227.748C227.727 15.8346 227.66 15.7297 227.545 15.6457C227.434 15.5617 227.272 15.5197 227.061 15.5197C226.964 15.5197 226.878 15.5323 226.801 15.5575C226.725 15.5806 226.659 15.6121 226.603 15.652C226.547 15.6919 226.504 15.7391 226.473 15.7937C226.445 15.8462 226.431 15.9018 226.431 15.9606C226.431 16.0446 226.453 16.1129 226.496 16.1654C226.542 16.2157 226.598 16.2577 226.664 16.2913C226.73 16.3228 226.801 16.347 226.878 16.3638C226.957 16.3806 227.029 16.3974 227.095 16.4142C227.161 16.4289 227.216 16.4457 227.259 16.4646C227.305 16.4835 227.328 16.5097 227.328 16.5433C227.328 16.5832 227.305 16.6199 227.259 16.6535C227.216 16.685 227.156 16.7008 227.08 16.7008C227.004 16.7008 226.943 16.684 226.897 16.6504ZM231.208 16.7071C231.256 16.6525 231.292 16.5979 231.315 16.5433H230.857C230.837 16.5643 230.811 16.5832 230.781 16.6C230.753 16.6147 230.718 16.6273 230.678 16.6378C230.639 16.6483 230.591 16.6535 230.533 16.6535C230.418 16.6535 230.328 16.6294 230.262 16.5811C230.196 16.5328 230.152 16.473 230.132 16.4016H231.353L231.358 16.3743L231.361 16.3543L231.368 16.3102C231.371 16.2934 231.372 16.2766 231.372 16.2598C231.372 16.1507 231.349 16.0509 231.303 15.9606C231.26 15.8682 231.2 15.7895 231.124 15.7244C231.048 15.6593 230.959 15.6089 230.857 15.5732C230.755 15.5375 230.647 15.5197 230.533 15.5197C230.413 15.5197 230.3 15.5396 230.193 15.5795C230.089 15.6173 229.996 15.6698 229.915 15.737C229.836 15.8042 229.772 15.8829 229.724 15.9732C229.678 16.0614 229.655 16.157 229.655 16.2598C229.655 16.3627 229.678 16.4593 229.724 16.5496C229.772 16.6378 229.836 16.7155 229.915 16.7827C229.996 16.8499 230.089 16.9034 230.193 16.9433C230.3 16.9811 230.413 17 230.533 17C230.632 17 230.723 16.9864 230.807 16.9591C230.894 16.9318 230.97 16.8971 231.036 16.8551C231.105 16.811 231.162 16.7617 231.208 16.7071ZM230.25 15.948C230.324 15.8934 230.418 15.8661 230.533 15.8661C230.647 15.8661 230.74 15.8934 230.811 15.948C230.885 16.0026 230.932 16.0698 230.952 16.1496H230.113C230.133 16.0698 230.179 16.0026 230.25 15.948ZM232.707 15.5197C232.727 15.5197 232.745 15.5207 232.76 15.5228C232.775 15.5249 232.789 15.527 232.802 15.5291L232.84 15.5354V15.9134L232.819 15.9101L232.798 15.9071C232.786 15.905 232.769 15.9029 232.749 15.9008C232.731 15.8987 232.71 15.8976 232.688 15.8976C232.581 15.8976 232.493 15.927 232.424 15.9858C232.358 16.0425 232.325 16.1181 232.325 16.2126V16.9843H231.886V15.5354H232.211L232.287 15.6929C232.317 15.6614 232.354 15.6331 232.398 15.6079C232.433 15.5848 232.476 15.5648 232.527 15.548C232.581 15.5291 232.641 15.5197 232.707 15.5197ZM234.799 16.6567C234.847 16.5895 234.882 16.5202 234.902 16.4488H234.463C234.443 16.4887 234.415 16.5234 234.379 16.5528C234.349 16.578 234.309 16.601 234.261 16.622C234.213 16.643 234.153 16.6535 234.082 16.6535C233.957 16.6535 233.853 16.6178 233.769 16.5465C233.685 16.4751 233.643 16.3795 233.643 16.2598C233.643 16.1402 233.685 16.0446 233.769 15.9732C233.853 15.9018 233.957 15.8661 234.082 15.8661C234.153 15.8661 234.213 15.8777 234.261 15.9008C234.309 15.9218 234.349 15.9449 234.379 15.9701C234.415 15.9995 234.443 16.0331 234.463 16.0709H234.902C234.882 15.9995 234.847 15.9312 234.799 15.8661C234.751 15.799 234.691 15.7402 234.62 15.6898C234.548 15.6373 234.467 15.5963 234.375 15.5669C234.284 15.5354 234.186 15.5197 234.082 15.5197C233.962 15.5197 233.849 15.5396 233.742 15.5795C233.638 15.6173 233.545 15.6698 233.463 15.737C233.385 15.8042 233.321 15.8829 233.273 15.9732C233.227 16.0614 233.204 16.157 233.204 16.2598C233.204 16.3627 233.227 16.4593 233.273 16.5496C233.321 16.6378 233.385 16.7155 233.463 16.7827C233.545 16.8499 233.638 16.9034 233.742 16.9433C233.849 16.9811 233.962 17 234.082 17C234.186 17 234.284 16.9853 234.375 16.9559C234.467 16.9244 234.548 16.8835 234.62 16.8331C234.691 16.7806 234.751 16.7218 234.799 16.6567ZM236.123 15.5197C236.222 15.5197 236.314 15.5344 236.398 15.5638C236.482 15.5911 236.554 15.6299 236.615 15.6803C236.676 15.7307 236.723 15.7906 236.756 15.8598C236.792 15.9291 236.81 16.0047 236.81 16.0866V16.9843H236.485L236.409 16.8425C236.368 16.8719 236.324 16.8982 236.276 16.9213C236.232 16.9423 236.18 16.9612 236.119 16.978C236.058 16.9927 235.989 17 235.913 17C235.722 17 235.576 16.9622 235.474 16.8866C235.372 16.8089 235.322 16.7102 235.322 16.5906C235.322 16.5192 235.338 16.4541 235.371 16.3953C235.407 16.3344 235.465 16.2829 235.547 16.2409C235.628 16.1968 235.735 16.1633 235.867 16.1402C236.002 16.115 236.17 16.1024 236.371 16.1024C236.371 16.0226 236.344 15.9606 236.291 15.9165C236.24 15.8724 236.171 15.8504 236.085 15.8504C236.026 15.8504 235.979 15.8588 235.944 15.8756C235.91 15.8924 235.884 15.9102 235.863 15.9291C235.841 15.9522 235.825 15.9785 235.818 16.0079H235.379C235.389 15.9407 235.412 15.8777 235.448 15.8189C235.486 15.7601 235.537 15.7087 235.6 15.6646C235.664 15.6205 235.739 15.5858 235.825 15.5606C235.914 15.5333 236.013 15.5197 236.123 15.5197ZM235.989 16.7165C236.104 16.7165 236.195 16.6892 236.264 16.6346C236.335 16.578 236.371 16.5055 236.371 16.4173V16.3543C236.241 16.3543 236.137 16.3596 236.058 16.3701C235.979 16.3785 235.917 16.3921 235.871 16.411C235.828 16.4278 235.799 16.4488 235.783 16.474C235.768 16.4992 235.76 16.5276 235.76 16.5591C235.76 16.5989 235.782 16.6357 235.825 16.6693C235.869 16.7008 235.923 16.7165 235.989 16.7165ZM238.273 15.5228C238.258 15.5207 238.24 15.5197 238.22 15.5197C238.154 15.5197 238.094 15.5291 238.041 15.548C237.99 15.5648 237.947 15.5848 237.911 15.6079C237.868 15.6331 237.831 15.6614 237.8 15.6929L237.724 15.5354H237.4V16.9843H237.838V16.2126C237.838 16.1181 237.872 16.0425 237.938 15.9858C238.006 15.927 238.094 15.8976 238.201 15.8976C238.224 15.8976 238.244 15.8987 238.262 15.9008C238.282 15.9029 238.299 15.905 238.312 15.9071C238.327 15.9092 238.341 15.9113 238.354 15.9134V15.5354L238.315 15.5291C238.303 15.527 238.289 15.5249 238.273 15.5228ZM228.232 18.4145C228.361 18.3565 228.494 18.3275 228.629 18.3275C228.749 18.3275 228.857 18.3458 228.954 18.3824C229.051 18.4176 229.137 18.4656 229.213 18.5267C229.291 18.5878 229.355 18.6603 229.405 18.7443C229.456 18.8267 229.495 18.9145 229.521 19.0076H229.945C229.901 18.8672 229.84 18.7359 229.761 18.6137C229.682 18.4916 229.586 18.3847 229.473 18.2931C229.359 18.2 229.233 18.1282 229.092 18.0779C228.952 18.026 228.797 18 228.629 18C228.437 18 228.252 18.0382 228.074 18.1145C227.898 18.1908 227.743 18.2969 227.609 18.4328C227.475 18.5687 227.368 18.7282 227.287 18.9115C227.206 19.0947 227.166 19.2908 227.166 19.5C227.166 19.7122 227.206 19.9092 227.287 20.0908C227.368 20.2725 227.475 20.4313 227.609 20.5672C227.743 20.7031 227.898 20.8092 228.074 20.8855C228.252 20.9618 228.437 21 228.629 21C228.801 21 228.959 20.9748 229.104 20.9244C229.251 20.8725 229.381 20.8008 229.494 20.7092C229.609 20.616 229.706 20.5084 229.785 20.3863C229.864 20.2641 229.926 20.1328 229.969 19.9924H229.548C229.52 20.0855 229.481 20.174 229.429 20.258C229.379 20.3405 229.315 20.4122 229.238 20.4733C229.16 20.5344 229.07 20.5832 228.966 20.6198C228.864 20.655 228.752 20.6725 228.629 20.6725C228.494 20.6725 228.361 20.6435 228.232 20.5855C228.103 20.5275 227.988 20.4466 227.888 20.3427C227.789 20.2374 227.71 20.113 227.65 19.9695C227.592 19.826 227.563 19.6695 227.563 19.5C227.563 19.3305 227.592 19.174 227.65 19.0305C227.71 18.887 227.789 18.7634 227.888 18.6595C227.988 18.5542 228.103 18.4725 228.232 18.4145ZM221.832 20.9771H221.434V18.0229H221.832V20.9771ZM223.742 20.6496C223.884 20.6496 224.022 20.6206 224.154 20.5626C224.287 20.5046 224.403 20.4244 224.503 20.3221C224.605 20.2183 224.686 20.0969 224.745 19.958C224.805 19.8176 224.835 19.6649 224.835 19.5C224.835 19.3382 224.805 19.187 224.745 19.0466C224.686 18.9046 224.605 18.7824 224.503 18.6802C224.403 18.5763 224.287 18.4954 224.154 18.4374C224.022 18.3794 223.884 18.3504 223.742 18.3504H223.272V20.6496H223.742ZM225.232 19.5C225.232 19.7122 225.193 19.9084 225.114 20.0886C225.036 20.2687 224.93 20.4244 224.794 20.5557C224.658 20.687 224.5 20.7901 224.319 20.8649C224.14 20.9397 223.947 20.9771 223.742 20.9771H222.875V18.0229H223.742C223.947 18.0229 224.14 18.0603 224.319 18.1351C224.5 18.2099 224.658 18.313 224.794 18.4443C224.93 18.5756 225.036 18.7321 225.114 18.9137C225.193 19.0954 225.232 19.2908 225.232 19.5ZM231.73 18.8427C231.849 18.8427 231.961 18.8656 232.064 18.9115C232.169 18.9573 232.261 19.0198 232.34 19.0992C232.419 19.1786 232.482 19.2748 232.529 19.3878C232.576 19.4992 232.6 19.6229 232.6 19.7588V20.9771H232.226V19.7588C232.226 19.6718 232.211 19.5924 232.18 19.5206C232.151 19.4473 232.112 19.3847 232.062 19.3328C232.013 19.2809 231.956 19.2412 231.889 19.2137C231.823 19.1863 231.754 19.1725 231.681 19.1725C231.505 19.1725 231.361 19.226 231.25 19.3328C231.14 19.4382 231.085 19.5802 231.085 19.7588V20.9771H230.712V18.0229H231.085V19.1244C231.132 19.071 231.187 19.0244 231.25 18.9847C231.306 18.9496 231.373 18.9176 231.451 18.8885C231.53 18.858 231.623 18.8427 231.73 18.8427ZM235.138 20.6359C235.194 20.5626 235.241 20.4886 235.278 20.4137H234.881C234.861 20.4397 234.836 20.4679 234.806 20.4985C234.777 20.5275 234.739 20.5542 234.694 20.5786C234.649 20.6031 234.599 20.6252 234.544 20.645C234.491 20.6634 234.429 20.6725 234.36 20.6725C234.281 20.6725 234.202 20.6565 234.125 20.6244C234.049 20.5908 233.982 20.5473 233.924 20.4939C233.867 20.4405 233.819 20.3779 233.781 20.3061C233.743 20.2344 233.722 20.1611 233.715 20.0863H235.302C235.306 20.0695 235.309 20.0519 235.312 20.0336C235.315 20.0183 235.319 20 235.322 19.9786C235.325 19.9557 235.327 19.929 235.327 19.8985C235.327 19.7397 235.3 19.5954 235.247 19.4656C235.195 19.3359 235.124 19.2252 235.033 19.1336C234.945 19.0405 234.84 18.9687 234.718 18.9183C234.599 18.8679 234.471 18.8427 234.335 18.8427C234.2 18.8427 234.07 18.8695 233.945 18.9229C233.821 18.9763 233.712 19.0511 233.618 19.1473C233.526 19.242 233.453 19.355 233.398 19.4863C233.344 19.6176 233.318 19.7626 233.318 19.9214C233.318 20.0817 233.344 20.2275 233.398 20.3588C233.453 20.4901 233.527 20.6038 233.621 20.7C233.716 20.7947 233.827 20.8687 233.955 20.9221C234.083 20.974 234.218 21 234.36 21C234.478 21 234.584 20.984 234.68 20.9519C234.777 20.9183 234.863 20.8756 234.939 20.8237C235.015 20.7702 235.081 20.7076 235.138 20.6359ZM234.117 19.2183C234.187 19.1878 234.26 19.1725 234.335 19.1725C234.484 19.1725 234.613 19.2275 234.723 19.3374C234.835 19.4458 234.903 19.5939 234.929 19.7817H233.715C233.728 19.6931 233.753 19.6115 233.79 19.5366C233.829 19.4618 233.876 19.3977 233.931 19.3443C233.987 19.2908 234.05 19.2489 234.117 19.2183ZM236.963 19.1725C236.878 19.1725 236.794 19.1908 236.711 19.2275C236.63 19.2626 236.559 19.313 236.496 19.3786C236.433 19.4443 236.382 19.5229 236.345 19.6145C236.31 19.7061 236.292 19.8084 236.292 19.9214C236.292 20.0344 236.31 20.1374 236.345 20.2305C236.382 20.3221 236.433 20.4008 236.496 20.4664C236.559 20.5321 236.63 20.5832 236.711 20.6198C236.794 20.655 236.878 20.6725 236.963 20.6725C237.036 20.6725 237.105 20.6603 237.169 20.6359C237.234 20.6099 237.291 20.5771 237.341 20.5374C237.393 20.4962 237.437 20.4489 237.472 20.3954C237.509 20.342 237.538 20.2855 237.559 20.226H237.93C237.904 20.3328 237.863 20.4336 237.807 20.5282C237.75 20.6214 237.68 20.7031 237.596 20.7733C237.512 20.8435 237.416 20.8992 237.307 20.9405C237.201 20.9802 237.086 21 236.963 21C236.821 21 236.686 20.974 236.559 20.9221C236.431 20.8687 236.319 20.7947 236.224 20.7C236.13 20.6038 236.056 20.4901 236.001 20.3588C235.948 20.2275 235.921 20.0817 235.921 19.9214C235.921 19.7626 235.948 19.6176 236.001 19.4863C236.056 19.355 236.13 19.242 236.224 19.1473C236.319 19.0511 236.431 18.9763 236.559 18.9229C236.686 18.8695 236.821 18.8427 236.963 18.8427C237.086 18.8427 237.201 18.8634 237.307 18.9046C237.416 18.9443 237.512 19 237.596 19.0718C237.68 19.142 237.75 19.2237 237.807 19.3168C237.863 19.4099 237.904 19.5099 237.93 19.6168H237.559C237.54 19.5573 237.512 19.5015 237.475 19.4496C237.437 19.3962 237.393 19.3489 237.341 19.3076C237.291 19.2664 237.234 19.2336 237.169 19.2092C237.105 19.1847 237.036 19.1725 236.963 19.1725ZM238.673 20.9771H239.046V19.8756L239.988 20.9771H240.434L239.467 19.8504L240.311 18.8656H239.889L239.046 19.8756V18.0229H238.673V20.9771ZM230.171 12.6944C229.146 13.5116 227.847 14 226.434 14C223.121 14 220.434 11.3137 220.434 8C220.434 4.68629 223.121 2 226.434 2C227.971 2 229.373 2.5777 230.434 3.52778C231.496 2.5777 232.898 2 234.434 2C237.748 2 240.434 4.68629 240.434 8C240.434 11.3137 237.748 14 234.434 14C233.021 14 231.722 13.5116 230.697 12.6944C231.771 11.6103 232.434 10.1187 232.434 8.47221C232.434 6.69521 231.662 5.09864 230.434 4C229.207 5.09864 228.434 6.69521 228.434 8.47221C228.434 10.1187 229.097 11.6103 230.171 12.6944Z" fill="#545472"/>
<path fill-rule="evenodd" clip-rule="evenodd" d="M266.434 0C265.882 0 265.434 0.447716 265.434 1V23C265.434 23.5523 265.882 24 266.434 24H301.434C301.987 24 302.434 23.5523 302.434 23V1C302.434 0.447715 301.987 0 301.434 0H266.434ZM284.799 3.00049L282.802 4.99084V4.24291H279.961V7.0478L279.443 6.53125L277.434 8.53248L279.539 10.6293H278.705V13.4594H281.543L281.002 13.9985L283.011 15.9998L285.067 13.9512V14.7813H287.907V11.847L288.426 12.3637L290.434 10.3624L288.423 8.3585H289.233V5.52833H286.279L286.808 5.00172L284.799 3.00049ZM285.521 9.46935L286.744 10.6881H285.067V12.2598L283.907 11.1042L282.813 12.194V10.6293H281.139L282.347 9.42555L281.254 8.33607H282.802V6.79874L283.903 7.89602L285.125 6.67777V8.3585H286.636L285.521 9.46935ZM275.732 18.0867C275.889 18.0867 276.031 18.1119 276.159 18.1623C276.291 18.2127 276.403 18.2804 276.496 18.3654C276.589 18.4504 276.661 18.5512 276.712 18.6678C276.763 18.7812 276.789 18.9024 276.789 19.0315C276.789 19.1607 276.763 19.2835 276.712 19.4001C276.661 19.5134 276.589 19.6127 276.496 19.6977C276.403 19.7827 276.291 19.8504 276.159 19.9008C276.031 19.9512 275.889 19.9764 275.732 19.9764H274.434V17.0001H276.549V17.6615H275.131V18.0867H275.732ZM275.708 19.3859C275.817 19.3859 275.908 19.3512 275.982 19.2819C276.055 19.2095 276.092 19.126 276.092 19.0315C276.092 18.9371 276.055 18.8552 275.982 18.7859C275.908 18.7134 275.817 18.6772 275.708 18.6772H275.131V19.3859H275.708ZM277.222 17.0001H279.384V17.6615H277.918V18.1339H279.264V18.7953H277.918V19.315H279.432V19.9764H277.222V17.0001ZM282.433 19.9764V17.0001H280.295L280.127 18.9371C280.114 19.0788 280.069 19.189 279.992 19.2678C279.919 19.3465 279.827 19.3859 279.718 19.3859H279.622V19.9764C279.648 19.9827 279.677 19.9875 279.709 19.9906C279.734 19.9938 279.765 19.9953 279.8 19.9953C279.835 19.9985 279.872 20.0001 279.911 20.0001C280.164 20.0001 280.369 19.9213 280.526 19.7638C280.683 19.6032 280.774 19.3749 280.8 19.0788L280.92 17.6615H281.737V19.9764H282.433ZM283.704 19.9764H283.008V17.0001H283.704V18.2756L284.617 17.0001H285.41L284.344 18.4646L285.435 19.9137L286.494 17.0001H287.214L288.295 19.9764H287.575L287.382 19.4095H286.325L286.133 19.9764H285.482H285.412H284.689L283.704 18.6536V19.9764ZM286.854 17.8268L287.19 18.819H286.518L286.854 17.8268ZM289.736 17.0001C289.893 17.0001 290.037 17.0268 290.169 17.0804C290.3 17.1308 290.414 17.2032 290.51 17.2977C290.606 17.389 290.681 17.4961 290.736 17.6189C290.79 17.7418 290.817 17.8741 290.817 18.0158C290.817 18.1575 290.79 18.2898 290.736 18.4127C290.681 18.5355 290.606 18.6441 290.51 18.7386C290.414 18.83 290.3 18.9024 290.169 18.956C290.037 19.0064 289.893 19.0315 289.736 19.0315H289.256V19.9764H288.559V17.0001H289.736ZM289.736 18.3701C289.845 18.3701 289.937 18.3355 290.01 18.2662C290.084 18.1938 290.121 18.1103 290.121 18.0158C290.121 17.9213 290.084 17.8394 290.01 17.7701C289.937 17.6977 289.845 17.6615 289.736 17.6615H289.256V18.3701H289.736ZM291.873 19.9764H292.569V17.6615H293.434V17.0001H291.008V17.6615H291.873V19.9764Z" fill="#545472"/>
<path fill-rule="evenodd" clip-rule="evenodd" d="M319.434 0C318.882 0 318.434 0.447716 318.434 1V23C318.434 23.5523 318.882 24 319.434 24H354.434C354.987 24 355.434 23.5523 355.434 23V1C355.434 0.447715 354.987 0 354.434 0H319.434ZM321.434 9C321.434 8.44771 321.882 8 322.434 8H328.434C328.987 8 329.434 8.44771 329.434 9V15C329.434 15.5523 328.987 16 328.434 16H322.434C321.882 16 321.434 15.5523 321.434 15V9ZM332.937 10.0866C333.118 10.0866 333.283 10.1118 333.432 10.1622C333.584 10.2126 333.714 10.2803 333.821 10.3654C333.929 10.4504 334.012 10.5512 334.072 10.6677C334.131 10.7811 334.161 10.9024 334.161 11.0315C334.161 11.1606 334.131 11.2835 334.072 11.4C334.012 11.5134 333.929 11.6126 333.821 11.6976C333.714 11.7827 333.584 11.8504 333.432 11.9008C333.283 11.9512 333.118 11.9764 332.937 11.9764H331.434V9H333.882V9.66142H332.241V10.0866H332.937ZM332.909 11.3858C333.035 11.3858 333.141 11.3512 333.226 11.2819C333.311 11.2094 333.354 11.126 333.354 11.0315C333.354 10.937 333.311 10.8551 333.226 10.7858C333.141 10.7134 333.035 10.6772 332.909 10.6772H332.241V11.3858H332.909ZM334.662 9H337.166V9.66142H335.469V10.1339H337.026V10.7953H335.469V11.315H337.221V11.9764H334.662V9ZM340.696 11.9764V9H338.22L338.026 10.937C338.011 11.0787 337.959 11.189 337.87 11.2677C337.784 11.3465 337.679 11.3858 337.553 11.3858H337.441V11.9764C337.471 11.9827 337.504 11.9874 337.542 11.9906C337.571 11.9937 337.606 11.9953 337.647 11.9953C337.688 11.9984 337.731 12 337.775 12C338.068 12 338.306 11.9213 338.487 11.7638C338.669 11.6031 338.775 11.3748 338.805 11.0787L338.944 9.66142H339.89V11.9764H340.696ZM342.168 11.9764H341.361V9H342.168V10.2756L343.225 9H344.143L342.908 10.4646L344.172 11.9137L345.398 9H346.232L347.484 11.9764H346.65L346.427 11.4094H345.203L344.98 11.9764H344.227H344.146H343.309L342.168 10.6535V11.9764ZM345.815 9.82677L346.204 10.8189H345.425L345.815 9.82677ZM349.152 9C349.334 9 349.501 9.02677 349.653 9.08031C349.805 9.13071 349.937 9.20315 350.048 9.29764C350.159 9.38898 350.247 9.49606 350.31 9.6189C350.373 9.74173 350.404 9.87402 350.404 10.0157C350.404 10.1575 350.373 10.2898 350.31 10.4126C350.247 10.5354 350.159 10.6441 350.048 10.7386C349.937 10.8299 349.805 10.9024 349.653 10.9559C349.501 11.0063 349.334 11.0315 349.152 11.0315H348.596V11.9764H347.789V9H349.152ZM349.152 10.3701C349.279 10.3701 349.384 10.3354 349.47 10.2661C349.555 10.1937 349.598 10.1102 349.598 10.0157C349.598 9.92126 349.555 9.83937 349.47 9.77008C349.384 9.69764 349.279 9.66142 349.152 9.66142H348.596V10.3701H349.152ZM351.626 11.9764H352.433V9.66142H353.434V9H350.624V9.66142H351.626V11.9764ZM331.876 13.9494V13H331.434V14.5949H331.83L332.607 13.6456V14.5949H333.049V13H332.653L331.876 13.9494ZM334.695 14.5949V13.4304H334.284V13.8481H333.797V13.4304H333.385V14.5949H333.797V14.1772H334.284V14.5949H334.695ZM334.879 13.4304H336.113V13.7595H335.702V14.5949H335.29V13.7595H334.879V13.4304ZM337.478 14.3899C337.515 14.346 337.542 14.3004 337.56 14.2532L337.134 14.2278C337.122 14.243 337.105 14.2557 337.085 14.2658C337.069 14.2759 337.046 14.2852 337.018 14.2937C336.992 14.3004 336.959 14.3038 336.92 14.3038C336.843 14.3038 336.779 14.2852 336.729 14.2481C336.68 14.211 336.647 14.1705 336.631 14.1266H337.591L337.593 14.1109L337.597 14.0886L337.603 14.0532C337.605 14.0397 337.606 14.0262 337.606 14.0127C337.606 13.9215 337.588 13.8388 337.551 13.7646C337.517 13.6886 337.468 13.6245 337.405 13.5722C337.344 13.5181 337.272 13.4768 337.189 13.4481C337.105 13.4194 337.016 13.4051 336.92 13.4051C336.821 13.4051 336.728 13.4211 336.64 13.4532C336.555 13.4835 336.48 13.5266 336.415 13.5823C336.35 13.6363 336.298 13.7004 336.259 13.7747C336.223 13.8473 336.204 13.9266 336.204 14.0127C336.204 14.0987 336.223 14.1789 336.259 14.2532C336.298 14.3257 336.349 14.3899 336.412 14.4456C336.477 14.4996 336.551 14.5426 336.634 14.5747C336.719 14.6051 336.81 14.6203 336.905 14.6203C336.997 14.6203 337.078 14.6101 337.149 14.5899C337.222 14.5696 337.286 14.5426 337.341 14.5089C337.396 14.4734 337.441 14.4338 337.478 14.3899ZM336.729 13.7797C336.779 13.7409 336.843 13.7215 336.92 13.7215C336.998 13.7215 337.061 13.7409 337.109 13.7797C337.16 13.8169 337.194 13.8608 337.21 13.9114H336.631C336.647 13.8608 336.68 13.8169 336.729 13.7797ZM338.595 13.4177C338.682 13.4177 338.766 13.4329 338.845 13.4633C338.924 13.492 338.993 13.5333 339.052 13.5873C339.113 13.6397 339.161 13.7021 339.195 13.7747C339.232 13.8473 339.25 13.9266 339.25 14.0127C339.25 14.0987 339.232 14.1781 339.195 14.2506C339.161 14.3232 339.113 14.3865 339.052 14.4405C338.993 14.4928 338.924 14.5342 338.845 14.5646C338.766 14.5932 338.682 14.6076 338.595 14.6076C338.542 14.6076 338.494 14.6025 338.449 14.5924C338.406 14.5823 338.37 14.5705 338.339 14.557C338.303 14.5418 338.271 14.5249 338.245 14.5063V15H337.833V13.4304H338.138L338.199 13.5443C338.229 13.5207 338.265 13.4996 338.306 13.481C338.34 13.4658 338.382 13.4515 338.431 13.438C338.479 13.4245 338.534 13.4177 338.595 13.4177ZM338.839 14.0127C338.839 13.93 338.809 13.8633 338.75 13.8127C338.692 13.7603 338.619 13.7342 338.534 13.7342C338.449 13.7342 338.377 13.7603 338.318 13.8127C338.259 13.8633 338.229 13.93 338.229 14.0127C338.229 14.0954 338.259 14.1629 338.318 14.2152C338.377 14.2658 338.449 14.2911 338.534 14.2911C338.619 14.2911 338.692 14.2658 338.75 14.2152C338.809 14.1629 338.839 14.0954 338.839 14.0127ZM340.392 14.5949H340.804V13.4304H340.392V13.8481H339.905V13.4304H339.494V14.5949H339.905V14.1772H340.392V14.5949ZM342.404 14.2532C342.386 14.3004 342.358 14.346 342.322 14.3899C342.285 14.4338 342.24 14.4734 342.185 14.5089C342.13 14.5426 342.066 14.5696 341.993 14.5899C341.922 14.6101 341.84 14.6203 341.749 14.6203C341.654 14.6203 341.563 14.6051 341.478 14.5747C341.395 14.5426 341.32 14.4996 341.255 14.4456C341.192 14.3899 341.142 14.3257 341.103 14.2532C341.067 14.1789 341.048 14.0987 341.048 14.0127C341.048 13.9266 341.067 13.8473 341.103 13.7747C341.142 13.7004 341.193 13.6363 341.258 13.5823C341.323 13.5266 341.399 13.4835 341.484 13.4532C341.571 13.4211 341.665 13.4051 341.764 13.4051C341.86 13.4051 341.949 13.4194 342.032 13.4481C342.116 13.4768 342.188 13.5181 342.249 13.5722C342.312 13.6245 342.36 13.6886 342.395 13.7646C342.431 13.8388 342.45 13.9215 342.45 14.0127C342.45 14.0262 342.449 14.0397 342.447 14.0532L342.441 14.0886C342.439 14.1021 342.437 14.1148 342.435 14.1266H341.475C341.491 14.1705 341.524 14.211 341.572 14.2481C341.623 14.2852 341.687 14.3038 341.764 14.3038C341.803 14.3038 341.835 14.3004 341.862 14.2937C341.89 14.2852 341.913 14.2759 341.929 14.2658C341.949 14.2557 341.965 14.243 341.977 14.2278L342.404 14.2532ZM341.764 13.7215C341.687 13.7215 341.623 13.7409 341.572 13.7797C341.524 13.8169 341.491 13.8608 341.475 13.9114H342.054C342.037 13.8608 342.004 13.8169 341.953 13.7797C341.904 13.7409 341.841 13.7215 341.764 13.7215ZM343.774 13.4304H342.54V13.7595H342.952V14.5949H343.363V13.7595H343.774V13.4304ZM345.617 13V14.5949H345.175V13.3544H344.429V14.5949H343.987V13H345.617ZM346.794 13.4405C346.723 13.4169 346.646 13.4051 346.562 13.4051C346.471 13.4051 346.39 13.4152 346.319 13.4354C346.247 13.454 346.187 13.481 346.136 13.5165C346.087 13.5502 346.047 13.5916 346.017 13.6405C345.986 13.6878 345.965 13.7401 345.953 13.7975L346.364 13.8228C346.37 13.8025 346.382 13.784 346.398 13.7671C346.412 13.7536 346.43 13.7409 346.453 13.7291C346.477 13.7156 346.508 13.7089 346.547 13.7089C346.6 13.7089 346.644 13.7241 346.678 13.7544C346.713 13.7848 346.73 13.8287 346.73 13.8861C346.569 13.8861 346.435 13.8962 346.328 13.9165C346.222 13.935 346.137 13.962 346.072 13.9975C346.007 14.0312 345.96 14.0726 345.932 14.1215C345.905 14.1688 345.892 14.2211 345.892 14.2785C345.892 14.3747 345.933 14.454 346.014 14.5165C346.095 14.5772 346.212 14.6076 346.364 14.6076C346.425 14.6076 346.48 14.6017 346.529 14.5899C346.58 14.5764 346.623 14.5612 346.66 14.5443C346.702 14.5257 346.741 14.5046 346.776 14.481L346.837 14.5949H347.141V13.8861C347.141 13.8169 347.127 13.7527 347.099 13.6937C347.07 13.6346 347.029 13.584 346.977 13.5418C346.926 13.4979 346.865 13.4641 346.794 13.4405ZM346.657 14.2962C346.61 14.335 346.548 14.3544 346.471 14.3544C346.418 14.3544 346.376 14.3435 346.346 14.3215C346.318 14.2996 346.303 14.2726 346.303 14.2405C346.303 14.2186 346.308 14.1983 346.319 14.1797C346.331 14.1612 346.352 14.1451 346.383 14.1316C346.415 14.1181 346.459 14.108 346.514 14.1013C346.57 14.0928 346.643 14.0886 346.73 14.0886V14.1392C346.73 14.2034 346.705 14.2557 346.657 14.2962ZM348.193 13.4177C348.281 13.4177 348.364 13.4329 348.443 13.4633C348.522 13.492 348.591 13.5333 348.65 13.5873C348.711 13.6397 348.759 13.7021 348.794 13.7747C348.83 13.8473 348.848 13.9266 348.848 14.0127C348.848 14.0987 348.83 14.1781 348.794 14.2506C348.759 14.3232 348.711 14.3865 348.65 14.4405C348.591 14.4928 348.522 14.5342 348.443 14.5646C348.364 14.5932 348.281 14.6076 348.193 14.6076C348.141 14.6076 348.092 14.6025 348.047 14.5924C348.004 14.5823 347.968 14.5705 347.937 14.557C347.901 14.5418 347.869 14.5249 347.843 14.5063V15H347.432V13.4304H347.736L347.797 13.5443C347.828 13.5207 347.863 13.4996 347.904 13.481C347.938 13.4658 347.98 13.4515 348.029 13.438C348.078 13.4245 348.132 13.4177 348.193 13.4177ZM348.437 14.0127C348.437 13.93 348.408 13.8633 348.349 13.8127C348.29 13.7603 348.218 13.7342 348.132 13.7342C348.047 13.7342 347.975 13.7603 347.916 13.8127C347.857 13.8633 347.828 13.93 347.828 14.0127C347.828 14.0954 347.857 14.1629 347.916 14.2152C347.975 14.2658 348.047 14.2911 348.132 14.2911C348.218 14.2911 348.29 14.2658 348.349 14.2152C348.408 14.1629 348.437 14.0954 348.437 14.0127ZM349.086 13.7747C349.049 13.8473 349.031 13.9266 349.031 14.0127C349.031 14.0987 349.049 14.1789 349.086 14.2532C349.124 14.3257 349.176 14.3899 349.241 14.4456C349.306 14.4996 349.381 14.5426 349.467 14.5747C349.554 14.6051 349.647 14.6203 349.747 14.6203C349.846 14.6203 349.939 14.6051 350.024 14.5747C350.112 14.5426 350.188 14.4996 350.253 14.4456C350.318 14.3899 350.368 14.3257 350.405 14.2532C350.444 14.1789 350.463 14.0987 350.463 14.0127C350.463 13.9266 350.444 13.8473 350.405 13.7747C350.368 13.7004 350.318 13.6363 350.253 13.5823C350.188 13.5266 350.112 13.4835 350.024 13.4532C349.939 13.4211 349.846 13.4051 349.747 13.4051C349.647 13.4051 349.554 13.4211 349.467 13.4532C349.381 13.4835 349.306 13.5266 349.241 13.5823C349.176 13.6363 349.124 13.7004 349.086 13.7747ZM349.963 13.8C350.022 13.8523 350.052 13.9232 350.052 14.0127C350.052 14.1021 350.022 14.173 349.963 14.2253C349.904 14.2776 349.832 14.3038 349.747 14.3038C349.662 14.3038 349.59 14.2776 349.531 14.2253C349.472 14.173 349.442 14.1021 349.442 14.0127C349.442 13.9232 349.472 13.8523 349.531 13.8C349.59 13.7477 349.662 13.7215 349.747 13.7215C349.832 13.7215 349.904 13.7477 349.963 13.8ZM351.927 14.5949H351.516V13.7595H351.196L351.15 14.2152C351.138 14.3418 351.089 14.4388 351.004 14.5063C350.918 14.5738 350.8 14.6076 350.647 14.6076C350.627 14.6076 350.61 14.6068 350.595 14.6051C350.581 14.6051 350.569 14.6042 350.559 14.6025C350.547 14.6008 350.536 14.5983 350.525 14.5949V14.3038H350.571C350.632 14.3038 350.676 14.2928 350.702 14.2709C350.729 14.2473 350.746 14.2034 350.754 14.1392L350.83 13.4304H351.927V14.5949ZM353.133 13.8177C353.072 13.7958 353.005 13.7848 352.932 13.7848H352.642V13.4304H352.231V14.5949H352.932C353.005 14.5949 353.072 14.5848 353.133 14.5646C353.194 14.5426 353.246 14.5139 353.291 14.4785C353.336 14.4413 353.37 14.3983 353.395 14.3494C353.421 14.3004 353.434 14.2473 353.434 14.1899C353.434 14.1325 353.421 14.0793 353.395 14.0304C353.37 13.9814 353.336 13.9392 353.291 13.9038C353.246 13.8667 353.194 13.838 353.133 13.8177ZM352.977 14.2835C352.949 14.3055 352.908 14.3165 352.855 14.3165H352.642V14.0633H352.855C352.908 14.0633 352.949 14.0751 352.977 14.0987C353.008 14.1207 353.023 14.1511 353.023 14.1899C353.023 14.2287 353.008 14.2599 352.977 14.2835ZM324.917 12.5213H324.144L324.702 11.9657L324.197 11.4628H324.911V10.7533L325.42 11.2597L325.984 10.6974V11.4732H326.681L326.167 11.9859L326.731 12.5483H325.957V13.2738L325.422 12.7405L324.917 13.2435V12.5213ZM327.268 13.0833V14.4375H325.957V14.0545L325.008 15L324.081 14.0763L324.331 13.8275H323.021V12.5213H323.406L322.434 11.5535L323.361 10.6299L323.601 10.8683V9.57365H324.911V9.91885L325.833 9.00022L326.76 9.92387L326.516 10.167H327.88V11.4732H327.506L328.434 12.3981L327.507 13.3218L327.268 13.0833Z" fill="white"/>
<path fill-rule="evenodd" clip-rule="evenodd" d="M372.434 0C371.882 0 371.434 0.447716 371.434 1V23C371.434 23.5523 371.882 24 372.434 24H407.434C407.987 24 408.434 23.5523 408.434 23V1C408.434 0.447715 407.987 0 407.434 0H372.434ZM390.417 3.92905L390.417 3.92892H390.418L390.417 3.92905ZM390.417 3.92905L390.454 3.952C390.561 4.01251 390.624 4.21122 390.691 4.42422L390.691 4.42426C390.723 4.52396 390.755 4.62679 390.794 4.72004C390.923 5.03329 391.061 5.43251 391.196 5.8279L391.196 5.82793L391.197 5.82811C391.3 6.12924 391.403 6.42816 391.501 6.68518C391.512 6.71373 391.524 6.7427 391.537 6.77228L391.537 6.77232C391.583 6.87531 391.632 6.98579 391.614 7.11232C391.486 7.19412 390.994 7.1808 390.68 7.17233C390.603 7.17024 390.537 7.16844 390.489 7.16844C390.385 7.16844 390.266 7.17099 390.141 7.17366C389.842 7.18003 389.511 7.18711 389.279 7.16203C389.215 7.01108 389.312 6.76116 389.424 6.47367C389.492 6.29944 389.565 6.1114 389.611 5.92324C389.632 5.83664 389.664 5.76776 389.701 5.69055C389.724 5.64223 389.748 5.59066 389.772 5.52944C389.835 5.36873 389.888 5.20781 389.941 5.04982L389.941 5.04981C389.979 4.93449 390.017 4.82073 390.057 4.70978L390.282 4.10016C390.289 4.07889 390.295 4.06083 390.3 4.04531C390.321 3.97505 390.326 3.95683 390.417 3.92905ZM388.182 10.1665L386.675 9.57035H386.675C386.718 9.36807 386.84 9.06918 386.946 8.81127L386.946 8.8112L386.946 8.81102C386.99 8.70473 387.03 8.6054 387.061 8.52268L389.007 3.41775C389.028 3.36127 389.049 3.30337 389.07 3.24475C389.281 2.65936 389.518 2.00351 390.427 2.00001C391.329 1.99671 391.562 2.63205 391.808 3.30442L391.808 3.30498C391.824 3.34962 391.841 3.39444 391.858 3.43923L393.802 8.54224C393.831 8.6198 393.87 8.71536 393.912 8.8182L393.912 8.81825L393.912 8.81828C394.017 9.07601 394.14 9.37948 394.175 9.56009C394.09 9.62166 392.796 10.1296 392.671 10.1501L392.066 8.46753L388.787 8.4733L388.182 10.1665ZM387.584 13.9855L387.584 13.9855C387.12 13.9829 386.781 13.981 386.643 13.981C386.428 13.981 386.43 13.9374 386.437 13.7916C386.438 13.7651 386.439 13.7351 386.44 13.7014L386.434 12.7294L386.434 12.7133C386.434 12.6001 386.434 12.5471 386.46 12.5226C386.484 12.501 386.527 12.5016 386.609 12.5025H386.61C386.629 12.5027 386.65 12.503 386.674 12.503H393.812C393.85 12.5028 393.897 12.5003 393.947 12.4977C394.108 12.4893 394.304 12.479 394.389 12.5347C394.451 12.6342 394.448 13.8787 394.383 13.9525C394.299 14.0231 389.677 13.9972 387.584 13.9855ZM386.924 20.2897V18.7431C387.786 18.8423 387.804 20.1745 386.924 20.2897ZM382.986 19.5967C383.285 19.5701 383.741 19.532 383.831 19.8016C383.957 20.1808 383.664 20.293 383.342 20.293L383.125 20.2944L382.986 20.2856V19.5967H382.986ZM382.284 20.8945C382.632 20.9147 383.38 20.9264 383.707 20.8876C384.733 20.7662 384.798 19.5807 384.224 19.1649C383.969 18.9799 383.71 18.9812 383.425 18.9828C383.287 18.9835 383.143 18.9843 382.99 18.9642C382.99 18.9076 382.993 18.839 382.996 18.765C383.005 18.5461 383.015 18.2798 382.962 18.1355L382.272 18.1401L382.284 20.8943L382.284 20.8945ZM379.234 20.8833C380.309 21.0652 380.308 19.963 380.307 19.0962C380.307 18.9854 380.307 18.8784 380.309 18.7785L381 18.7773L381 20.8962L381.719 20.8984V18.1357L379.661 18.1427C379.659 18.2018 379.656 18.3065 379.653 18.4373L379.653 18.4378C379.64 18.9381 379.618 19.8195 379.578 19.992C379.527 20.2067 379.465 20.2184 379.235 20.2602L379.234 20.8833H379.234ZM403.174 19.4641L403.174 19.4641C403.247 19.5682 403.481 19.8205 403.728 20.088L403.728 20.0881L403.728 20.0881C404.035 20.4193 404.363 20.7737 404.434 20.8982C404.215 20.898 404.052 20.9023 403.928 20.9055C403.689 20.9117 403.594 20.9142 403.522 20.8742C403.473 20.8473 403.435 20.8013 403.372 20.7244C403.3 20.6359 403.194 20.5067 403 20.3187C402.956 20.276 402.892 20.201 402.822 20.1192L402.822 20.1192L402.822 20.1192C402.699 19.9738 402.557 19.8071 402.475 19.7624L402.473 20.8984H401.755L401.755 18.1362H402.473L402.474 19.2043L403.221 18.4006C403.465 18.105 403.533 18.1079 403.99 18.1273L403.99 18.1273C404.088 18.1315 404.203 18.1364 404.341 18.1393C404.292 18.2394 404.237 18.2899 404.175 18.3471C404.137 18.382 404.097 18.4194 404.053 18.472C403.982 18.5574 403.855 18.693 403.719 18.8388C403.494 19.0785 403.244 19.3459 403.174 19.4641L403.174 19.4638L403.174 19.4641ZM399.489 19.8076C399.549 19.8076 399.627 19.8053 399.714 19.8027C399.982 19.7947 400.334 19.7842 400.488 19.8329L400.49 20.8986H401.207L401.207 18.1364H400.489L400.483 19.1645L399.492 19.1667L399.489 18.1434L398.774 18.1365L398.775 20.8988L399.489 20.8898V19.8078L399.489 19.8076ZM397.46 19.6895C397.488 19.9731 397.426 20.1858 397.236 20.2971C396.646 20.6441 396.173 19.891 396.679 19.7155C396.811 19.6697 397.268 19.6836 397.45 19.6892L397.46 19.6895H397.46ZM396.543 18.9388C396.658 18.5823 397.434 18.4613 397.468 19.1167C397.34 19.1246 397.206 19.1228 397.072 19.121H397.071C396.747 19.1166 396.42 19.1122 396.164 19.2446C395.862 19.4017 395.657 19.7449 395.76 20.2268C395.843 20.6101 396.091 20.8461 396.48 20.9329C397.03 21.0557 397.302 20.8276 397.454 20.7005C397.49 20.6698 397.52 20.645 397.545 20.6324C397.785 20.8679 397.931 20.9337 398.366 20.8818V20.3167C398.335 20.2471 398.306 20.2424 398.28 20.2382C398.247 20.233 398.219 20.2284 398.194 20.1035L398.185 19.0414C398.113 17.6805 395.975 17.6688 395.81 18.9386H396.543V18.9388ZM390.269 19.6883C390.298 19.9634 390.239 20.1729 390.068 20.2848C389.491 20.664 388.963 19.8958 389.49 19.7152C389.614 19.6727 389.962 19.6811 390.174 19.6862C390.21 19.6871 390.243 19.6879 390.269 19.6883ZM389.354 18.9388C389.476 18.5775 390.237 18.4662 390.278 19.1199C390.172 19.123 390.061 19.1209 389.948 19.1188C389.601 19.1124 389.241 19.1057 388.974 19.246C388.673 19.4044 388.471 19.7466 388.568 20.2198C388.646 20.5995 388.913 20.8521 389.288 20.9332C389.765 21.0363 390.008 20.9087 390.288 20.6782L390.297 20.6717L390.309 20.6622L390.353 20.6317L390.385 20.6613C390.59 20.8517 390.673 20.9284 391.177 20.8847V20.3167C391.138 20.2376 391.107 20.2391 391.082 20.2403C391.051 20.2418 391.026 20.243 391.001 20.1043L390.993 19.0443C390.97 18.6078 390.758 18.3051 390.457 18.154C389.928 17.889 388.75 17.9292 388.617 18.939H389.354V18.9388ZM376.725 19.4417C376.764 19.2585 377.214 17.9453 377.28 17.8817L377.774 19.442L376.725 19.4417ZM376.485 20.1098L378.003 20.1088L378.247 20.8974L379.085 20.8986C378.966 20.4171 378.524 19.1676 378.211 18.2797C378.129 18.0492 378.056 17.843 378 17.681L377.992 17.6582C377.853 17.2579 377.753 16.9696 377.233 17.0025C376.793 17.0305 376.69 17.3349 376.567 17.6978L376.546 17.7578L375.793 19.8608C375.776 19.9048 375.757 19.9541 375.737 20.007C375.63 20.2857 375.484 20.6642 375.434 20.8972L376.215 20.8926L376.485 20.1098ZM393.282 20.2024L393.272 19.1995C393.355 19.1995 393.444 19.1965 393.536 19.1935C394.069 19.1757 394.673 19.1555 394.668 19.7128C394.662 20.2501 394.038 20.2273 393.531 20.2088C393.443 20.2055 393.359 20.2024 393.282 20.2024ZM392.521 20.8986H394.003C394.955 20.8986 395.619 20.401 395.405 19.4015C395.218 18.5261 394.324 18.5274 393.4 18.5288L393.289 18.5289L393.276 17.745L395.133 17.7438L395.137 17.0687C394.965 17.0151 393.681 17.0312 392.953 17.0404C392.759 17.0428 392.605 17.0447 392.521 17.0447V20.8988L392.521 20.8986ZM386.204 18.7359V20.294C385.327 20.1654 385.321 18.8779 386.204 18.7359ZM386.199 18.0165C386.19 18.0345 386.183 18.0464 386.174 18.0553C386.156 18.0731 386.126 18.0789 386.036 18.0962C386.017 18.0997 385.996 18.1037 385.973 18.1084C385.516 18.1983 385.147 18.4699 384.957 18.885C384.581 19.7051 384.953 20.8223 386.199 20.96L386.204 21.9909L386.924 21.9998L386.926 20.9639C387.733 20.8399 388.287 20.3997 388.298 19.5356C388.31 18.6493 387.744 18.1916 386.927 18.0712L386.923 17.0444L386.204 17.0463V18.0074L386.204 18.0076C386.202 18.0107 386.201 18.0137 386.199 18.0165Z" fill="#545472"/>
</svg>
