<svg width="270" height="120" viewBox="0 0 270 120" fill="none" xmlns="http://www.w3.org/2000/svg">
<rect width="270" height="120" rx="9" fill="white"/>
<path d="M120.52 51.415H122.425C122.385 51.775 122.32 52.12 122.23 52.45C122.14 52.77 121.985 53.115 121.765 53.485C121.555 53.845 121.29 54.155 120.97 54.415C120.65 54.675 120.225 54.89 119.695 55.06C119.165 55.23 118.56 55.315 117.88 55.315C117.69 55.315 117.505 55.31 117.325 55.3C117.145 55.29 116.87 55.245 116.5 55.165C116.13 55.095 115.79 55 115.48 54.88C115.18 54.75 114.845 54.55 114.475 54.28C114.115 54.01 113.81 53.695 113.56 53.335C113.31 52.965 113.1 52.49 112.93 51.91C112.76 51.32 112.675 50.66 112.675 49.93C112.675 48.89 112.815 47.99 113.095 47.23C113.375 46.46 113.76 45.86 114.25 45.43C114.75 45 115.29 44.685 115.87 44.485C116.45 44.285 117.085 44.185 117.775 44.185C118.465 44.185 119.075 44.27 119.605 44.44C120.145 44.6 120.575 44.805 120.895 45.055C121.215 45.305 121.48 45.605 121.69 45.955C121.9 46.295 122.045 46.62 122.125 46.93C122.205 47.24 122.255 47.56 122.275 47.89H120.37C120.34 47.64 120.275 47.405 120.175 47.185C120.085 46.965 119.95 46.745 119.77 46.525C119.59 46.295 119.325 46.115 118.975 45.985C118.635 45.845 118.235 45.775 117.775 45.775C117.215 45.775 116.73 45.885 116.32 46.105C115.91 46.315 115.59 46.615 115.36 47.005C115.14 47.395 114.98 47.825 114.88 48.295C114.78 48.755 114.73 49.275 114.73 49.855C114.73 51.065 115.025 52.015 115.615 52.705C116.215 53.385 117 53.725 117.97 53.725C118.78 53.725 119.395 53.5 119.815 53.05C120.245 52.59 120.48 52.045 120.52 51.415ZM125.926 47.38C126.406 47.18 126.956 47.08 127.576 47.08C128.196 47.08 128.746 47.18 129.226 47.38C129.706 47.57 130.086 47.81 130.366 48.1C130.646 48.39 130.876 48.73 131.056 49.12C131.236 49.51 131.356 49.87 131.416 50.2C131.476 50.53 131.506 50.86 131.506 51.19C131.506 51.52 131.476 51.85 131.416 52.18C131.356 52.51 131.236 52.87 131.056 53.26C130.876 53.65 130.646 53.99 130.366 54.28C130.086 54.57 129.706 54.81 129.226 55C128.746 55.2 128.196 55.3 127.576 55.3C126.956 55.3 126.406 55.2 125.926 55C125.446 54.81 125.066 54.57 124.786 54.28C124.506 53.99 124.276 53.655 124.096 53.275C123.916 52.885 123.796 52.525 123.736 52.195C123.676 51.855 123.646 51.52 123.646 51.19C123.646 50.86 123.676 50.53 123.736 50.2C123.796 49.87 123.916 49.51 124.096 49.12C124.276 48.73 124.506 48.39 124.786 48.1C125.066 47.81 125.446 47.57 125.926 47.38ZM128.176 48.4C127.986 48.34 127.786 48.31 127.576 48.31C127.366 48.31 127.166 48.34 126.976 48.4C126.786 48.46 126.571 48.58 126.331 48.76C126.101 48.94 125.916 49.24 125.776 49.66C125.636 50.07 125.566 50.58 125.566 51.19C125.566 51.8 125.636 52.315 125.776 52.735C125.916 53.145 126.101 53.44 126.331 53.62C126.571 53.8 126.786 53.92 126.976 53.98C127.166 54.04 127.366 54.07 127.576 54.07C127.786 54.07 127.986 54.04 128.176 53.98C128.366 53.92 128.576 53.8 128.806 53.62C129.046 53.44 129.236 53.145 129.376 52.735C129.516 52.315 129.586 51.8 129.586 51.19C129.586 50.58 129.516 50.07 129.376 49.66C129.236 49.24 129.046 48.94 128.806 48.76C128.576 48.58 128.366 48.46 128.176 48.4ZM132.636 52.615H134.346C134.346 52.985 134.476 53.32 134.736 53.62C135.006 53.92 135.476 54.07 136.146 54.07C136.806 54.07 137.261 53.945 137.511 53.695C137.771 53.445 137.901 53.155 137.901 52.825C137.901 52.115 137.396 51.76 136.386 51.76H135.366V50.53H136.191C136.681 50.53 137.026 50.425 137.226 50.215C137.436 50.005 137.541 49.75 137.541 49.45C137.541 49.13 137.421 48.86 137.181 48.64C136.941 48.42 136.571 48.31 136.071 48.31C135.101 48.31 134.601 48.765 134.571 49.675H132.861C132.871 49.365 132.921 49.075 133.011 48.805C133.111 48.535 133.271 48.26 133.491 47.98C133.721 47.7 134.061 47.48 134.511 47.32C134.971 47.16 135.526 47.08 136.176 47.08C137.286 47.08 138.106 47.305 138.636 47.755C139.166 48.195 139.431 48.745 139.431 49.405C139.431 49.875 139.306 50.245 139.056 50.515C138.806 50.785 138.501 50.955 138.141 51.025V51.055C139.221 51.265 139.761 51.835 139.761 52.765C139.761 53.085 139.706 53.38 139.596 53.65C139.496 53.92 139.321 54.19 139.071 54.46C138.831 54.72 138.456 54.925 137.946 55.075C137.446 55.225 136.841 55.3 136.131 55.3C135.561 55.3 135.056 55.235 134.616 55.105C134.186 54.975 133.851 54.82 133.611 54.64C133.371 54.45 133.176 54.225 133.026 53.965C132.876 53.705 132.776 53.475 132.726 53.275C132.676 53.065 132.646 52.845 132.636 52.615ZM140.403 53.77H141.453C142.263 52.53 142.668 50.845 142.668 48.715V47.38H148.623V53.77H149.943L149.793 56.98H148.293V55H142.053V56.98H140.553L140.403 53.77ZM146.823 48.61H144.348V49.54C144.348 50.4 144.273 51.125 144.123 51.715C143.983 52.295 143.728 52.98 143.358 53.77H146.823V48.61ZM152.458 49.735H150.748C150.728 48.975 151.008 48.345 151.588 47.845C152.168 47.335 153.048 47.08 154.228 47.08C154.808 47.08 155.313 47.15 155.743 47.29C156.173 47.42 156.498 47.58 156.718 47.77C156.938 47.95 157.108 48.175 157.228 48.445C157.358 48.715 157.438 48.95 157.468 49.15C157.498 49.34 157.513 49.55 157.513 49.78V52.825C157.513 53.225 157.548 53.485 157.618 53.605C157.688 53.725 157.873 53.775 158.173 53.755V55C157.863 55.03 157.598 55.045 157.378 55.045C156.508 55.045 156.013 54.715 155.893 54.055C155.303 54.805 154.458 55.18 153.358 55.18C152.858 55.18 152.423 55.12 152.053 55C151.683 54.89 151.403 54.755 151.213 54.595C151.033 54.435 150.888 54.245 150.778 54.025C150.678 53.795 150.613 53.605 150.583 53.455C150.563 53.305 150.553 53.145 150.553 52.975C150.553 52.605 150.623 52.28 150.763 52C150.913 51.71 151.093 51.49 151.303 51.34C151.523 51.19 151.713 51.08 151.873 51.01C152.033 50.93 152.178 50.875 152.308 50.845C152.478 50.795 152.658 50.755 152.848 50.725C153.038 50.695 153.253 50.665 153.493 50.635C153.733 50.605 153.928 50.58 154.078 50.56C154.158 50.54 154.278 50.525 154.438 50.515C154.608 50.495 154.733 50.475 154.813 50.455C155.023 50.425 155.163 50.405 155.233 50.395C155.303 50.385 155.388 50.355 155.488 50.305C155.588 50.245 155.648 50.165 155.668 50.065C155.698 49.955 155.713 49.81 155.713 49.63C155.713 48.75 155.218 48.31 154.228 48.31C153.608 48.31 153.153 48.45 152.863 48.73C152.573 49 152.438 49.335 152.458 49.735ZM155.713 51.61V51.34C155.533 51.47 155.103 51.575 154.423 51.655C154.103 51.695 153.868 51.73 153.718 51.76C153.578 51.78 153.403 51.82 153.193 51.88C152.993 51.94 152.848 52.01 152.758 52.09C152.668 52.17 152.588 52.28 152.518 52.42C152.448 52.56 152.413 52.725 152.413 52.915C152.413 53.225 152.508 53.475 152.698 53.665C152.898 53.855 153.198 53.95 153.598 53.95C153.858 53.95 154.098 53.92 154.318 53.86C154.538 53.8 154.758 53.69 154.978 53.53C155.208 53.37 155.388 53.13 155.518 52.81C155.648 52.48 155.713 52.08 155.713 51.61ZM161.182 48.61H158.572V47.38H165.592V48.61H162.982V55H161.182V48.61ZM166.869 47.38H168.669V50.32H170.424C170.684 50.32 170.904 50.325 171.084 50.335C171.274 50.345 171.504 50.375 171.774 50.425C172.054 50.465 172.284 50.54 172.464 50.65C172.654 50.75 172.839 50.885 173.019 51.055C173.209 51.215 173.349 51.435 173.439 51.715C173.539 51.985 173.589 52.305 173.589 52.675C173.589 54.225 172.674 55 170.844 55H166.869V47.38ZM168.669 51.55V53.77H170.409C170.799 53.77 171.114 53.68 171.354 53.5C171.604 53.31 171.729 53.02 171.729 52.63C171.729 51.91 171.289 51.55 170.409 51.55H168.669ZM118.36 74.21H120.07C120.04 74.46 119.99 74.71 119.92 74.96C119.85 75.21 119.725 75.48 119.545 75.77C119.375 76.06 119.165 76.315 118.915 76.535C118.665 76.755 118.325 76.935 117.895 77.075C117.475 77.225 117 77.3 116.47 77.3C115.21 77.3 114.255 76.93 113.605 76.19C112.965 75.45 112.645 74.455 112.645 73.205C112.645 72.465 112.745 71.825 112.945 71.285C113.155 70.745 113.395 70.34 113.665 70.07C113.945 69.79 114.28 69.57 114.67 69.41C115.06 69.25 115.38 69.155 115.63 69.125C115.88 69.095 116.14 69.08 116.41 69.08C117.51 69.08 118.365 69.355 118.975 69.905C119.595 70.445 119.95 71.115 120.04 71.915H118.33C118.29 71.475 118.115 71.1 117.805 70.79C117.495 70.47 117.065 70.31 116.515 70.31C115.215 70.31 114.565 71.275 114.565 73.205C114.565 73.765 114.63 74.245 114.76 74.645C114.89 75.045 115.06 75.345 115.27 75.545C115.49 75.735 115.71 75.87 115.93 75.95C116.15 76.03 116.38 76.07 116.62 76.07C117.21 76.07 117.64 75.88 117.91 75.5C118.18 75.11 118.33 74.68 118.36 74.21ZM123.418 70.61H120.808V69.38H127.828V70.61H125.218V77H123.418V70.61ZM129.105 69.38H130.755V70.13H130.785C131.345 69.43 132.165 69.08 133.245 69.08C133.705 69.08 134.14 69.155 134.55 69.305C134.97 69.455 135.36 69.685 135.72 69.995C136.09 70.305 136.38 70.73 136.59 71.27C136.81 71.81 136.92 72.435 136.92 73.145C136.92 73.505 136.89 73.86 136.83 74.21C136.78 74.55 136.67 74.915 136.5 75.305C136.34 75.685 136.13 76.02 135.87 76.31C135.62 76.59 135.27 76.825 134.82 77.015C134.38 77.205 133.875 77.3 133.305 77.3C133.185 77.3 133.055 77.29 132.915 77.27C132.775 77.26 132.56 77.225 132.27 77.165C131.99 77.115 131.725 77.01 131.475 76.85C131.235 76.68 131.045 76.47 130.905 76.22V79.775H129.105V69.38ZM130.77 73.205C130.77 74.085 130.945 74.785 131.295 75.305C131.645 75.815 132.145 76.07 132.795 76.07C133.035 76.07 133.265 76.035 133.485 75.965C133.705 75.895 133.935 75.77 134.175 75.59C134.425 75.41 134.625 75.12 134.775 74.72C134.925 74.31 135 73.82 135 73.25C135 72.24 134.795 71.5 134.385 71.03C133.985 70.55 133.48 70.31 132.87 70.31C132.64 70.31 132.415 70.35 132.195 70.43C131.985 70.5 131.765 70.63 131.535 70.82C131.305 71.01 131.12 71.31 130.98 71.72C130.84 72.13 130.77 72.625 130.77 73.205ZM140.022 71.735H138.312C138.292 70.975 138.572 70.345 139.152 69.845C139.732 69.335 140.612 69.08 141.792 69.08C142.372 69.08 142.877 69.15 143.307 69.29C143.737 69.42 144.062 69.58 144.282 69.77C144.502 69.95 144.672 70.175 144.792 70.445C144.922 70.715 145.002 70.95 145.032 71.15C145.062 71.34 145.077 71.55 145.077 71.78V74.825C145.077 75.225 145.112 75.485 145.182 75.605C145.252 75.725 145.437 75.775 145.737 75.755V77C145.427 77.03 145.162 77.045 144.942 77.045C144.072 77.045 143.577 76.715 143.457 76.055C142.867 76.805 142.022 77.18 140.922 77.18C140.422 77.18 139.987 77.12 139.617 77C139.247 76.89 138.967 76.755 138.777 76.595C138.597 76.435 138.452 76.245 138.342 76.025C138.242 75.795 138.177 75.605 138.147 75.455C138.127 75.305 138.117 75.145 138.117 74.975C138.117 74.605 138.187 74.28 138.327 74C138.477 73.71 138.657 73.49 138.867 73.34C139.087 73.19 139.277 73.08 139.437 73.01C139.597 72.93 139.742 72.875 139.872 72.845C140.042 72.795 140.222 72.755 140.412 72.725C140.602 72.695 140.817 72.665 141.057 72.635C141.297 72.605 141.492 72.58 141.642 72.56C141.722 72.54 141.842 72.525 142.002 72.515C142.172 72.495 142.297 72.475 142.377 72.455C142.587 72.425 142.727 72.405 142.797 72.395C142.867 72.385 142.952 72.355 143.052 72.305C143.152 72.245 143.212 72.165 143.232 72.065C143.262 71.955 143.277 71.81 143.277 71.63C143.277 70.75 142.782 70.31 141.792 70.31C141.172 70.31 140.717 70.45 140.427 70.73C140.137 71 140.002 71.335 140.022 71.735ZM143.277 73.61V73.34C143.097 73.47 142.667 73.575 141.987 73.655C141.667 73.695 141.432 73.73 141.282 73.76C141.142 73.78 140.967 73.82 140.757 73.88C140.557 73.94 140.412 74.01 140.322 74.09C140.232 74.17 140.152 74.28 140.082 74.42C140.012 74.56 139.977 74.725 139.977 74.915C139.977 75.225 140.072 75.475 140.262 75.665C140.462 75.855 140.762 75.95 141.162 75.95C141.422 75.95 141.662 75.92 141.882 75.86C142.102 75.8 142.322 75.69 142.542 75.53C142.772 75.37 142.952 75.13 143.082 74.81C143.212 74.48 143.277 74.08 143.277 73.61ZM149.099 73.61V77H147.299V69.38H149.099V72.38H152.399V69.38H154.199V77H152.399V73.61H149.099ZM158.151 74.87L161.721 69.38H163.701V77H161.901V71.51L158.331 77H156.351V69.38H158.151V74.87ZM167.658 75.77H171.078V69.38H172.878V75.77H174.198L174.048 78.98H172.548V77H165.858V69.38H167.658V75.77ZM175.336 69.38H177.136V72.32H178.891C179.151 72.32 179.371 72.325 179.551 72.335C179.741 72.345 179.971 72.375 180.241 72.425C180.521 72.465 180.751 72.54 180.931 72.65C181.121 72.75 181.306 72.885 181.486 73.055C181.676 73.215 181.816 73.435 181.906 73.715C182.006 73.985 182.056 74.305 182.056 74.675C182.056 76.225 181.141 77 179.311 77H175.336V69.38ZM177.136 73.55V75.77H178.876C179.266 75.77 179.581 75.68 179.821 75.5C180.071 75.31 180.196 75.02 180.196 74.63C180.196 73.91 179.756 73.55 178.876 73.55H177.136ZM182.956 69.38H184.756V77H182.956V69.38Z" fill="#333333"/>
<rect x="29" y="27" width="66" height="66" rx="33" fill="url(#paint0_linear_2_433)"/>
<path d="M65.8 42.9999H52C51.4477 42.9999 51 43.4477 51 43.9999V73.9999C51 74.5522 51.4477 74.9999 52 74.9999H73.2C73.7523 74.9999 74.2 74.5522 74.2 73.9999V50.9999" stroke="white" stroke-width="2"/>
<path d="M72.5079 50H66.8V44.5403L72.5079 50Z" stroke="white" stroke-width="2"/>
<line x1="55" y1="50.8" x2="62.2" y2="50.8" stroke="white" stroke-width="2"/>
<line x1="55" y1="55.5999" x2="70.2" y2="55.5999" stroke="white" stroke-width="2"/>
<line x1="55" y1="60.4" x2="70.2" y2="60.4" stroke="white" stroke-width="2"/>
<line x1="55" y1="65.1999" x2="70.2" y2="65.1999" stroke="white" stroke-width="2"/>
<line x1="55" y1="70" x2="70.2" y2="70" stroke="white" stroke-width="2"/>
<defs>
<linearGradient id="paint0_linear_2_433" x1="40.0939" y1="27" x2="96.6866" y2="43.1816" gradientUnits="userSpaceOnUse">
<stop stop-color="#3F0F72"/>
<stop offset="1" stop-color="#791281"/>
</linearGradient>
</defs>
</svg>
