<svg width="270" height="120" viewBox="0 0 270 120" fill="none" xmlns="http://www.w3.org/2000/svg">
<rect width="270" height="120" rx="9" fill="white"/>
<path d="M118.235 44.215C118.425 44.195 118.62 44.185 118.82 44.185C119.02 44.185 119.21 44.195 119.39 44.215C119.58 44.225 119.86 44.27 120.23 44.35C120.6 44.42 120.935 44.525 121.235 44.665C121.535 44.795 121.86 45 122.21 45.28C122.57 45.56 122.87 45.89 123.11 46.27C123.35 46.64 123.55 47.13 123.71 47.74C123.88 48.34 123.965 49.01 123.965 49.75C123.965 50.49 123.88 51.165 123.71 51.775C123.55 52.375 123.35 52.865 123.11 53.245C122.87 53.615 122.57 53.94 122.21 54.22C121.86 54.5 121.535 54.71 121.235 54.85C120.935 54.98 120.6 55.08 120.23 55.15C119.86 55.23 119.58 55.275 119.39 55.285C119.21 55.305 119.02 55.315 118.82 55.315C118.62 55.315 118.425 55.305 118.235 55.285C118.055 55.275 117.78 55.23 117.41 55.15C117.04 55.08 116.705 54.98 116.405 54.85C116.105 54.71 115.775 54.5 115.415 54.22C115.065 53.94 114.77 53.615 114.53 53.245C114.29 52.865 114.085 52.375 113.915 51.775C113.755 51.165 113.675 50.49 113.675 49.75C113.675 49.01 113.755 48.34 113.915 47.74C114.085 47.13 114.29 46.64 114.53 46.27C114.77 45.89 115.065 45.56 115.415 45.28C115.775 45 116.105 44.795 116.405 44.665C116.705 44.525 117.04 44.42 117.41 44.35C117.78 44.27 118.055 44.225 118.235 44.215ZM120.38 46.165C119.95 45.905 119.43 45.775 118.82 45.775C118.21 45.775 117.69 45.905 117.26 46.165C116.83 46.415 116.51 46.75 116.3 47.17C116.09 47.59 115.94 48.01 115.85 48.43C115.77 48.85 115.73 49.29 115.73 49.75C115.73 50.21 115.77 50.65 115.85 51.07C115.94 51.49 116.09 51.91 116.3 52.33C116.51 52.75 116.83 53.09 117.26 53.35C117.69 53.6 118.21 53.725 118.82 53.725C119.43 53.725 119.95 53.6 120.38 53.35C120.81 53.09 121.13 52.75 121.34 52.33C121.55 51.91 121.695 51.49 121.775 51.07C121.865 50.65 121.91 50.21 121.91 49.75C121.91 49.29 121.865 48.85 121.775 48.43C121.695 48.01 121.55 47.59 121.34 47.17C121.13 46.75 120.81 46.415 120.38 46.165ZM131.306 43.915H132.776C132.756 44.245 132.681 44.535 132.551 44.785C132.431 45.025 132.296 45.215 132.146 45.355C131.996 45.485 131.786 45.595 131.516 45.685C131.256 45.775 131.031 45.835 130.841 45.865C130.661 45.895 130.421 45.925 130.121 45.955C129.851 45.985 129.636 46.015 129.476 46.045C129.316 46.065 129.096 46.11 128.816 46.18C128.546 46.25 128.321 46.33 128.141 46.42C127.971 46.51 127.781 46.64 127.571 46.81C127.361 46.97 127.196 47.16 127.076 47.38C126.966 47.59 126.871 47.855 126.791 48.175C126.721 48.495 126.696 48.85 126.716 49.24H126.746C126.976 48.6 127.376 48.1 127.946 47.74C128.516 47.38 129.146 47.2 129.836 47.2C130.896 47.2 131.771 47.565 132.461 48.295C133.161 49.015 133.511 50 133.511 51.25C133.511 51.78 133.431 52.28 133.271 52.75C133.121 53.22 132.891 53.65 132.581 54.04C132.271 54.42 131.851 54.725 131.321 54.955C130.791 55.185 130.186 55.3 129.506 55.3C128.966 55.3 128.476 55.23 128.036 55.09C127.606 54.95 127.251 54.78 126.971 54.58C126.701 54.37 126.466 54.11 126.266 53.8C126.066 53.49 125.916 53.205 125.816 52.945C125.726 52.685 125.656 52.39 125.606 52.06C125.556 51.73 125.526 51.485 125.516 51.325C125.506 51.155 125.501 50.97 125.501 50.77C125.501 48.93 125.691 47.535 126.071 46.585C126.381 45.865 126.841 45.355 127.451 45.055C128.071 44.755 128.996 44.54 130.226 44.41C130.596 44.38 130.856 44.335 131.006 44.275C131.156 44.205 131.256 44.085 131.306 43.915ZM127.631 49.75C127.491 50.15 127.421 50.65 127.421 51.25C127.421 51.85 127.491 52.355 127.631 52.765C127.781 53.165 127.976 53.455 128.216 53.635C128.466 53.805 128.686 53.92 128.876 53.98C129.076 54.04 129.286 54.07 129.506 54.07C129.726 54.07 129.931 54.04 130.121 53.98C130.321 53.92 130.541 53.805 130.781 53.635C131.031 53.455 131.226 53.165 131.366 52.765C131.516 52.355 131.591 51.85 131.591 51.25C131.591 50.65 131.516 50.15 131.366 49.75C131.226 49.34 131.031 49.05 130.781 48.88C130.541 48.7 130.321 48.58 130.121 48.52C129.931 48.46 129.726 48.43 129.506 48.43C129.286 48.43 129.076 48.46 128.876 48.52C128.686 48.58 128.466 48.7 128.216 48.88C127.976 49.05 127.781 49.34 127.631 49.75ZM137.032 51.61V55H135.232V47.38H137.032V50.38H140.332V47.38H142.132V55H140.332V51.61H137.032ZM146.13 47.38C146.61 47.18 147.16 47.08 147.78 47.08C148.4 47.08 148.95 47.18 149.43 47.38C149.91 47.57 150.29 47.81 150.57 48.1C150.85 48.39 151.08 48.73 151.26 49.12C151.44 49.51 151.56 49.87 151.62 50.2C151.68 50.53 151.71 50.86 151.71 51.19C151.71 51.52 151.68 51.85 151.62 52.18C151.56 52.51 151.44 52.87 151.26 53.26C151.08 53.65 150.85 53.99 150.57 54.28C150.29 54.57 149.91 54.81 149.43 55C148.95 55.2 148.4 55.3 147.78 55.3C147.16 55.3 146.61 55.2 146.13 55C145.65 54.81 145.27 54.57 144.99 54.28C144.71 53.99 144.48 53.655 144.3 53.275C144.12 52.885 144 52.525 143.94 52.195C143.88 51.855 143.85 51.52 143.85 51.19C143.85 50.86 143.88 50.53 143.94 50.2C144 49.87 144.12 49.51 144.3 49.12C144.48 48.73 144.71 48.39 144.99 48.1C145.27 47.81 145.65 47.57 146.13 47.38ZM148.38 48.4C148.19 48.34 147.99 48.31 147.78 48.31C147.57 48.31 147.37 48.34 147.18 48.4C146.99 48.46 146.775 48.58 146.535 48.76C146.305 48.94 146.12 49.24 145.98 49.66C145.84 50.07 145.77 50.58 145.77 51.19C145.77 51.8 145.84 52.315 145.98 52.735C146.12 53.145 146.305 53.44 146.535 53.62C146.775 53.8 146.99 53.92 147.18 53.98C147.37 54.04 147.57 54.07 147.78 54.07C147.99 54.07 148.19 54.04 148.38 53.98C148.57 53.92 148.78 53.8 149.01 53.62C149.25 53.44 149.44 53.145 149.58 52.735C149.72 52.315 149.79 51.8 149.79 51.19C149.79 50.58 149.72 50.07 149.58 49.66C149.44 49.24 149.25 48.94 149.01 48.76C148.78 48.58 148.57 48.46 148.38 48.4ZM153.44 47.38H157.55C159.2 47.38 160.025 47.995 160.025 49.225C160.025 49.745 159.875 50.155 159.575 50.455C159.275 50.745 158.935 50.925 158.555 50.995V51.025C159.715 51.275 160.295 51.93 160.295 52.99C160.295 53.71 160.035 54.225 159.515 54.535C158.995 54.845 158.33 55 157.52 55H153.44V47.38ZM155.24 48.61V50.44H156.785C157.295 50.44 157.655 50.345 157.865 50.155C158.075 49.965 158.18 49.74 158.18 49.48C158.18 48.9 157.78 48.61 156.98 48.61H155.24ZM155.24 51.67V53.77H156.95C157.94 53.77 158.435 53.435 158.435 52.765C158.435 52.035 157.92 51.67 156.89 51.67H155.24ZM163.854 52.87L167.424 47.38H169.404V55H167.604V49.51L164.034 55H162.054V47.38H163.854V52.87ZM173.285 48.61H170.675V47.38H177.695V48.61H175.085V55H173.285V48.61ZM178.973 47.38H180.773V50.32H182.528C182.788 50.32 183.008 50.325 183.188 50.335C183.378 50.345 183.608 50.375 183.878 50.425C184.158 50.465 184.388 50.54 184.568 50.65C184.758 50.75 184.943 50.885 185.123 51.055C185.313 51.215 185.453 51.435 185.543 51.715C185.643 51.985 185.693 52.305 185.693 52.675C185.693 54.225 184.778 55 182.948 55H178.973V47.38ZM180.773 51.55V53.77H182.513C182.903 53.77 183.218 53.68 183.458 53.5C183.708 53.31 183.833 53.02 183.833 52.63C183.833 51.91 183.393 51.55 182.513 51.55H180.773ZM119.36 74.21H121.07C121.04 74.46 120.99 74.71 120.92 74.96C120.85 75.21 120.725 75.48 120.545 75.77C120.375 76.06 120.165 76.315 119.915 76.535C119.665 76.755 119.325 76.935 118.895 77.075C118.475 77.225 118 77.3 117.47 77.3C116.21 77.3 115.255 76.93 114.605 76.19C113.965 75.45 113.645 74.455 113.645 73.205C113.645 72.465 113.745 71.825 113.945 71.285C114.155 70.745 114.395 70.34 114.665 70.07C114.945 69.79 115.28 69.57 115.67 69.41C116.06 69.25 116.38 69.155 116.63 69.125C116.88 69.095 117.14 69.08 117.41 69.08C118.51 69.08 119.365 69.355 119.975 69.905C120.595 70.445 120.95 71.115 121.04 71.915H119.33C119.29 71.475 119.115 71.1 118.805 70.79C118.495 70.47 118.065 70.31 117.515 70.31C116.215 70.31 115.565 71.275 115.565 73.205C115.565 73.765 115.63 74.245 115.76 74.645C115.89 75.045 116.06 75.345 116.27 75.545C116.49 75.735 116.71 75.87 116.93 75.95C117.15 76.03 117.38 76.07 117.62 76.07C118.21 76.07 118.64 75.88 118.91 75.5C119.18 75.11 119.33 74.68 119.36 74.21ZM124.493 74.87L128.063 69.38H130.043V77H128.243V71.51L124.673 77H122.693V69.38H124.493V74.87ZM137.48 74.21H139.19C139.16 74.46 139.11 74.71 139.04 74.96C138.97 75.21 138.845 75.48 138.665 75.77C138.495 76.06 138.285 76.315 138.035 76.535C137.785 76.755 137.445 76.935 137.015 77.075C136.595 77.225 136.12 77.3 135.59 77.3C134.33 77.3 133.375 76.93 132.725 76.19C132.085 75.45 131.765 74.455 131.765 73.205C131.765 72.465 131.865 71.825 132.065 71.285C132.275 70.745 132.515 70.34 132.785 70.07C133.065 69.79 133.4 69.57 133.79 69.41C134.18 69.25 134.5 69.155 134.75 69.125C135 69.095 135.26 69.08 135.53 69.08C136.63 69.08 137.485 69.355 138.095 69.905C138.715 70.445 139.07 71.115 139.16 71.915H137.45C137.41 71.475 137.235 71.1 136.925 70.79C136.615 70.47 136.185 70.31 135.635 70.31C134.335 70.31 133.685 71.275 133.685 73.205C133.685 73.765 133.75 74.245 133.88 74.645C134.01 75.045 134.18 75.345 134.39 75.545C134.61 75.735 134.83 75.87 135.05 75.95C135.27 76.03 135.5 76.07 135.74 76.07C136.33 76.07 136.76 75.88 137.03 75.5C137.3 75.11 137.45 74.68 137.48 74.21ZM142.538 70.61H139.928V69.38H146.948V70.61H144.338V77H142.538V70.61ZM153.288 74.795H154.998C154.938 75.085 154.843 75.36 154.713 75.62C154.593 75.87 154.403 76.135 154.143 76.415C153.893 76.685 153.528 76.9 153.048 77.06C152.568 77.22 152.008 77.3 151.368 77.3C151.128 77.3 150.888 77.285 150.648 77.255C150.418 77.235 150.098 77.15 149.688 77C149.278 76.85 148.923 76.65 148.623 76.4C148.333 76.14 148.073 75.745 147.843 75.215C147.613 74.675 147.498 74.045 147.498 73.325C147.498 71.995 147.823 70.955 148.473 70.205C149.133 69.455 150.103 69.08 151.383 69.08C153.753 69.08 154.993 70.46 155.103 73.22C155.103 73.28 155.103 73.355 155.103 73.445C155.113 73.535 155.118 73.605 155.118 73.655H149.418C149.418 73.925 149.453 74.19 149.523 74.45C149.593 74.71 149.703 74.97 149.853 75.23C150.003 75.48 150.223 75.685 150.513 75.845C150.803 75.995 151.138 76.07 151.518 76.07C151.948 76.07 152.333 75.96 152.673 75.74C153.023 75.51 153.228 75.195 153.288 74.795ZM149.418 72.425H153.213C153.213 72.215 153.188 72.005 153.138 71.795C153.098 71.585 153.018 71.36 152.898 71.12C152.778 70.88 152.588 70.685 152.328 70.535C152.078 70.385 151.768 70.31 151.398 70.31C150.748 70.31 150.248 70.525 149.898 70.955C149.558 71.385 149.398 71.875 149.418 72.425ZM160.949 77L158.639 71.375H158.609L158.639 71.78V77H156.839V69.38H159.299L161.594 75.08L163.889 69.38H166.349V77H164.549V71.78L164.579 71.375H164.549L162.239 77H160.949ZM169.009 79.745V78.515C169.249 78.575 169.479 78.605 169.699 78.605C170.039 78.605 170.289 78.51 170.449 78.32C170.619 78.14 170.769 77.815 170.899 77.345L171.004 76.985L167.539 69.38H169.699L171.994 75.05L173.749 69.38H175.549L172.639 77.66C172.419 78.3 172.204 78.75 171.994 79.01C171.554 79.56 170.934 79.835 170.134 79.835C169.744 79.835 169.369 79.805 169.009 79.745Z" fill="#333333"/>
<rect x="30" y="27" width="66" height="66" rx="33" fill="url(#paint0_linear_2_406)"/>
<path d="M68.2174 45.9323C66.5925 45.3294 64.8347 45 63 45C54.7157 45 48 51.7157 48 60C48 64.946 50.3938 69.3328 54.086 72.0652M56.8729 73.6957C58.7437 74.5338 60.8174 75 63 75C71.2843 75 78 68.2843 78 60C78 54.8523 75.4069 50.3102 71.4557 47.6087" stroke="white" stroke-width="2"/>
<path d="M48.9092 72.1341H55.1365" stroke="white" stroke-width="2"/>
<path d="M54.2648 73.0433V66.8181" stroke="white" stroke-width="2"/>
<path d="M76.0454 46.8183H69.8181" stroke="white" stroke-width="2"/>
<path d="M70.6898 45.9091V52.1343" stroke="white" stroke-width="2"/>
<defs>
<linearGradient id="paint0_linear_2_406" x1="41.0939" y1="27" x2="97.6866" y2="43.1816" gradientUnits="userSpaceOnUse">
<stop stop-color="#3F0F72"/>
<stop offset="1" stop-color="#791281"/>
</linearGradient>
</defs>
</svg>
