<svg width="270" height="120" viewBox="0 0 270 120" fill="none" xmlns="http://www.w3.org/2000/svg">
<rect width="270" height="120" rx="9" fill="white"/>
<path d="M118.285 55L115.195 46.69H115.165L115.195 47.095V55H113.275V44.5H116.14L119.005 52.465L121.87 44.5H124.735V55H122.815V47.095L122.845 46.69H122.815L119.725 55H118.285ZM128.929 47.38C129.409 47.18 129.959 47.08 130.579 47.08C131.199 47.08 131.749 47.18 132.229 47.38C132.709 47.57 133.089 47.81 133.369 48.1C133.649 48.39 133.879 48.73 134.059 49.12C134.239 49.51 134.359 49.87 134.419 50.2C134.479 50.53 134.509 50.86 134.509 51.19C134.509 51.52 134.479 51.85 134.419 52.18C134.359 52.51 134.239 52.87 134.059 53.26C133.879 53.65 133.649 53.99 133.369 54.28C133.089 54.57 132.709 54.81 132.229 55C131.749 55.2 131.199 55.3 130.579 55.3C129.959 55.3 129.409 55.2 128.929 55C128.449 54.81 128.069 54.57 127.789 54.28C127.509 53.99 127.279 53.655 127.099 53.275C126.919 52.885 126.799 52.525 126.739 52.195C126.679 51.855 126.649 51.52 126.649 51.19C126.649 50.86 126.679 50.53 126.739 50.2C126.799 49.87 126.919 49.51 127.099 49.12C127.279 48.73 127.509 48.39 127.789 48.1C128.069 47.81 128.449 47.57 128.929 47.38ZM131.179 48.4C130.989 48.34 130.789 48.31 130.579 48.31C130.369 48.31 130.169 48.34 129.979 48.4C129.789 48.46 129.574 48.58 129.334 48.76C129.104 48.94 128.919 49.24 128.779 49.66C128.639 50.07 128.569 50.58 128.569 51.19C128.569 51.8 128.639 52.315 128.779 52.735C128.919 53.145 129.104 53.44 129.334 53.62C129.574 53.8 129.789 53.92 129.979 53.98C130.169 54.04 130.369 54.07 130.579 54.07C130.789 54.07 130.989 54.04 131.179 53.98C131.369 53.92 131.579 53.8 131.809 53.62C132.049 53.44 132.239 53.145 132.379 52.735C132.519 52.315 132.589 51.8 132.589 51.19C132.589 50.58 132.519 50.07 132.379 49.66C132.239 49.24 132.049 48.94 131.809 48.76C131.579 48.58 131.369 48.46 131.179 48.4ZM135.159 53.77H136.209C137.019 52.53 137.424 50.845 137.424 48.715V47.38H143.379V53.77H144.699L144.549 56.98H143.049V55H136.809V56.98H135.309L135.159 53.77ZM141.579 48.61H139.104V49.54C139.104 50.4 139.029 51.125 138.879 51.715C138.739 52.295 138.484 52.98 138.114 53.77H141.579V48.61ZM151.189 52.795H152.899C152.839 53.085 152.744 53.36 152.614 53.62C152.494 53.87 152.304 54.135 152.044 54.415C151.794 54.685 151.429 54.9 150.949 55.06C150.469 55.22 149.909 55.3 149.269 55.3C149.029 55.3 148.789 55.285 148.549 55.255C148.319 55.235 147.999 55.15 147.589 55C147.179 54.85 146.824 54.65 146.524 54.4C146.234 54.14 145.974 53.745 145.744 53.215C145.514 52.675 145.399 52.045 145.399 51.325C145.399 49.995 145.724 48.955 146.374 48.205C147.034 47.455 148.004 47.08 149.284 47.08C151.654 47.08 152.894 48.46 153.004 51.22C153.004 51.28 153.004 51.355 153.004 51.445C153.014 51.535 153.019 51.605 153.019 51.655H147.319C147.319 51.925 147.354 52.19 147.424 52.45C147.494 52.71 147.604 52.97 147.754 53.23C147.904 53.48 148.124 53.685 148.414 53.845C148.704 53.995 149.039 54.07 149.419 54.07C149.849 54.07 150.234 53.96 150.574 53.74C150.924 53.51 151.129 53.195 151.189 52.795ZM147.319 50.425H151.114C151.114 50.215 151.089 50.005 151.039 49.795C150.999 49.585 150.919 49.36 150.799 49.12C150.679 48.88 150.489 48.685 150.229 48.535C149.979 48.385 149.669 48.31 149.299 48.31C148.649 48.31 148.149 48.525 147.799 48.955C147.459 49.385 147.299 49.875 147.319 50.425ZM154.74 47.38H156.39V48.13H156.42C156.98 47.43 157.8 47.08 158.88 47.08C159.34 47.08 159.775 47.155 160.185 47.305C160.605 47.455 160.995 47.685 161.355 47.995C161.725 48.305 162.015 48.73 162.225 49.27C162.445 49.81 162.555 50.435 162.555 51.145C162.555 51.505 162.525 51.86 162.465 52.21C162.415 52.55 162.305 52.915 162.135 53.305C161.975 53.685 161.765 54.02 161.505 54.31C161.255 54.59 160.905 54.825 160.455 55.015C160.015 55.205 159.51 55.3 158.94 55.3C158.82 55.3 158.69 55.29 158.55 55.27C158.41 55.26 158.195 55.225 157.905 55.165C157.625 55.115 157.36 55.01 157.11 54.85C156.87 54.68 156.68 54.47 156.54 54.22V57.775H154.74V47.38ZM156.405 51.205C156.405 52.085 156.58 52.785 156.93 53.305C157.28 53.815 157.78 54.07 158.43 54.07C158.67 54.07 158.9 54.035 159.12 53.965C159.34 53.895 159.57 53.77 159.81 53.59C160.06 53.41 160.26 53.12 160.41 52.72C160.56 52.31 160.635 51.82 160.635 51.25C160.635 50.24 160.43 49.5 160.02 49.03C159.62 48.55 159.115 48.31 158.505 48.31C158.275 48.31 158.05 48.35 157.83 48.43C157.62 48.5 157.4 48.63 157.17 48.82C156.94 49.01 156.755 49.31 156.615 49.72C156.475 50.13 156.405 50.625 156.405 51.205ZM166.076 51.61V55H164.276V47.38H166.076V50.38H169.376V47.38H171.176V55H169.376V51.61H166.076ZM175.129 52.87L178.699 47.38H180.679V55H178.879V49.51L175.309 55H173.329V47.38H175.129V52.87ZM182.236 52.615H183.946C183.946 52.985 184.076 53.32 184.336 53.62C184.606 53.92 185.076 54.07 185.746 54.07C186.406 54.07 186.861 53.945 187.111 53.695C187.371 53.445 187.501 53.155 187.501 52.825C187.501 52.115 186.996 51.76 185.986 51.76H184.966V50.53H185.791C186.281 50.53 186.626 50.425 186.826 50.215C187.036 50.005 187.141 49.75 187.141 49.45C187.141 49.13 187.021 48.86 186.781 48.64C186.541 48.42 186.171 48.31 185.671 48.31C184.701 48.31 184.201 48.765 184.171 49.675H182.461C182.471 49.365 182.521 49.075 182.611 48.805C182.711 48.535 182.871 48.26 183.091 47.98C183.321 47.7 183.661 47.48 184.111 47.32C184.571 47.16 185.126 47.08 185.776 47.08C186.886 47.08 187.706 47.305 188.236 47.755C188.766 48.195 189.031 48.745 189.031 49.405C189.031 49.875 188.906 50.245 188.656 50.515C188.406 50.785 188.101 50.955 187.741 51.025V51.055C188.821 51.265 189.361 51.835 189.361 52.765C189.361 53.085 189.306 53.38 189.196 53.65C189.096 53.92 188.921 54.19 188.671 54.46C188.431 54.72 188.056 54.925 187.546 55.075C187.046 55.225 186.441 55.3 185.731 55.3C185.161 55.3 184.656 55.235 184.216 55.105C183.786 54.975 183.451 54.82 183.211 54.64C182.971 54.45 182.776 54.225 182.626 53.965C182.476 53.705 182.376 53.475 182.326 53.275C182.276 53.065 182.246 52.845 182.236 52.615ZM192.883 52.87L196.453 47.38H198.433V55H196.633V49.51L193.063 55H191.083V47.38H192.883V52.87ZM200.59 47.38H202.24V48.13H202.27C202.83 47.43 203.65 47.08 204.73 47.08C205.19 47.08 205.625 47.155 206.035 47.305C206.455 47.455 206.845 47.685 207.205 47.995C207.575 48.305 207.865 48.73 208.075 49.27C208.295 49.81 208.405 50.435 208.405 51.145C208.405 51.505 208.375 51.86 208.315 52.21C208.265 52.55 208.155 52.915 207.985 53.305C207.825 53.685 207.615 54.02 207.355 54.31C207.105 54.59 206.755 54.825 206.305 55.015C205.865 55.205 205.36 55.3 204.79 55.3C204.67 55.3 204.54 55.29 204.4 55.27C204.26 55.26 204.045 55.225 203.755 55.165C203.475 55.115 203.21 55.01 202.96 54.85C202.72 54.68 202.53 54.47 202.39 54.22V57.775H200.59V47.38ZM202.255 51.205C202.255 52.085 202.43 52.785 202.78 53.305C203.13 53.815 203.63 54.07 204.28 54.07C204.52 54.07 204.75 54.035 204.97 53.965C205.19 53.895 205.42 53.77 205.66 53.59C205.91 53.41 206.11 53.12 206.26 52.72C206.41 52.31 206.485 51.82 206.485 51.25C206.485 50.24 206.28 49.5 205.87 49.03C205.47 48.55 204.965 48.31 204.355 48.31C204.125 48.31 203.9 48.35 203.68 48.43C203.47 48.5 203.25 48.63 203.02 48.82C202.79 49.01 202.605 49.31 202.465 49.72C202.325 50.13 202.255 50.625 202.255 51.205ZM211.971 47.38C212.451 47.18 213.001 47.08 213.621 47.08C214.241 47.08 214.791 47.18 215.271 47.38C215.751 47.57 216.131 47.81 216.411 48.1C216.691 48.39 216.921 48.73 217.101 49.12C217.281 49.51 217.401 49.87 217.461 50.2C217.521 50.53 217.551 50.86 217.551 51.19C217.551 51.52 217.521 51.85 217.461 52.18C217.401 52.51 217.281 52.87 217.101 53.26C216.921 53.65 216.691 53.99 216.411 54.28C216.131 54.57 215.751 54.81 215.271 55C214.791 55.2 214.241 55.3 213.621 55.3C213.001 55.3 212.451 55.2 211.971 55C211.491 54.81 211.111 54.57 210.831 54.28C210.551 53.99 210.321 53.655 210.141 53.275C209.961 52.885 209.841 52.525 209.781 52.195C209.721 51.855 209.691 51.52 209.691 51.19C209.691 50.86 209.721 50.53 209.781 50.2C209.841 49.87 209.961 49.51 210.141 49.12C210.321 48.73 210.551 48.39 210.831 48.1C211.111 47.81 211.491 47.57 211.971 47.38ZM214.221 48.4C214.031 48.34 213.831 48.31 213.621 48.31C213.411 48.31 213.211 48.34 213.021 48.4C212.831 48.46 212.616 48.58 212.376 48.76C212.146 48.94 211.961 49.24 211.821 49.66C211.681 50.07 211.611 50.58 211.611 51.19C211.611 51.8 211.681 52.315 211.821 52.735C211.961 53.145 212.146 53.44 212.376 53.62C212.616 53.8 212.831 53.92 213.021 53.98C213.211 54.04 213.411 54.07 213.621 54.07C213.831 54.07 214.031 54.04 214.221 53.98C214.411 53.92 214.621 53.8 214.851 53.62C215.091 53.44 215.281 53.145 215.421 52.735C215.561 52.315 215.631 51.8 215.631 51.19C215.631 50.58 215.561 50.07 215.421 49.66C215.281 49.24 215.091 48.94 214.851 48.76C214.621 48.58 214.411 48.46 214.221 48.4ZM219.281 47.38H223.391C225.041 47.38 225.866 47.995 225.866 49.225C225.866 49.745 225.716 50.155 225.416 50.455C225.116 50.745 224.776 50.925 224.396 50.995V51.025C225.556 51.275 226.136 51.93 226.136 52.99C226.136 53.71 225.876 54.225 225.356 54.535C224.836 54.845 224.171 55 223.361 55H219.281V47.38ZM221.081 48.61V50.44H222.626C223.136 50.44 223.496 50.345 223.706 50.155C223.916 49.965 224.021 49.74 224.021 49.48C224.021 48.9 223.621 48.61 222.821 48.61H221.081ZM221.081 51.67V53.77H222.791C223.781 53.77 224.276 53.435 224.276 52.765C224.276 52.035 223.761 51.67 222.731 51.67H221.081ZM229.274 49.735H227.564C227.544 48.975 227.824 48.345 228.404 47.845C228.984 47.335 229.864 47.08 231.044 47.08C231.624 47.08 232.129 47.15 232.559 47.29C232.989 47.42 233.314 47.58 233.534 47.77C233.754 47.95 233.924 48.175 234.044 48.445C234.174 48.715 234.254 48.95 234.284 49.15C234.314 49.34 234.329 49.55 234.329 49.78V52.825C234.329 53.225 234.364 53.485 234.434 53.605C234.504 53.725 234.689 53.775 234.989 53.755V55C234.679 55.03 234.414 55.045 234.194 55.045C233.324 55.045 232.829 54.715 232.709 54.055C232.119 54.805 231.274 55.18 230.174 55.18C229.674 55.18 229.239 55.12 228.869 55C228.499 54.89 228.219 54.755 228.029 54.595C227.849 54.435 227.704 54.245 227.594 54.025C227.494 53.795 227.429 53.605 227.399 53.455C227.379 53.305 227.369 53.145 227.369 52.975C227.369 52.605 227.439 52.28 227.579 52C227.729 51.71 227.909 51.49 228.119 51.34C228.339 51.19 228.529 51.08 228.689 51.01C228.849 50.93 228.994 50.875 229.124 50.845C229.294 50.795 229.474 50.755 229.664 50.725C229.854 50.695 230.069 50.665 230.309 50.635C230.549 50.605 230.744 50.58 230.894 50.56C230.974 50.54 231.094 50.525 231.254 50.515C231.424 50.495 231.549 50.475 231.629 50.455C231.839 50.425 231.979 50.405 232.049 50.395C232.119 50.385 232.204 50.355 232.304 50.305C232.404 50.245 232.464 50.165 232.484 50.065C232.514 49.955 232.529 49.81 232.529 49.63C232.529 48.75 232.034 48.31 231.044 48.31C230.424 48.31 229.969 48.45 229.679 48.73C229.389 49 229.254 49.335 229.274 49.735ZM232.529 51.61V51.34C232.349 51.47 231.919 51.575 231.239 51.655C230.919 51.695 230.684 51.73 230.534 51.76C230.394 51.78 230.219 51.82 230.009 51.88C229.809 51.94 229.664 52.01 229.574 52.09C229.484 52.17 229.404 52.28 229.334 52.42C229.264 52.56 229.229 52.725 229.229 52.915C229.229 53.225 229.324 53.475 229.514 53.665C229.714 53.855 230.014 53.95 230.414 53.95C230.674 53.95 230.914 53.92 231.134 53.86C231.354 53.8 231.574 53.69 231.794 53.53C232.024 53.37 232.204 53.13 232.334 52.81C232.464 52.48 232.529 52.08 232.529 51.61ZM237.998 48.61H235.388V47.38H242.408V48.61H239.798V55H237.998V48.61ZM243.685 47.38H245.485V50.32H247.24C247.5 50.32 247.72 50.325 247.9 50.335C248.09 50.345 248.32 50.375 248.59 50.425C248.87 50.465 249.1 50.54 249.28 50.65C249.47 50.75 249.655 50.885 249.835 51.055C250.025 51.215 250.165 51.435 250.255 51.715C250.355 51.985 250.405 52.305 250.405 52.675C250.405 54.225 249.49 55 247.66 55H243.685V47.38ZM245.485 51.55V53.77H247.225C247.615 53.77 247.93 53.68 248.17 53.5C248.42 53.31 248.545 53.02 248.545 52.63C248.545 51.91 248.105 51.55 247.225 51.55H245.485ZM118.36 74.21H120.07C120.04 74.46 119.99 74.71 119.92 74.96C119.85 75.21 119.725 75.48 119.545 75.77C119.375 76.06 119.165 76.315 118.915 76.535C118.665 76.755 118.325 76.935 117.895 77.075C117.475 77.225 117 77.3 116.47 77.3C115.21 77.3 114.255 76.93 113.605 76.19C112.965 75.45 112.645 74.455 112.645 73.205C112.645 72.465 112.745 71.825 112.945 71.285C113.155 70.745 113.395 70.34 113.665 70.07C113.945 69.79 114.28 69.57 114.67 69.41C115.06 69.25 115.38 69.155 115.63 69.125C115.88 69.095 116.14 69.08 116.41 69.08C117.51 69.08 118.365 69.355 118.975 69.905C119.595 70.445 119.95 71.115 120.04 71.915H118.33C118.29 71.475 118.115 71.1 117.805 70.79C117.495 70.47 117.065 70.31 116.515 70.31C115.215 70.31 114.565 71.275 114.565 73.205C114.565 73.765 114.63 74.245 114.76 74.645C114.89 75.045 115.06 75.345 115.27 75.545C115.49 75.735 115.71 75.87 115.93 75.95C116.15 76.03 116.38 76.07 116.62 76.07C117.21 76.07 117.64 75.88 117.91 75.5C118.18 75.11 118.33 74.68 118.36 74.21ZM123.073 71.735H121.363C121.343 70.975 121.623 70.345 122.203 69.845C122.783 69.335 123.663 69.08 124.843 69.08C125.423 69.08 125.928 69.15 126.358 69.29C126.788 69.42 127.113 69.58 127.333 69.77C127.553 69.95 127.723 70.175 127.843 70.445C127.973 70.715 128.053 70.95 128.083 71.15C128.113 71.34 128.128 71.55 128.128 71.78V74.825C128.128 75.225 128.163 75.485 128.233 75.605C128.303 75.725 128.488 75.775 128.788 75.755V77C128.478 77.03 128.213 77.045 127.993 77.045C127.123 77.045 126.628 76.715 126.508 76.055C125.918 76.805 125.073 77.18 123.973 77.18C123.473 77.18 123.038 77.12 122.668 77C122.298 76.89 122.018 76.755 121.828 76.595C121.648 76.435 121.503 76.245 121.393 76.025C121.293 75.795 121.228 75.605 121.198 75.455C121.178 75.305 121.168 75.145 121.168 74.975C121.168 74.605 121.238 74.28 121.378 74C121.528 73.71 121.708 73.49 121.918 73.34C122.138 73.19 122.328 73.08 122.488 73.01C122.648 72.93 122.793 72.875 122.923 72.845C123.093 72.795 123.273 72.755 123.463 72.725C123.653 72.695 123.868 72.665 124.108 72.635C124.348 72.605 124.543 72.58 124.693 72.56C124.773 72.54 124.893 72.525 125.053 72.515C125.223 72.495 125.348 72.475 125.428 72.455C125.638 72.425 125.778 72.405 125.848 72.395C125.918 72.385 126.003 72.355 126.103 72.305C126.203 72.245 126.263 72.165 126.283 72.065C126.313 71.955 126.328 71.81 126.328 71.63C126.328 70.75 125.833 70.31 124.843 70.31C124.223 70.31 123.768 70.45 123.478 70.73C123.188 71 123.053 71.335 123.073 71.735ZM126.328 73.61V73.34C126.148 73.47 125.718 73.575 125.038 73.655C124.718 73.695 124.483 73.73 124.333 73.76C124.193 73.78 124.018 73.82 123.808 73.88C123.608 73.94 123.463 74.01 123.373 74.09C123.283 74.17 123.203 74.28 123.133 74.42C123.063 74.56 123.028 74.725 123.028 74.915C123.028 75.225 123.123 75.475 123.313 75.665C123.513 75.855 123.813 75.95 124.213 75.95C124.473 75.95 124.713 75.92 124.933 75.86C125.153 75.8 125.373 75.69 125.593 75.53C125.823 75.37 126.003 75.13 126.133 74.81C126.263 74.48 126.328 74.08 126.328 73.61ZM132.151 74.87L135.721 69.38H137.701V77H135.901V71.51L132.331 77H130.351V69.38H132.151V74.87ZM131.071 66.5H132.601C132.621 66.84 132.761 67.11 133.021 67.31C133.291 67.5 133.626 67.595 134.026 67.595C134.426 67.595 134.756 67.5 135.016 67.31C135.286 67.11 135.431 66.84 135.451 66.5H136.981C136.651 67.93 135.666 68.645 134.026 68.645C133.516 68.645 133.066 68.575 132.676 68.435C132.296 68.295 132.001 68.11 131.791 67.88C131.581 67.65 131.421 67.425 131.311 67.205C131.201 66.975 131.121 66.74 131.071 66.5ZM141.582 70.61H138.972V69.38H145.992V70.61H143.382V77H141.582V70.61Z" fill="#333333"/>
<rect x="29" y="27" width="66" height="66" rx="33" fill="url(#paint0_linear_2_368)"/>
<path d="M58.9667 50.1139H61.9149V54.0448H64.2176C67.9328 54.0448 71.6253 52.6033 74.4025 49.826L75.0974 49.1312L74.4026 48.4363C71.7756 45.8092 68.1452 44.2175 64.2176 44.2175H61.9149V48.1484H58.9667V46.183H47.174V52.0794H58.9667V50.1139ZM63.8804 46.183C64.0796 46.2168 68.3553 45.8117 72.2596 49.1312C70.0152 51.0394 67.1964 52.0794 64.2177 52.0794H63.8804V46.183ZM53.0704 50.1139H49.1395V48.1484H53.0704V50.1139ZM57.0013 50.1139H55.0358V48.1484H57.0013V50.1139Z" fill="white"/>
<rect x="60" y="60" width="10" height="6" stroke="white" stroke-width="2"/>
<rect x="47" y="72" width="12" height="5" stroke="white" stroke-width="2"/>
<rect x="59" y="72" width="11" height="5" stroke="white" stroke-width="2"/>
<rect x="55" y="67" width="11" height="5" stroke="white" stroke-width="2"/>
<rect x="66" y="67" width="10" height="5" stroke="white" stroke-width="2"/>
<defs>
<linearGradient id="paint0_linear_2_368" x1="40.0939" y1="27" x2="96.6866" y2="43.1816" gradientUnits="userSpaceOnUse">
<stop stop-color="#3F0F72"/>
<stop offset="1" stop-color="#791281"/>
</linearGradient>
</defs>
</svg>
