<svg width="270" height="120" viewBox="0 0 270 120" fill="none" xmlns="http://www.w3.org/2000/svg">
<rect width="270" height="120" rx="9" fill="white"/>
<path d="M113.275 44.5H117.46C117.86 44.5 118.215 44.515 118.525 44.545C118.845 44.575 119.2 44.655 119.59 44.785C119.99 44.915 120.32 45.095 120.58 45.325C120.85 45.545 121.075 45.865 121.255 46.285C121.445 46.695 121.54 47.185 121.54 47.755C121.54 48.785 121.215 49.605 120.565 50.215C119.915 50.825 118.875 51.13 117.445 51.13H115.195V55H113.275V44.5ZM115.195 46.09V49.54H117.43C117.71 49.54 117.95 49.525 118.15 49.495C118.35 49.455 118.57 49.385 118.81 49.285C119.05 49.185 119.235 49.015 119.365 48.775C119.495 48.525 119.56 48.215 119.56 47.845C119.56 47.525 119.505 47.25 119.395 47.02C119.295 46.79 119.175 46.62 119.035 46.51C118.895 46.39 118.715 46.3 118.495 46.24C118.285 46.17 118.105 46.13 117.955 46.12C117.805 46.1 117.635 46.09 117.445 46.09H115.195ZM124.48 49.735H122.77C122.75 48.975 123.03 48.345 123.61 47.845C124.19 47.335 125.07 47.08 126.25 47.08C126.83 47.08 127.335 47.15 127.765 47.29C128.195 47.42 128.52 47.58 128.74 47.77C128.96 47.95 129.13 48.175 129.25 48.445C129.38 48.715 129.46 48.95 129.49 49.15C129.52 49.34 129.535 49.55 129.535 49.78V52.825C129.535 53.225 129.57 53.485 129.64 53.605C129.71 53.725 129.895 53.775 130.195 53.755V55C129.885 55.03 129.62 55.045 129.4 55.045C128.53 55.045 128.035 54.715 127.915 54.055C127.325 54.805 126.48 55.18 125.38 55.18C124.88 55.18 124.445 55.12 124.075 55C123.705 54.89 123.425 54.755 123.235 54.595C123.055 54.435 122.91 54.245 122.8 54.025C122.7 53.795 122.635 53.605 122.605 53.455C122.585 53.305 122.575 53.145 122.575 52.975C122.575 52.605 122.645 52.28 122.785 52C122.935 51.71 123.115 51.49 123.325 51.34C123.545 51.19 123.735 51.08 123.895 51.01C124.055 50.93 124.2 50.875 124.33 50.845C124.5 50.795 124.68 50.755 124.87 50.725C125.06 50.695 125.275 50.665 125.515 50.635C125.755 50.605 125.95 50.58 126.1 50.56C126.18 50.54 126.3 50.525 126.46 50.515C126.63 50.495 126.755 50.475 126.835 50.455C127.045 50.425 127.185 50.405 127.255 50.395C127.325 50.385 127.41 50.355 127.51 50.305C127.61 50.245 127.67 50.165 127.69 50.065C127.72 49.955 127.735 49.81 127.735 49.63C127.735 48.75 127.24 48.31 126.25 48.31C125.63 48.31 125.175 48.45 124.885 48.73C124.595 49 124.46 49.335 124.48 49.735ZM127.735 51.61V51.34C127.555 51.47 127.125 51.575 126.445 51.655C126.125 51.695 125.89 51.73 125.74 51.76C125.6 51.78 125.425 51.82 125.215 51.88C125.015 51.94 124.87 52.01 124.78 52.09C124.69 52.17 124.61 52.28 124.54 52.42C124.47 52.56 124.435 52.725 124.435 52.915C124.435 53.225 124.53 53.475 124.72 53.665C124.92 53.855 125.22 53.95 125.62 53.95C125.88 53.95 126.12 53.92 126.34 53.86C126.56 53.8 126.78 53.69 127 53.53C127.23 53.37 127.41 53.13 127.54 52.81C127.67 52.48 127.735 52.08 127.735 51.61ZM131.157 52.615H132.867C132.867 52.985 132.997 53.32 133.257 53.62C133.527 53.92 133.997 54.07 134.667 54.07C135.327 54.07 135.782 53.945 136.032 53.695C136.292 53.445 136.422 53.155 136.422 52.825C136.422 52.115 135.917 51.76 134.907 51.76H133.887V50.53H134.712C135.202 50.53 135.547 50.425 135.747 50.215C135.957 50.005 136.062 49.75 136.062 49.45C136.062 49.13 135.942 48.86 135.702 48.64C135.462 48.42 135.092 48.31 134.592 48.31C133.622 48.31 133.122 48.765 133.092 49.675H131.382C131.392 49.365 131.442 49.075 131.532 48.805C131.632 48.535 131.792 48.26 132.012 47.98C132.242 47.7 132.582 47.48 133.032 47.32C133.492 47.16 134.047 47.08 134.697 47.08C135.807 47.08 136.627 47.305 137.157 47.755C137.687 48.195 137.952 48.745 137.952 49.405C137.952 49.875 137.827 50.245 137.577 50.515C137.327 50.785 137.022 50.955 136.662 51.025V51.055C137.742 51.265 138.282 51.835 138.282 52.765C138.282 53.085 138.227 53.38 138.117 53.65C138.017 53.92 137.842 54.19 137.592 54.46C137.352 54.72 136.977 54.925 136.467 55.075C135.967 55.225 135.362 55.3 134.652 55.3C134.082 55.3 133.577 55.235 133.137 55.105C132.707 54.975 132.372 54.82 132.132 54.64C131.892 54.45 131.697 54.225 131.547 53.965C131.397 53.705 131.297 53.475 131.247 53.275C131.197 53.065 131.167 52.845 131.157 52.615ZM140.004 47.38H141.654V48.13H141.684C142.244 47.43 143.064 47.08 144.144 47.08C144.604 47.08 145.039 47.155 145.449 47.305C145.869 47.455 146.259 47.685 146.619 47.995C146.989 48.305 147.279 48.73 147.489 49.27C147.709 49.81 147.819 50.435 147.819 51.145C147.819 51.505 147.789 51.86 147.729 52.21C147.679 52.55 147.569 52.915 147.399 53.305C147.239 53.685 147.029 54.02 146.769 54.31C146.519 54.59 146.169 54.825 145.719 55.015C145.279 55.205 144.774 55.3 144.204 55.3C144.084 55.3 143.954 55.29 143.814 55.27C143.674 55.26 143.459 55.225 143.169 55.165C142.889 55.115 142.624 55.01 142.374 54.85C142.134 54.68 141.944 54.47 141.804 54.22V57.775H140.004V47.38ZM141.669 51.205C141.669 52.085 141.844 52.785 142.194 53.305C142.544 53.815 143.044 54.07 143.694 54.07C143.934 54.07 144.164 54.035 144.384 53.965C144.604 53.895 144.834 53.77 145.074 53.59C145.324 53.41 145.524 53.12 145.674 52.72C145.824 52.31 145.899 51.82 145.899 51.25C145.899 50.24 145.694 49.5 145.284 49.03C144.884 48.55 144.379 48.31 143.769 48.31C143.539 48.31 143.314 48.35 143.094 48.43C142.884 48.5 142.664 48.63 142.434 48.82C142.204 49.01 142.019 49.31 141.879 49.72C141.739 50.13 141.669 50.625 141.669 51.205ZM150.92 49.735H149.21C149.19 48.975 149.47 48.345 150.05 47.845C150.63 47.335 151.51 47.08 152.69 47.08C153.27 47.08 153.775 47.15 154.205 47.29C154.635 47.42 154.96 47.58 155.18 47.77C155.4 47.95 155.57 48.175 155.69 48.445C155.82 48.715 155.9 48.95 155.93 49.15C155.96 49.34 155.975 49.55 155.975 49.78V52.825C155.975 53.225 156.01 53.485 156.08 53.605C156.15 53.725 156.335 53.775 156.635 53.755V55C156.325 55.03 156.06 55.045 155.84 55.045C154.97 55.045 154.475 54.715 154.355 54.055C153.765 54.805 152.92 55.18 151.82 55.18C151.32 55.18 150.885 55.12 150.515 55C150.145 54.89 149.865 54.755 149.675 54.595C149.495 54.435 149.35 54.245 149.24 54.025C149.14 53.795 149.075 53.605 149.045 53.455C149.025 53.305 149.015 53.145 149.015 52.975C149.015 52.605 149.085 52.28 149.225 52C149.375 51.71 149.555 51.49 149.765 51.34C149.985 51.19 150.175 51.08 150.335 51.01C150.495 50.93 150.64 50.875 150.77 50.845C150.94 50.795 151.12 50.755 151.31 50.725C151.5 50.695 151.715 50.665 151.955 50.635C152.195 50.605 152.39 50.58 152.54 50.56C152.62 50.54 152.74 50.525 152.9 50.515C153.07 50.495 153.195 50.475 153.275 50.455C153.485 50.425 153.625 50.405 153.695 50.395C153.765 50.385 153.85 50.355 153.95 50.305C154.05 50.245 154.11 50.165 154.13 50.065C154.16 49.955 154.175 49.81 154.175 49.63C154.175 48.75 153.68 48.31 152.69 48.31C152.07 48.31 151.615 48.45 151.325 48.73C151.035 49 150.9 49.335 150.92 49.735ZM154.175 51.61V51.34C153.995 51.47 153.565 51.575 152.885 51.655C152.565 51.695 152.33 51.73 152.18 51.76C152.04 51.78 151.865 51.82 151.655 51.88C151.455 51.94 151.31 52.01 151.22 52.09C151.13 52.17 151.05 52.28 150.98 52.42C150.91 52.56 150.875 52.725 150.875 52.915C150.875 53.225 150.97 53.475 151.16 53.665C151.36 53.855 151.66 53.95 152.06 53.95C152.32 53.95 152.56 53.92 152.78 53.86C153 53.8 153.22 53.69 153.44 53.53C153.67 53.37 153.85 53.13 153.98 52.81C154.11 52.48 154.175 52.08 154.175 51.61ZM163.777 43.915H165.247C165.227 44.245 165.152 44.535 165.022 44.785C164.902 45.025 164.767 45.215 164.617 45.355C164.467 45.485 164.257 45.595 163.987 45.685C163.727 45.775 163.502 45.835 163.312 45.865C163.132 45.895 162.892 45.925 162.592 45.955C162.322 45.985 162.107 46.015 161.947 46.045C161.787 46.065 161.567 46.11 161.287 46.18C161.017 46.25 160.792 46.33 160.612 46.42C160.442 46.51 160.252 46.64 160.042 46.81C159.832 46.97 159.667 47.16 159.547 47.38C159.437 47.59 159.342 47.855 159.262 48.175C159.192 48.495 159.167 48.85 159.187 49.24H159.217C159.447 48.6 159.847 48.1 160.417 47.74C160.987 47.38 161.617 47.2 162.307 47.2C163.367 47.2 164.242 47.565 164.932 48.295C165.632 49.015 165.982 50 165.982 51.25C165.982 51.78 165.902 52.28 165.742 52.75C165.592 53.22 165.362 53.65 165.052 54.04C164.742 54.42 164.322 54.725 163.792 54.955C163.262 55.185 162.657 55.3 161.977 55.3C161.437 55.3 160.947 55.23 160.507 55.09C160.077 54.95 159.722 54.78 159.442 54.58C159.172 54.37 158.937 54.11 158.737 53.8C158.537 53.49 158.387 53.205 158.287 52.945C158.197 52.685 158.127 52.39 158.077 52.06C158.027 51.73 157.997 51.485 157.987 51.325C157.977 51.155 157.972 50.97 157.972 50.77C157.972 48.93 158.162 47.535 158.542 46.585C158.852 45.865 159.312 45.355 159.922 45.055C160.542 44.755 161.467 44.54 162.697 44.41C163.067 44.38 163.327 44.335 163.477 44.275C163.627 44.205 163.727 44.085 163.777 43.915ZM160.102 49.75C159.962 50.15 159.892 50.65 159.892 51.25C159.892 51.85 159.962 52.355 160.102 52.765C160.252 53.165 160.447 53.455 160.687 53.635C160.937 53.805 161.157 53.92 161.347 53.98C161.547 54.04 161.757 54.07 161.977 54.07C162.197 54.07 162.402 54.04 162.592 53.98C162.792 53.92 163.012 53.805 163.252 53.635C163.502 53.455 163.697 53.165 163.837 52.765C163.987 52.355 164.062 51.85 164.062 51.25C164.062 50.65 163.987 50.15 163.837 49.75C163.697 49.34 163.502 49.05 163.252 48.88C163.012 48.7 162.792 48.58 162.592 48.52C162.402 48.46 162.197 48.43 161.977 48.43C161.757 48.43 161.547 48.46 161.347 48.52C161.157 48.58 160.937 48.7 160.687 48.88C160.447 49.05 160.252 49.34 160.102 49.75ZM169.549 47.38C170.029 47.18 170.579 47.08 171.199 47.08C171.819 47.08 172.369 47.18 172.849 47.38C173.329 47.57 173.709 47.81 173.989 48.1C174.269 48.39 174.499 48.73 174.679 49.12C174.859 49.51 174.979 49.87 175.039 50.2C175.099 50.53 175.129 50.86 175.129 51.19C175.129 51.52 175.099 51.85 175.039 52.18C174.979 52.51 174.859 52.87 174.679 53.26C174.499 53.65 174.269 53.99 173.989 54.28C173.709 54.57 173.329 54.81 172.849 55C172.369 55.2 171.819 55.3 171.199 55.3C170.579 55.3 170.029 55.2 169.549 55C169.069 54.81 168.689 54.57 168.409 54.28C168.129 53.99 167.899 53.655 167.719 53.275C167.539 52.885 167.419 52.525 167.359 52.195C167.299 51.855 167.269 51.52 167.269 51.19C167.269 50.86 167.299 50.53 167.359 50.2C167.419 49.87 167.539 49.51 167.719 49.12C167.899 48.73 168.129 48.39 168.409 48.1C168.689 47.81 169.069 47.57 169.549 47.38ZM171.799 48.4C171.609 48.34 171.409 48.31 171.199 48.31C170.989 48.31 170.789 48.34 170.599 48.4C170.409 48.46 170.194 48.58 169.954 48.76C169.724 48.94 169.539 49.24 169.399 49.66C169.259 50.07 169.189 50.58 169.189 51.19C169.189 51.8 169.259 52.315 169.399 52.735C169.539 53.145 169.724 53.44 169.954 53.62C170.194 53.8 170.409 53.92 170.599 53.98C170.789 54.04 170.989 54.07 171.199 54.07C171.409 54.07 171.609 54.04 171.799 53.98C171.989 53.92 172.199 53.8 172.429 53.62C172.669 53.44 172.859 53.145 172.999 52.735C173.139 52.315 173.209 51.8 173.209 51.19C173.209 50.58 173.139 50.07 172.999 49.66C172.859 49.24 172.669 48.94 172.429 48.76C172.199 48.58 171.989 48.46 171.799 48.4ZM178.584 48.61H175.974V47.38H182.994V48.61H180.384V55H178.584V48.61ZM185.505 49.735H183.795C183.775 48.975 184.055 48.345 184.635 47.845C185.215 47.335 186.095 47.08 187.275 47.08C187.855 47.08 188.36 47.15 188.79 47.29C189.22 47.42 189.545 47.58 189.765 47.77C189.985 47.95 190.155 48.175 190.275 48.445C190.405 48.715 190.485 48.95 190.515 49.15C190.545 49.34 190.56 49.55 190.56 49.78V52.825C190.56 53.225 190.595 53.485 190.665 53.605C190.735 53.725 190.92 53.775 191.22 53.755V55C190.91 55.03 190.645 55.045 190.425 55.045C189.555 55.045 189.06 54.715 188.94 54.055C188.35 54.805 187.505 55.18 186.405 55.18C185.905 55.18 185.47 55.12 185.1 55C184.73 54.89 184.45 54.755 184.26 54.595C184.08 54.435 183.935 54.245 183.825 54.025C183.725 53.795 183.66 53.605 183.63 53.455C183.61 53.305 183.6 53.145 183.6 52.975C183.6 52.605 183.67 52.28 183.81 52C183.96 51.71 184.14 51.49 184.35 51.34C184.57 51.19 184.76 51.08 184.92 51.01C185.08 50.93 185.225 50.875 185.355 50.845C185.525 50.795 185.705 50.755 185.895 50.725C186.085 50.695 186.3 50.665 186.54 50.635C186.78 50.605 186.975 50.58 187.125 50.56C187.205 50.54 187.325 50.525 187.485 50.515C187.655 50.495 187.78 50.475 187.86 50.455C188.07 50.425 188.21 50.405 188.28 50.395C188.35 50.385 188.435 50.355 188.535 50.305C188.635 50.245 188.695 50.165 188.715 50.065C188.745 49.955 188.76 49.81 188.76 49.63C188.76 48.75 188.265 48.31 187.275 48.31C186.655 48.31 186.2 48.45 185.91 48.73C185.62 49 185.485 49.335 185.505 49.735ZM188.76 51.61V51.34C188.58 51.47 188.15 51.575 187.47 51.655C187.15 51.695 186.915 51.73 186.765 51.76C186.625 51.78 186.45 51.82 186.24 51.88C186.04 51.94 185.895 52.01 185.805 52.09C185.715 52.17 185.635 52.28 185.565 52.42C185.495 52.56 185.46 52.725 185.46 52.915C185.46 53.225 185.555 53.475 185.745 53.665C185.945 53.855 186.245 53.95 186.645 53.95C186.905 53.95 187.145 53.92 187.365 53.86C187.585 53.8 187.805 53.69 188.025 53.53C188.255 53.37 188.435 53.13 188.565 52.81C188.695 52.48 188.76 52.08 188.76 51.61ZM194.229 48.61H191.619V47.38H198.639V48.61H196.029V55H194.229V48.61ZM199.916 47.38H201.716V50.32H203.471C203.731 50.32 203.951 50.325 204.131 50.335C204.321 50.345 204.551 50.375 204.821 50.425C205.101 50.465 205.331 50.54 205.511 50.65C205.701 50.75 205.886 50.885 206.066 51.055C206.256 51.215 206.396 51.435 206.486 51.715C206.586 51.985 206.636 52.305 206.636 52.675C206.636 54.225 205.721 55 203.891 55H199.916V47.38ZM201.716 51.55V53.77H203.456C203.846 53.77 204.161 53.68 204.401 53.5C204.651 53.31 204.776 53.02 204.776 52.63C204.776 51.91 204.336 51.55 203.456 51.55H201.716ZM117.445 79.775V77.18C116.955 77.17 116.505 77.135 116.095 77.075C115.695 77.015 115.27 76.9 114.82 76.73C114.38 76.55 114.005 76.32 113.695 76.04C113.395 75.76 113.145 75.38 112.945 74.9C112.745 74.41 112.645 73.84 112.645 73.19C112.645 72.53 112.755 71.95 112.975 71.45C113.195 70.95 113.47 70.56 113.8 70.28C114.14 69.99 114.535 69.76 114.985 69.59C115.435 69.42 115.855 69.31 116.245 69.26C116.645 69.21 117.045 69.19 117.445 69.2V66.5H119.245V69.2C119.645 69.19 120.04 69.21 120.43 69.26C120.83 69.31 121.255 69.42 121.705 69.59C122.155 69.76 122.545 69.99 122.875 70.28C123.215 70.56 123.495 70.95 123.715 71.45C123.935 71.95 124.045 72.53 124.045 73.19C124.045 75.78 122.445 77.11 119.245 77.18V79.775H117.445ZM117.445 75.965V70.43C115.525 70.43 114.565 71.35 114.565 73.19C114.565 74.19 114.83 74.905 115.36 75.335C115.9 75.755 116.595 75.965 117.445 75.965ZM119.245 70.43V75.965C120.095 75.965 120.785 75.755 121.315 75.335C121.855 74.905 122.125 74.19 122.125 73.19C122.125 71.35 121.165 70.43 119.245 70.43ZM126.261 79.745V78.515C126.501 78.575 126.731 78.605 126.951 78.605C127.291 78.605 127.541 78.51 127.701 78.32C127.871 78.14 128.021 77.815 128.151 77.345L128.256 76.985L124.791 69.38H126.951L129.246 75.05L131.001 69.38H132.801L129.891 77.66C129.671 78.3 129.456 78.75 129.246 79.01C128.806 79.56 128.186 79.835 127.386 79.835C126.996 79.835 126.621 79.805 126.261 79.745ZM135.681 73.61V77H133.881V69.38H135.681V72.38H138.981V69.38H140.781V77H138.981V73.61H135.681ZM144.734 72.56L147.629 69.38H149.699L146.309 72.935L149.864 77H147.794L144.734 73.31V77H142.934V69.38H144.734V72.56ZM152.688 75.77H156.108V69.38H157.908V75.77H159.228L159.078 78.98H157.578V77H150.888V69.38H152.688V75.77ZM162.165 74.87L165.735 69.38H167.715V77H165.915V71.51L162.345 77H160.365V69.38H162.165V74.87ZM171.717 69.38C172.197 69.18 172.747 69.08 173.367 69.08C173.987 69.08 174.537 69.18 175.017 69.38C175.497 69.57 175.877 69.81 176.157 70.1C176.437 70.39 176.667 70.73 176.847 71.12C177.027 71.51 177.147 71.87 177.207 72.2C177.267 72.53 177.297 72.86 177.297 73.19C177.297 73.52 177.267 73.85 177.207 74.18C177.147 74.51 177.027 74.87 176.847 75.26C176.667 75.65 176.437 75.99 176.157 76.28C175.877 76.57 175.497 76.81 175.017 77C174.537 77.2 173.987 77.3 173.367 77.3C172.747 77.3 172.197 77.2 171.717 77C171.237 76.81 170.857 76.57 170.577 76.28C170.297 75.99 170.067 75.655 169.887 75.275C169.707 74.885 169.587 74.525 169.527 74.195C169.467 73.855 169.437 73.52 169.437 73.19C169.437 72.86 169.467 72.53 169.527 72.2C169.587 71.87 169.707 71.51 169.887 71.12C170.067 70.73 170.297 70.39 170.577 70.1C170.857 69.81 171.237 69.57 171.717 69.38ZM173.967 70.4C173.777 70.34 173.577 70.31 173.367 70.31C173.157 70.31 172.957 70.34 172.767 70.4C172.577 70.46 172.362 70.58 172.122 70.76C171.892 70.94 171.707 71.24 171.567 71.66C171.427 72.07 171.357 72.58 171.357 73.19C171.357 73.8 171.427 74.315 171.567 74.735C171.707 75.145 171.892 75.44 172.122 75.62C172.362 75.8 172.577 75.92 172.767 75.98C172.957 76.04 173.157 76.07 173.367 76.07C173.577 76.07 173.777 76.04 173.967 75.98C174.157 75.92 174.367 75.8 174.597 75.62C174.837 75.44 175.027 75.145 175.167 74.735C175.307 74.315 175.377 73.8 175.377 73.19C175.377 72.58 175.307 72.07 175.167 71.66C175.027 71.24 174.837 70.94 174.597 70.76C174.367 70.58 174.157 70.46 173.967 70.4ZM180.827 73.61V77H179.027V69.38H180.827V72.38H184.127V69.38H185.927V77H184.127V73.61H180.827ZM189.46 71.735H187.75C187.73 70.975 188.01 70.345 188.59 69.845C189.17 69.335 190.05 69.08 191.23 69.08C191.81 69.08 192.315 69.15 192.745 69.29C193.175 69.42 193.5 69.58 193.72 69.77C193.94 69.95 194.11 70.175 194.23 70.445C194.36 70.715 194.44 70.95 194.47 71.15C194.5 71.34 194.515 71.55 194.515 71.78V74.825C194.515 75.225 194.55 75.485 194.62 75.605C194.69 75.725 194.875 75.775 195.175 75.755V77C194.865 77.03 194.6 77.045 194.38 77.045C193.51 77.045 193.015 76.715 192.895 76.055C192.305 76.805 191.46 77.18 190.36 77.18C189.86 77.18 189.425 77.12 189.055 77C188.685 76.89 188.405 76.755 188.215 76.595C188.035 76.435 187.89 76.245 187.78 76.025C187.68 75.795 187.615 75.605 187.585 75.455C187.565 75.305 187.555 75.145 187.555 74.975C187.555 74.605 187.625 74.28 187.765 74C187.915 73.71 188.095 73.49 188.305 73.34C188.525 73.19 188.715 73.08 188.875 73.01C189.035 72.93 189.18 72.875 189.31 72.845C189.48 72.795 189.66 72.755 189.85 72.725C190.04 72.695 190.255 72.665 190.495 72.635C190.735 72.605 190.93 72.58 191.08 72.56C191.16 72.54 191.28 72.525 191.44 72.515C191.61 72.495 191.735 72.475 191.815 72.455C192.025 72.425 192.165 72.405 192.235 72.395C192.305 72.385 192.39 72.355 192.49 72.305C192.59 72.245 192.65 72.165 192.67 72.065C192.7 71.955 192.715 71.81 192.715 71.63C192.715 70.75 192.22 70.31 191.23 70.31C190.61 70.31 190.155 70.45 189.865 70.73C189.575 71 189.44 71.335 189.46 71.735ZM192.715 73.61V73.34C192.535 73.47 192.105 73.575 191.425 73.655C191.105 73.695 190.87 73.73 190.72 73.76C190.58 73.78 190.405 73.82 190.195 73.88C189.995 73.94 189.85 74.01 189.76 74.09C189.67 74.17 189.59 74.28 189.52 74.42C189.45 74.56 189.415 74.725 189.415 74.915C189.415 75.225 189.51 75.475 189.7 75.665C189.9 75.855 190.2 75.95 190.6 75.95C190.86 75.95 191.1 75.92 191.32 75.86C191.54 75.8 191.76 75.69 191.98 75.53C192.21 75.37 192.39 75.13 192.52 74.81C192.65 74.48 192.715 74.08 192.715 73.61ZM196.174 77V75.77C196.524 75.83 196.814 75.815 197.044 75.725C197.284 75.625 197.464 75.45 197.584 75.2C197.704 74.95 197.789 74.685 197.839 74.405C197.889 74.125 197.919 73.78 197.929 73.37V71.87V69.38H203.764V77H201.964V70.61H199.609V72.035C199.609 72.705 199.594 73.25 199.564 73.67C199.544 74.08 199.469 74.555 199.339 75.095C199.219 75.635 199.044 76.045 198.814 76.325C198.584 76.605 198.244 76.82 197.794 76.97C197.354 77.12 196.814 77.13 196.174 77Z" fill="#333333"/>
<rect x="29" y="27" width="66" height="66" rx="33" fill="url(#paint0_linear_2_390)"/>
<path d="M47.0029 69.2156C46.6124 68.8251 46.6124 68.1919 47.0029 67.8014L69.0537 45.7506C69.2021 45.6022 69.3934 45.5043 69.6005 45.4706L69.4407 44.4875L69.6005 45.4706L77.5562 44.178C78.23 44.0685 78.8131 44.6516 78.7036 45.3254L79.6544 45.4799L78.7036 45.3254L77.411 53.2811C77.3773 53.4882 77.2794 53.6795 77.131 53.8279L55.0802 75.8787C54.6897 76.2692 54.0565 76.2692 53.666 75.8787L47.0029 69.2156Z" stroke="white" stroke-width="2"/>
<line x1="52.7071" y1="63.2928" x2="60.8427" y2="71.4284" stroke="white" stroke-width="2"/>
<path d="M67.2545 47.4916L68.6105 50.2035L71.6613 51.2204L72.3393 53.9323L75.3901 55.6272" stroke="white" stroke-width="2"/>
<path d="M55.8701 59.9689L47.836 51.8647C47.0608 51.0826 47.0635 49.821 47.8421 49.0424L53.0864 43.7981C53.8891 42.9955 55.198 43.021 55.9688 43.8542L63.665 52.174M63.9163 67.9739L70.5484 74.572C71.33 75.3496 72.5935 75.348 73.3731 74.5684L78.6382 69.3034C79.4319 68.5096 79.4171 67.2181 78.6053 66.4428L71.8751 60.0151" stroke="white" stroke-width="2"/>
<line x1="52.2597" y1="50.293" x2="49.1087" y2="53.444" stroke="white" stroke-width="2"/>
<line x1="72.4259" y1="70.4592" x2="69.2749" y2="73.6102" stroke="white" stroke-width="2"/>
<line x1="54.1503" y1="54.7045" x2="52.2597" y2="56.5951" stroke="white" stroke-width="2"/>
<line x1="68.0146" y1="68.5686" x2="66.1241" y2="70.4592" stroke="white" stroke-width="2"/>
<defs>
<linearGradient id="paint0_linear_2_390" x1="40.0939" y1="27" x2="96.6866" y2="43.1816" gradientUnits="userSpaceOnUse">
<stop stop-color="#3F0F72"/>
<stop offset="1" stop-color="#791281"/>
</linearGradient>
</defs>
</svg>
