<svg width="270" height="120" viewBox="0 0 270 120" fill="none" xmlns="http://www.w3.org/2000/svg">
<rect width="270" height="120" rx="9" fill="white"/>
<path d="M114.76 52.795L113.995 55H111.94L115.9 44.5H117.82L121.78 55H119.725L118.96 52.795H114.76ZM115.27 51.205H118.45L116.86 46.54L115.27 51.205ZM122.195 53.77H123.245C124.055 52.53 124.46 50.845 124.46 48.715V47.38H130.415V53.77H131.735L131.585 56.98H130.085V55H123.845V56.98H122.345L122.195 53.77ZM128.615 48.61H126.14V49.54C126.14 50.4 126.065 51.125 125.915 51.715C125.775 52.295 125.52 52.98 125.15 53.77H128.615V48.61ZM134.25 49.735H132.54C132.52 48.975 132.8 48.345 133.38 47.845C133.96 47.335 134.84 47.08 136.02 47.08C136.6 47.08 137.105 47.15 137.535 47.29C137.965 47.42 138.29 47.58 138.51 47.77C138.73 47.95 138.9 48.175 139.02 48.445C139.15 48.715 139.23 48.95 139.26 49.15C139.29 49.34 139.305 49.55 139.305 49.78V52.825C139.305 53.225 139.34 53.485 139.41 53.605C139.48 53.725 139.665 53.775 139.965 53.755V55C139.655 55.03 139.39 55.045 139.17 55.045C138.3 55.045 137.805 54.715 137.685 54.055C137.095 54.805 136.25 55.18 135.15 55.18C134.65 55.18 134.215 55.12 133.845 55C133.475 54.89 133.195 54.755 133.005 54.595C132.825 54.435 132.68 54.245 132.57 54.025C132.47 53.795 132.405 53.605 132.375 53.455C132.355 53.305 132.345 53.145 132.345 52.975C132.345 52.605 132.415 52.28 132.555 52C132.705 51.71 132.885 51.49 133.095 51.34C133.315 51.19 133.505 51.08 133.665 51.01C133.825 50.93 133.97 50.875 134.1 50.845C134.27 50.795 134.45 50.755 134.64 50.725C134.83 50.695 135.045 50.665 135.285 50.635C135.525 50.605 135.72 50.58 135.87 50.56C135.95 50.54 136.07 50.525 136.23 50.515C136.4 50.495 136.525 50.475 136.605 50.455C136.815 50.425 136.955 50.405 137.025 50.395C137.095 50.385 137.18 50.355 137.28 50.305C137.38 50.245 137.44 50.165 137.46 50.065C137.49 49.955 137.505 49.81 137.505 49.63C137.505 48.75 137.01 48.31 136.02 48.31C135.4 48.31 134.945 48.45 134.655 48.73C134.365 49 134.23 49.335 134.25 49.735ZM137.505 51.61V51.34C137.325 51.47 136.895 51.575 136.215 51.655C135.895 51.695 135.66 51.73 135.51 51.76C135.37 51.78 135.195 51.82 134.985 51.88C134.785 51.94 134.64 52.01 134.55 52.09C134.46 52.17 134.38 52.28 134.31 52.42C134.24 52.56 134.205 52.725 134.205 52.915C134.205 53.225 134.3 53.475 134.49 53.665C134.69 53.855 134.99 53.95 135.39 53.95C135.65 53.95 135.89 53.92 136.11 53.86C136.33 53.8 136.55 53.69 136.77 53.53C137 53.37 137.18 53.13 137.31 52.81C137.44 52.48 137.505 52.08 137.505 51.61ZM143.327 48.61V55H141.527V47.38H148.547V55H146.747V48.61H143.327ZM152.437 48.61H149.827V47.38H156.847V48.61H154.237V55H152.437V48.61ZM159.924 52.87L163.494 47.38H165.474V55H163.674V49.51L160.104 55H158.124V47.38H159.924V52.87ZM167.631 47.38H169.281V48.13H169.311C169.871 47.43 170.691 47.08 171.771 47.08C172.231 47.08 172.666 47.155 173.076 47.305C173.496 47.455 173.886 47.685 174.246 47.995C174.616 48.305 174.906 48.73 175.116 49.27C175.336 49.81 175.446 50.435 175.446 51.145C175.446 51.505 175.416 51.86 175.356 52.21C175.306 52.55 175.196 52.915 175.026 53.305C174.866 53.685 174.656 54.02 174.396 54.31C174.146 54.59 173.796 54.825 173.346 55.015C172.906 55.205 172.401 55.3 171.831 55.3C171.711 55.3 171.581 55.29 171.441 55.27C171.301 55.26 171.086 55.225 170.796 55.165C170.516 55.115 170.251 55.01 170.001 54.85C169.761 54.68 169.571 54.47 169.431 54.22V57.775H167.631V47.38ZM169.296 51.205C169.296 52.085 169.471 52.785 169.821 53.305C170.171 53.815 170.671 54.07 171.321 54.07C171.561 54.07 171.791 54.035 172.011 53.965C172.231 53.895 172.461 53.77 172.701 53.59C172.951 53.41 173.151 53.12 173.301 52.72C173.451 52.31 173.526 51.82 173.526 51.25C173.526 50.24 173.321 49.5 172.911 49.03C172.511 48.55 172.006 48.31 171.396 48.31C171.166 48.31 170.941 48.35 170.721 48.43C170.511 48.5 170.291 48.63 170.061 48.82C169.831 49.01 169.646 49.31 169.506 49.72C169.366 50.13 169.296 50.625 169.296 51.205ZM179.012 47.38C179.492 47.18 180.042 47.08 180.662 47.08C181.282 47.08 181.832 47.18 182.312 47.38C182.792 47.57 183.172 47.81 183.452 48.1C183.732 48.39 183.962 48.73 184.142 49.12C184.322 49.51 184.442 49.87 184.502 50.2C184.562 50.53 184.592 50.86 184.592 51.19C184.592 51.52 184.562 51.85 184.502 52.18C184.442 52.51 184.322 52.87 184.142 53.26C183.962 53.65 183.732 53.99 183.452 54.28C183.172 54.57 182.792 54.81 182.312 55C181.832 55.2 181.282 55.3 180.662 55.3C180.042 55.3 179.492 55.2 179.012 55C178.532 54.81 178.152 54.57 177.872 54.28C177.592 53.99 177.362 53.655 177.182 53.275C177.002 52.885 176.882 52.525 176.822 52.195C176.762 51.855 176.732 51.52 176.732 51.19C176.732 50.86 176.762 50.53 176.822 50.2C176.882 49.87 177.002 49.51 177.182 49.12C177.362 48.73 177.592 48.39 177.872 48.1C178.152 47.81 178.532 47.57 179.012 47.38ZM181.262 48.4C181.072 48.34 180.872 48.31 180.662 48.31C180.452 48.31 180.252 48.34 180.062 48.4C179.872 48.46 179.657 48.58 179.417 48.76C179.187 48.94 179.002 49.24 178.862 49.66C178.722 50.07 178.652 50.58 178.652 51.19C178.652 51.8 178.722 52.315 178.862 52.735C179.002 53.145 179.187 53.44 179.417 53.62C179.657 53.8 179.872 53.92 180.062 53.98C180.252 54.04 180.452 54.07 180.662 54.07C180.872 54.07 181.072 54.04 181.262 53.98C181.452 53.92 181.662 53.8 181.892 53.62C182.132 53.44 182.322 53.145 182.462 52.735C182.602 52.315 182.672 51.8 182.672 51.19C182.672 50.58 182.602 50.07 182.462 49.66C182.322 49.24 182.132 48.94 181.892 48.76C181.662 48.58 181.452 48.46 181.262 48.4ZM186.322 47.38H190.432C192.082 47.38 192.907 47.995 192.907 49.225C192.907 49.745 192.757 50.155 192.457 50.455C192.157 50.745 191.817 50.925 191.437 50.995V51.025C192.597 51.275 193.177 51.93 193.177 52.99C193.177 53.71 192.917 54.225 192.397 54.535C191.877 54.845 191.212 55 190.402 55H186.322V47.38ZM188.122 48.61V50.44H189.667C190.177 50.44 190.537 50.345 190.747 50.155C190.957 49.965 191.062 49.74 191.062 49.48C191.062 48.9 190.662 48.61 189.862 48.61H188.122ZM188.122 51.67V53.77H189.832C190.822 53.77 191.317 53.435 191.317 52.765C191.317 52.035 190.802 51.67 189.772 51.67H188.122ZM196.315 49.735H194.605C194.585 48.975 194.865 48.345 195.445 47.845C196.025 47.335 196.905 47.08 198.085 47.08C198.665 47.08 199.17 47.15 199.6 47.29C200.03 47.42 200.355 47.58 200.575 47.77C200.795 47.95 200.965 48.175 201.085 48.445C201.215 48.715 201.295 48.95 201.325 49.15C201.355 49.34 201.37 49.55 201.37 49.78V52.825C201.37 53.225 201.405 53.485 201.475 53.605C201.545 53.725 201.73 53.775 202.03 53.755V55C201.72 55.03 201.455 55.045 201.235 55.045C200.365 55.045 199.87 54.715 199.75 54.055C199.16 54.805 198.315 55.18 197.215 55.18C196.715 55.18 196.28 55.12 195.91 55C195.54 54.89 195.26 54.755 195.07 54.595C194.89 54.435 194.745 54.245 194.635 54.025C194.535 53.795 194.47 53.605 194.44 53.455C194.42 53.305 194.41 53.145 194.41 52.975C194.41 52.605 194.48 52.28 194.62 52C194.77 51.71 194.95 51.49 195.16 51.34C195.38 51.19 195.57 51.08 195.73 51.01C195.89 50.93 196.035 50.875 196.165 50.845C196.335 50.795 196.515 50.755 196.705 50.725C196.895 50.695 197.11 50.665 197.35 50.635C197.59 50.605 197.785 50.58 197.935 50.56C198.015 50.54 198.135 50.525 198.295 50.515C198.465 50.495 198.59 50.475 198.67 50.455C198.88 50.425 199.02 50.405 199.09 50.395C199.16 50.385 199.245 50.355 199.345 50.305C199.445 50.245 199.505 50.165 199.525 50.065C199.555 49.955 199.57 49.81 199.57 49.63C199.57 48.75 199.075 48.31 198.085 48.31C197.465 48.31 197.01 48.45 196.72 48.73C196.43 49 196.295 49.335 196.315 49.735ZM199.57 51.61V51.34C199.39 51.47 198.96 51.575 198.28 51.655C197.96 51.695 197.725 51.73 197.575 51.76C197.435 51.78 197.26 51.82 197.05 51.88C196.85 51.94 196.705 52.01 196.615 52.09C196.525 52.17 196.445 52.28 196.375 52.42C196.305 52.56 196.27 52.725 196.27 52.915C196.27 53.225 196.365 53.475 196.555 53.665C196.755 53.855 197.055 53.95 197.455 53.95C197.715 53.95 197.955 53.92 198.175 53.86C198.395 53.8 198.615 53.69 198.835 53.53C199.065 53.37 199.245 53.13 199.375 52.81C199.505 52.48 199.57 52.08 199.57 51.61ZM205.039 48.61H202.429V47.38H209.449V48.61H206.839V55H205.039V48.61ZM210.726 47.38H212.526V50.32H214.281C214.541 50.32 214.761 50.325 214.941 50.335C215.131 50.345 215.361 50.375 215.631 50.425C215.911 50.465 216.141 50.54 216.321 50.65C216.511 50.75 216.696 50.885 216.876 51.055C217.066 51.215 217.206 51.435 217.296 51.715C217.396 51.985 217.446 52.305 217.446 52.675C217.446 54.225 216.531 55 214.701 55H210.726V47.38ZM212.526 51.55V53.77H214.266C214.656 53.77 214.971 53.68 215.211 53.5C215.461 53.31 215.586 53.02 215.586 52.63C215.586 51.91 215.146 51.55 214.266 51.55H212.526ZM118.36 74.21H120.07C120.04 74.46 119.99 74.71 119.92 74.96C119.85 75.21 119.725 75.48 119.545 75.77C119.375 76.06 119.165 76.315 118.915 76.535C118.665 76.755 118.325 76.935 117.895 77.075C117.475 77.225 117 77.3 116.47 77.3C115.21 77.3 114.255 76.93 113.605 76.19C112.965 75.45 112.645 74.455 112.645 73.205C112.645 72.465 112.745 71.825 112.945 71.285C113.155 70.745 113.395 70.34 113.665 70.07C113.945 69.79 114.28 69.57 114.67 69.41C115.06 69.25 115.38 69.155 115.63 69.125C115.88 69.095 116.14 69.08 116.41 69.08C117.51 69.08 118.365 69.355 118.975 69.905C119.595 70.445 119.95 71.115 120.04 71.915H118.33C118.29 71.475 118.115 71.1 117.805 70.79C117.495 70.47 117.065 70.31 116.515 70.31C115.215 70.31 114.565 71.275 114.565 73.205C114.565 73.765 114.63 74.245 114.76 74.645C114.89 75.045 115.06 75.345 115.27 75.545C115.49 75.735 115.71 75.87 115.93 75.95C116.15 76.03 116.38 76.07 116.62 76.07C117.21 76.07 117.64 75.88 117.91 75.5C118.18 75.11 118.33 74.68 118.36 74.21ZM123.538 69.38C124.018 69.18 124.568 69.08 125.188 69.08C125.808 69.08 126.358 69.18 126.838 69.38C127.318 69.57 127.698 69.81 127.978 70.1C128.258 70.39 128.488 70.73 128.668 71.12C128.848 71.51 128.968 71.87 129.028 72.2C129.088 72.53 129.118 72.86 129.118 73.19C129.118 73.52 129.088 73.85 129.028 74.18C128.968 74.51 128.848 74.87 128.668 75.26C128.488 75.65 128.258 75.99 127.978 76.28C127.698 76.57 127.318 76.81 126.838 77C126.358 77.2 125.808 77.3 125.188 77.3C124.568 77.3 124.018 77.2 123.538 77C123.058 76.81 122.678 76.57 122.398 76.28C122.118 75.99 121.888 75.655 121.708 75.275C121.528 74.885 121.408 74.525 121.348 74.195C121.288 73.855 121.258 73.52 121.258 73.19C121.258 72.86 121.288 72.53 121.348 72.2C121.408 71.87 121.528 71.51 121.708 71.12C121.888 70.73 122.118 70.39 122.398 70.1C122.678 69.81 123.058 69.57 123.538 69.38ZM125.788 70.4C125.598 70.34 125.398 70.31 125.188 70.31C124.978 70.31 124.778 70.34 124.588 70.4C124.398 70.46 124.183 70.58 123.943 70.76C123.713 70.94 123.528 71.24 123.388 71.66C123.248 72.07 123.178 72.58 123.178 73.19C123.178 73.8 123.248 74.315 123.388 74.735C123.528 75.145 123.713 75.44 123.943 75.62C124.183 75.8 124.398 75.92 124.588 75.98C124.778 76.04 124.978 76.07 125.188 76.07C125.398 76.07 125.598 76.04 125.788 75.98C125.978 75.92 126.188 75.8 126.418 75.62C126.658 75.44 126.848 75.145 126.988 74.735C127.128 74.315 127.198 73.8 127.198 73.19C127.198 72.58 127.128 72.07 126.988 71.66C126.848 71.24 126.658 70.94 126.418 70.76C126.188 70.58 125.978 70.46 125.788 70.4ZM129.769 75.77H130.819C131.629 74.53 132.034 72.845 132.034 70.715V69.38H137.989V75.77H139.309L139.159 78.98H137.659V77H131.419V78.98H129.919L129.769 75.77ZM136.189 70.61H133.714V71.54C133.714 72.4 133.639 73.125 133.489 73.715C133.349 74.295 133.094 74.98 132.724 75.77H136.189V70.61ZM145.798 74.795H147.508C147.448 75.085 147.353 75.36 147.223 75.62C147.103 75.87 146.913 76.135 146.653 76.415C146.403 76.685 146.038 76.9 145.558 77.06C145.078 77.22 144.518 77.3 143.878 77.3C143.638 77.3 143.398 77.285 143.158 77.255C142.928 77.235 142.608 77.15 142.198 77C141.788 76.85 141.433 76.65 141.133 76.4C140.843 76.14 140.583 75.745 140.353 75.215C140.123 74.675 140.008 74.045 140.008 73.325C140.008 71.995 140.333 70.955 140.983 70.205C141.643 69.455 142.613 69.08 143.893 69.08C146.263 69.08 147.503 70.46 147.613 73.22C147.613 73.28 147.613 73.355 147.613 73.445C147.623 73.535 147.628 73.605 147.628 73.655H141.928C141.928 73.925 141.963 74.19 142.033 74.45C142.103 74.71 142.213 74.97 142.363 75.23C142.513 75.48 142.733 75.685 143.023 75.845C143.313 75.995 143.648 76.07 144.028 76.07C144.458 76.07 144.843 75.96 145.183 75.74C145.533 75.51 145.738 75.195 145.798 74.795ZM141.928 72.425H145.723C145.723 72.215 145.698 72.005 145.648 71.795C145.608 71.585 145.528 71.36 145.408 71.12C145.288 70.88 145.098 70.685 144.838 70.535C144.588 70.385 144.278 70.31 143.908 70.31C143.258 70.31 142.758 70.525 142.408 70.955C142.068 71.385 141.908 71.875 141.928 72.425ZM149.35 69.38H151V70.13H151.03C151.59 69.43 152.41 69.08 153.49 69.08C153.95 69.08 154.385 69.155 154.795 69.305C155.215 69.455 155.605 69.685 155.965 69.995C156.335 70.305 156.625 70.73 156.835 71.27C157.055 71.81 157.165 72.435 157.165 73.145C157.165 73.505 157.135 73.86 157.075 74.21C157.025 74.55 156.915 74.915 156.745 75.305C156.585 75.685 156.375 76.02 156.115 76.31C155.865 76.59 155.515 76.825 155.065 77.015C154.625 77.205 154.12 77.3 153.55 77.3C153.43 77.3 153.3 77.29 153.16 77.27C153.02 77.26 152.805 77.225 152.515 77.165C152.235 77.115 151.97 77.01 151.72 76.85C151.48 76.68 151.29 76.47 151.15 76.22V79.775H149.35V69.38ZM151.015 73.205C151.015 74.085 151.19 74.785 151.54 75.305C151.89 75.815 152.39 76.07 153.04 76.07C153.28 76.07 153.51 76.035 153.73 75.965C153.95 75.895 154.18 75.77 154.42 75.59C154.67 75.41 154.87 75.12 155.02 74.72C155.17 74.31 155.245 73.82 155.245 73.25C155.245 72.24 155.04 71.5 154.63 71.03C154.23 70.55 153.725 70.31 153.115 70.31C152.885 70.31 152.66 70.35 152.44 70.43C152.23 70.5 152.01 70.63 151.78 70.82C151.55 71.01 151.365 71.31 151.225 71.72C151.085 72.13 151.015 72.625 151.015 73.205ZM162.576 77V73.37L159.966 77H157.746L161.076 72.98L157.911 69.38H160.026L162.576 72.725V69.38H164.376V72.725L166.926 69.38H169.041L165.876 72.98L169.206 77H166.986L164.376 73.37V77H162.576ZM171.604 71.735H169.894C169.874 70.975 170.154 70.345 170.734 69.845C171.314 69.335 172.194 69.08 173.374 69.08C173.954 69.08 174.459 69.15 174.889 69.29C175.319 69.42 175.644 69.58 175.864 69.77C176.084 69.95 176.254 70.175 176.374 70.445C176.504 70.715 176.584 70.95 176.614 71.15C176.644 71.34 176.659 71.55 176.659 71.78V74.825C176.659 75.225 176.694 75.485 176.764 75.605C176.834 75.725 177.019 75.775 177.319 75.755V77C177.009 77.03 176.744 77.045 176.524 77.045C175.654 77.045 175.159 76.715 175.039 76.055C174.449 76.805 173.604 77.18 172.504 77.18C172.004 77.18 171.569 77.12 171.199 77C170.829 76.89 170.549 76.755 170.359 76.595C170.179 76.435 170.034 76.245 169.924 76.025C169.824 75.795 169.759 75.605 169.729 75.455C169.709 75.305 169.699 75.145 169.699 74.975C169.699 74.605 169.769 74.28 169.909 74C170.059 73.71 170.239 73.49 170.449 73.34C170.669 73.19 170.859 73.08 171.019 73.01C171.179 72.93 171.324 72.875 171.454 72.845C171.624 72.795 171.804 72.755 171.994 72.725C172.184 72.695 172.399 72.665 172.639 72.635C172.879 72.605 173.074 72.58 173.224 72.56C173.304 72.54 173.424 72.525 173.584 72.515C173.754 72.495 173.879 72.475 173.959 72.455C174.169 72.425 174.309 72.405 174.379 72.395C174.449 72.385 174.534 72.355 174.634 72.305C174.734 72.245 174.794 72.165 174.814 72.065C174.844 71.955 174.859 71.81 174.859 71.63C174.859 70.75 174.364 70.31 173.374 70.31C172.754 70.31 172.299 70.45 172.009 70.73C171.719 71 171.584 71.335 171.604 71.735ZM174.859 73.61V73.34C174.679 73.47 174.249 73.575 173.569 73.655C173.249 73.695 173.014 73.73 172.864 73.76C172.724 73.78 172.549 73.82 172.339 73.88C172.139 73.94 171.994 74.01 171.904 74.09C171.814 74.17 171.734 74.28 171.664 74.42C171.594 74.56 171.559 74.725 171.559 74.915C171.559 75.225 171.654 75.475 171.844 75.665C172.044 75.855 172.344 75.95 172.744 75.95C173.004 75.95 173.244 75.92 173.464 75.86C173.684 75.8 173.904 75.69 174.124 75.53C174.354 75.37 174.534 75.13 174.664 74.81C174.794 74.48 174.859 74.08 174.859 73.61ZM180.681 73.61V77H178.881V69.38H180.681V72.38H183.981V69.38H185.781V77H183.981V73.61H180.681ZM189.734 74.87L193.304 69.38H195.284V77H193.484V71.51L189.914 77H187.934V69.38H189.734V74.87ZM202.795 74.795H204.505C204.445 75.085 204.35 75.36 204.22 75.62C204.1 75.87 203.91 76.135 203.65 76.415C203.4 76.685 203.035 76.9 202.555 77.06C202.075 77.22 201.515 77.3 200.875 77.3C200.635 77.3 200.395 77.285 200.155 77.255C199.925 77.235 199.605 77.15 199.195 77C198.785 76.85 198.43 76.65 198.13 76.4C197.84 76.14 197.58 75.745 197.35 75.215C197.12 74.675 197.005 74.045 197.005 73.325C197.005 71.995 197.33 70.955 197.98 70.205C198.64 69.455 199.61 69.08 200.89 69.08C203.26 69.08 204.5 70.46 204.61 73.22C204.61 73.28 204.61 73.355 204.61 73.445C204.62 73.535 204.625 73.605 204.625 73.655H198.925C198.925 73.925 198.96 74.19 199.03 74.45C199.1 74.71 199.21 74.97 199.36 75.23C199.51 75.48 199.73 75.685 200.02 75.845C200.31 75.995 200.645 76.07 201.025 76.07C201.455 76.07 201.84 75.96 202.18 75.74C202.53 75.51 202.735 75.195 202.795 74.795ZM198.925 72.425H202.72C202.72 72.215 202.695 72.005 202.645 71.795C202.605 71.585 202.525 71.36 202.405 71.12C202.285 70.88 202.095 70.685 201.835 70.535C201.585 70.385 201.275 70.31 200.905 70.31C200.255 70.31 199.755 70.525 199.405 70.955C199.065 71.385 198.905 71.875 198.925 72.425Z" fill="#333333"/>
<rect x="29" y="27" width="66" height="66" rx="33" fill="url(#paint0_linear_2_446)"/>
<mask id="path-4-inside-1_2_446" fill="white">
<rect x="47" y="58" width="17.1429" height="17.1429" rx="1"/>
</mask>
<rect x="47" y="58" width="17.1429" height="17.1429" rx="1" stroke="white" stroke-width="4" mask="url(#path-4-inside-1_2_446)"/>
<mask id="path-5-inside-2_2_446" fill="white">
<rect x="47" y="46" width="30" height="29.1429" rx="1"/>
</mask>
<rect x="47" y="46" width="30" height="29.1429" rx="1" stroke="white" stroke-width="4" mask="url(#path-5-inside-2_2_446)"/>
<line x1="64" y1="54" x2="72" y2="54" stroke="white" stroke-width="2"/>
<line x1="71" y1="61" x2="71" y2="53" stroke="white" stroke-width="2"/>
<path d="M71 54L64.7071 59.7071" stroke="white" stroke-width="2"/>
<defs>
<linearGradient id="paint0_linear_2_446" x1="40.0939" y1="27" x2="96.6866" y2="43.1816" gradientUnits="userSpaceOnUse">
<stop stop-color="#3F0F72"/>
<stop offset="1" stop-color="#791281"/>
</linearGradient>
</defs>
</svg>
