<svg width="37" height="37" viewBox="0 0 37 37" fill="none" xmlns="http://www.w3.org/2000/svg">
<mask id="path-1-inside-1_2_425" fill="white">
<path fill-rule="evenodd" clip-rule="evenodd" d="M15 0.999999C15 0.447715 15.4477 0 16 0H21C21.5523 0 22 0.447715 22 1V4.71488C22 5.16415 22.301 5.55449 22.7262 5.69969C23.3469 5.91168 23.9477 6.1691 24.525 6.46815C24.9311 6.67853 25.4309 6.61939 25.7543 6.29599L28.3996 3.65071C28.7901 3.26019 29.4233 3.26019 29.8138 3.65071L33.3493 7.18624C33.7399 7.57677 33.7399 8.20993 33.3493 8.60046L30.6471 11.3027C30.3276 11.6222 30.2654 12.1146 30.469 12.518C30.7547 13.0842 31.0041 13.6732 31.2141 14.2817C31.3596 14.7033 31.7483 15 32.1943 15H36C36.5523 15 37 15.4477 37 16V21C37 21.5523 36.5523 22 36 22H32.5007C32.0278 22 31.6233 22.3324 31.4998 22.7888C31.3072 23.5011 31.0616 24.1904 30.7677 24.8519C30.5921 25.2472 30.6633 25.7135 30.9692 26.0194L33.3492 28.3994C33.7397 28.7899 33.7397 29.4231 33.3492 29.8136L29.8137 33.3492C29.4231 33.7397 28.79 33.7397 28.3994 33.3492L26.3985 31.3482C26.0608 31.0105 25.5334 30.9623 25.1211 31.2034C24.365 31.6455 23.5637 32.0143 22.7262 32.3003C22.301 32.4455 22 32.8358 22 33.2851V36C22 36.5523 21.5523 37 21 37H16C15.4477 37 15 36.5523 15 36V33.2851C15 32.8358 14.699 32.4455 14.2738 32.3003C13.4363 32.0143 12.635 31.6455 11.879 31.2034C11.4667 30.9624 10.9393 31.0105 10.6016 31.3482L8.60059 33.3492C8.21007 33.7397 7.5769 33.7397 7.18638 33.3492L3.65085 29.8137C3.26032 29.4231 3.26032 28.79 3.65085 28.3994L6.03087 26.0194C6.3367 25.7136 6.40796 25.2472 6.23236 24.852C5.93846 24.1905 5.69284 23.5011 5.5002 22.7888C5.37675 22.3324 4.97217 22 4.49928 22H0.999999C0.447715 22 0 21.5523 0 21V16C0 15.4477 0.447715 15 1 15H4.80567C5.25172 15 5.64038 14.7033 5.78589 14.2817C5.99589 13.6732 6.24535 13.0842 6.53107 12.518C6.73463 12.1146 6.67243 11.6221 6.35294 11.3026L3.65071 8.60042C3.26019 8.20989 3.26019 7.57673 3.65071 7.1862L7.18624 3.65067C7.57677 3.26015 8.20993 3.26015 8.60046 3.65067L11.2457 6.29596C11.5691 6.61936 12.069 6.67851 12.4751 6.46813C13.0523 6.16909 13.6531 5.91168 14.2738 5.69969C14.699 5.55449 15 5.16415 15 4.71488V0.999999Z"/>
</mask>
<path d="M28.3996 3.65071L29.8138 5.06492L29.8138 5.06492L28.3996 3.65071ZM29.8138 3.65071L31.228 2.2365L31.228 2.23649L29.8138 3.65071ZM33.3493 7.18624L34.7635 5.77203L34.7635 5.77203L33.3493 7.18624ZM33.3493 8.60046L34.7635 10.0147L34.7635 10.0147L33.3493 8.60046ZM33.3492 29.8136L31.935 28.3994L31.935 28.3994L33.3492 29.8136ZM29.8137 33.3492L31.2279 34.7634L31.2279 34.7634L29.8137 33.3492ZM28.3994 33.3492L26.9852 34.7634L26.9852 34.7634L28.3994 33.3492ZM8.60059 33.3492L7.18638 31.935L7.18638 31.935L8.60059 33.3492ZM7.18638 33.3492L8.6006 31.935L8.60059 31.935L7.18638 33.3492ZM3.65085 29.8137L2.23663 31.2279L2.23663 31.2279L3.65085 29.8137ZM3.65085 28.3994L2.23663 26.9852L2.23663 26.9852L3.65085 28.3994ZM3.65071 8.60042L2.2365 10.0146L2.2365 10.0146L3.65071 8.60042ZM3.65071 7.1862L5.06492 8.60042L5.06492 8.60042L3.65071 7.1862ZM7.18624 3.65067L5.77203 2.23646L5.77203 2.23646L7.18624 3.65067ZM8.60046 3.65067L10.0147 2.23646L10.0147 2.23646L8.60046 3.65067ZM5.5002 22.7888L3.56956 23.311L5.5002 22.7888ZM11.879 31.2034L10.8694 32.9299L11.879 31.2034ZM10.6016 31.3482L9.18737 29.934L10.6016 31.3482ZM6.03087 26.0194L7.44508 27.4336L6.03087 26.0194ZM6.23236 24.852L8.06008 24.0399L6.23236 24.852ZM22.7262 32.3003L23.3726 34.193L22.7262 32.3003ZM25.7543 6.29599L24.3401 4.88177L25.7543 6.29599ZM14.2738 32.3003L13.6274 34.193L14.2738 32.3003ZM5.78589 14.2817L3.89532 13.6292L5.78589 14.2817ZM31.4998 22.7888L33.4304 23.311L31.4998 22.7888ZM26.3985 31.3482L27.8127 29.934L26.3985 31.3482ZM25.1211 31.2034L24.1115 29.4769L25.1211 31.2034ZM30.6471 11.3027L29.2329 9.88848L30.6471 11.3027ZM30.469 12.518L32.2545 11.617L30.469 12.518ZM22.7262 5.69969L22.0798 7.59236L22.7262 5.69969ZM16 -2C14.3431 -2 13 -0.656857 13 0.999999H17C17 1.55229 16.5523 2 16 2V-2ZM21 -2H16V2H21V-2ZM24 1C24 -0.656855 22.6569 -2 21 -2V2C20.4477 2 20 1.55229 20 1H24ZM24 4.71488V1H20V4.71488H24ZM22.0798 7.59236C22.6054 7.77186 23.1148 7.99006 23.605 8.244L25.4449 4.6923C24.7806 4.34814 24.0884 4.05151 23.3726 3.80703L22.0798 7.59236ZM26.9854 2.2365L24.3401 4.88177L27.1685 7.7102L29.8138 5.06492L26.9854 2.2365ZM31.228 2.23649C30.0564 1.06493 28.1569 1.06492 26.9854 2.2365L29.8138 5.06492C29.4233 5.45545 28.7901 5.45544 28.3996 5.06493L31.228 2.23649ZM34.7635 5.77203L31.228 2.2365L28.3996 5.06492L31.9351 8.60046L34.7635 5.77203ZM34.7635 10.0147C35.9351 8.84309 35.9351 6.94361 34.7635 5.77203L31.9351 8.60045C31.5446 8.20993 31.5446 7.57677 31.9351 7.18625L34.7635 10.0147ZM32.0613 12.7169L34.7635 10.0147L31.9351 7.18624L29.2329 9.88848L32.0613 12.7169ZM28.6834 13.419C28.9287 13.9052 29.143 14.4112 29.3235 14.9341L33.1047 13.6292C32.8652 12.9353 32.5806 12.2632 32.2545 11.617L28.6834 13.419ZM36 13H32.1943V17H36V13ZM39 16C39 14.3431 37.6569 13 36 13V17C35.4477 17 35 16.5523 35 16H39ZM39 21V16H35V21H39ZM36 24C37.6569 24 39 22.6569 39 21H35C35 20.4477 35.4477 20 36 20V24ZM32.5007 24H36V20H32.5007V24ZM29.5692 22.2667C29.4035 22.8793 29.1924 23.4717 28.9399 24.0399L32.5954 25.6639C32.9307 24.9092 33.2108 24.123 33.4304 23.311L29.5692 22.2667ZM34.7634 26.9852L32.3834 24.6052L29.5549 27.4336L31.935 29.8136L34.7634 26.9852ZM34.7634 31.2278C35.935 30.0563 35.935 28.1568 34.7634 26.9852L31.935 29.8136C31.5445 29.4231 31.5445 28.7899 31.935 28.3994L34.7634 31.2278ZM31.2279 34.7634L34.7634 31.2278L31.935 28.3994L28.3994 31.9349L31.2279 34.7634ZM26.9852 34.7634C28.1568 35.9349 30.0563 35.9349 31.2279 34.7634L28.3995 31.9349C28.79 31.5444 29.4231 31.5444 29.8137 31.9349L26.9852 34.7634ZM24.9843 32.7624L26.9852 34.7634L29.8137 31.9349L27.8127 29.934L24.9843 32.7624ZM24.1115 29.4769C23.4687 29.8528 22.7889 30.1654 22.0798 30.4076L23.3726 34.193C24.3385 33.8631 25.2613 33.4383 26.1307 32.9299L24.1115 29.4769ZM24 36V33.2851H20V36H24ZM21 39C22.6569 39 24 37.6569 24 36H20C20 35.4477 20.4477 35 21 35V39ZM16 39H21V35H16V39ZM13 36C13 37.6569 14.3431 39 16 39V35C16.5523 35 17 35.4477 17 36H13ZM13 33.2851V36H17V33.2851H13ZM14.9202 30.4076C14.2111 30.1655 13.5313 29.8528 12.8885 29.4769L10.8694 32.9299C11.7388 33.4383 12.6615 33.8631 13.6274 34.193L14.9202 30.4076ZM10.0148 34.7634L12.0158 32.7624L9.18737 29.934L7.18638 31.935L10.0148 34.7634ZM5.77216 34.7634C6.94374 35.935 8.84324 35.935 10.0148 34.7634L7.18638 31.935C7.5769 31.5445 8.21007 31.5445 8.6006 31.935L5.77216 34.7634ZM2.23663 31.2279L5.77217 34.7634L8.60059 31.935L5.06506 28.3994L2.23663 31.2279ZM2.23663 26.9852C1.06506 28.1568 1.06506 30.0563 2.23663 31.2279L5.06506 28.3995C5.45558 28.79 5.45558 29.4231 5.06506 29.8137L2.23663 26.9852ZM4.61666 24.6052L2.23663 26.9852L5.06506 29.8137L7.44508 27.4336L4.61666 24.6052ZM8.06008 24.0399C7.80764 23.4717 7.59652 22.8793 7.43084 22.2667L3.56956 23.311C3.78917 24.123 4.06927 24.9092 4.40463 25.664L8.06008 24.0399ZM0.999999 24H4.49928V20H0.999999V24ZM-2 21C-2 22.6569 -0.656857 24 0.999999 24V20C1.55229 20 2 20.4477 2 21H-2ZM-2 16V21H2V16H-2ZM1 13C-0.656854 13 -2 14.3431 -2 16H2C2 16.5523 1.55228 17 1 17V13ZM4.80567 13H1V17H4.80567V13ZM7.67647 14.9341C7.85697 14.4111 8.07128 13.9051 8.31662 13.419L4.74553 11.6169C4.41941 12.2632 4.13482 12.9352 3.89532 13.6292L7.67647 14.9341ZM2.2365 10.0146L4.93872 12.7169L7.76715 9.88843L5.06492 7.1862L2.2365 10.0146ZM2.2365 5.77199C1.06492 6.94356 1.06492 8.84306 2.2365 10.0146L5.06492 7.1862C5.45545 7.57673 5.45545 8.20989 5.06492 8.60042L2.2365 5.77199ZM5.77203 2.23646L2.2365 5.77199L5.06492 8.60042L8.60046 5.06488L5.77203 2.23646ZM10.0147 2.23646C8.8431 1.06488 6.9436 1.06488 5.77203 2.23646L8.60046 5.06488C8.20993 5.45541 7.57677 5.45541 7.18625 5.06488L10.0147 2.23646ZM12.66 4.88175L10.0147 2.23646L7.18624 5.06488L9.83153 7.71017L12.66 4.88175ZM13.3951 8.24398C13.8852 7.99005 14.3946 7.77186 14.9202 7.59236L13.6274 3.80703C12.9116 4.0515 12.2194 4.34812 11.5551 4.69228L13.3951 8.24398ZM13 0.999999V4.71488H17V0.999999H13ZM14.9202 7.59236C16.0898 7.19293 17 6.08649 17 4.71488H13C13 4.2418 13.3082 3.91605 13.6274 3.80703L14.9202 7.59236ZM8.31662 13.419C8.88034 12.3018 8.74142 10.8627 7.76715 9.88843L4.93872 12.7169C4.60344 12.3816 4.58891 11.9273 4.74553 11.6169L8.31662 13.419ZM7.43084 22.2667C7.08929 21.0038 5.94199 20 4.49928 20V24C4.00234 24 3.6642 23.6609 3.56956 23.311L7.43084 22.2667ZM12.8885 29.4769C11.7551 28.8142 10.2189 28.9025 9.18737 29.934L12.0158 32.7624C11.6597 33.1185 11.1783 33.1105 10.8694 32.9299L12.8885 29.4769ZM29.3235 14.9341C29.727 16.1033 30.8345 17 32.1943 17V13C32.6621 13 32.9922 13.3034 33.1047 13.6292L29.3235 14.9341ZM7.44508 27.4336C8.37717 26.5015 8.54738 25.1367 8.06008 24.0399L4.40463 25.664C4.26854 25.3577 4.29623 24.9256 4.61666 24.6052L7.44508 27.4336ZM9.83153 7.71017C10.8189 8.6975 12.2769 8.82325 13.3951 8.24398L11.5551 4.69228C11.8611 4.53376 12.3194 4.54122 12.66 4.88175L9.83153 7.71017ZM22.0798 30.4076C20.9103 30.8071 20 31.9135 20 33.2851H24C24 33.7582 23.6918 34.084 23.3726 34.193L22.0798 30.4076ZM23.605 8.244C24.7232 8.82328 26.1812 8.69754 27.1685 7.7102L24.3401 4.88177C24.6806 4.54125 25.139 4.53379 25.4449 4.6923L23.605 8.244ZM17 33.2851C17 31.9135 16.0897 30.8071 14.9202 30.4076L13.6274 34.193C13.3082 34.084 13 33.7582 13 33.2851H17ZM4.80567 17C6.16553 17 7.273 16.1033 7.67647 14.9341L3.89532 13.6292C4.00777 13.3034 4.3379 13 4.80567 13V17ZM28.9399 24.0399C28.4526 25.1367 28.6229 26.5015 29.5549 27.4336L32.3834 24.6052C32.7038 24.9256 32.7315 25.3577 32.5954 25.6639L28.9399 24.0399ZM32.5007 20C31.058 20 29.9107 21.0038 29.5692 22.2667L33.4304 23.311C33.3358 23.6609 32.9977 24 32.5007 24V20ZM27.8127 29.934C26.7812 28.9024 25.245 28.8141 24.1115 29.4769L26.1307 32.9299C25.8218 33.1105 25.3404 33.1185 24.9843 32.7624L27.8127 29.934ZM29.2329 9.88848C28.2586 10.8627 28.1197 12.3019 28.6834 13.419L32.2545 11.617C32.4111 11.9274 32.3966 12.3816 32.0613 12.7169L29.2329 9.88848ZM20 4.71488C20 6.08649 20.9102 7.19293 22.0798 7.59236L23.3726 3.80703C23.6918 3.91605 24 4.2418 24 4.71488H20Z" fill="white" mask="url(#path-1-inside-1_2_425)"/>
<circle cx="18.5" cy="18.5" r="6.5" stroke="white" stroke-width="2"/>
</svg>
