<svg width="270" height="120" viewBox="0 0 270 120" fill="none" xmlns="http://www.w3.org/2000/svg">
<rect width="270" height="120" rx="9" fill="white"/>
<path d="M116.195 50.29V55H114.275V44.5H116.195V48.7H120.875V44.5H122.795V55H120.875V50.29H116.195ZM126.534 49.735H124.824C124.804 48.975 125.084 48.345 125.664 47.845C126.244 47.335 127.124 47.08 128.304 47.08C128.884 47.08 129.389 47.15 129.819 47.29C130.249 47.42 130.574 47.58 130.794 47.77C131.014 47.95 131.184 48.175 131.304 48.445C131.434 48.715 131.514 48.95 131.544 49.15C131.574 49.34 131.589 49.55 131.589 49.78V52.825C131.589 53.225 131.624 53.485 131.694 53.605C131.764 53.725 131.949 53.775 132.249 53.755V55C131.939 55.03 131.674 55.045 131.454 55.045C130.584 55.045 130.089 54.715 129.969 54.055C129.379 54.805 128.534 55.18 127.434 55.18C126.934 55.18 126.499 55.12 126.129 55C125.759 54.89 125.479 54.755 125.289 54.595C125.109 54.435 124.964 54.245 124.854 54.025C124.754 53.795 124.689 53.605 124.659 53.455C124.639 53.305 124.629 53.145 124.629 52.975C124.629 52.605 124.699 52.28 124.839 52C124.989 51.71 125.169 51.49 125.379 51.34C125.599 51.19 125.789 51.08 125.949 51.01C126.109 50.93 126.254 50.875 126.384 50.845C126.554 50.795 126.734 50.755 126.924 50.725C127.114 50.695 127.329 50.665 127.569 50.635C127.809 50.605 128.004 50.58 128.154 50.56C128.234 50.54 128.354 50.525 128.514 50.515C128.684 50.495 128.809 50.475 128.889 50.455C129.099 50.425 129.239 50.405 129.309 50.395C129.379 50.385 129.464 50.355 129.564 50.305C129.664 50.245 129.724 50.165 129.744 50.065C129.774 49.955 129.789 49.81 129.789 49.63C129.789 48.75 129.294 48.31 128.304 48.31C127.684 48.31 127.229 48.45 126.939 48.73C126.649 49 126.514 49.335 126.534 49.735ZM129.789 51.61V51.34C129.609 51.47 129.179 51.575 128.499 51.655C128.179 51.695 127.944 51.73 127.794 51.76C127.654 51.78 127.479 51.82 127.269 51.88C127.069 51.94 126.924 52.01 126.834 52.09C126.744 52.17 126.664 52.28 126.594 52.42C126.524 52.56 126.489 52.725 126.489 52.915C126.489 53.225 126.584 53.475 126.774 53.665C126.974 53.855 127.274 53.95 127.674 53.95C127.934 53.95 128.174 53.92 128.394 53.86C128.614 53.8 128.834 53.69 129.054 53.53C129.284 53.37 129.464 53.13 129.594 52.81C129.724 52.48 129.789 52.08 129.789 51.61ZM139.091 52.21H140.801C140.771 52.46 140.721 52.71 140.651 52.96C140.581 53.21 140.456 53.48 140.276 53.77C140.106 54.06 139.896 54.315 139.646 54.535C139.396 54.755 139.056 54.935 138.626 55.075C138.206 55.225 137.731 55.3 137.201 55.3C135.941 55.3 134.986 54.93 134.336 54.19C133.696 53.45 133.376 52.455 133.376 51.205C133.376 50.465 133.476 49.825 133.676 49.285C133.886 48.745 134.126 48.34 134.396 48.07C134.676 47.79 135.011 47.57 135.401 47.41C135.791 47.25 136.111 47.155 136.361 47.125C136.611 47.095 136.871 47.08 137.141 47.08C138.241 47.08 139.096 47.355 139.706 47.905C140.326 48.445 140.681 49.115 140.771 49.915H139.061C139.021 49.475 138.846 49.1 138.536 48.79C138.226 48.47 137.796 48.31 137.246 48.31C135.946 48.31 135.296 49.275 135.296 51.205C135.296 51.765 135.361 52.245 135.491 52.645C135.621 53.045 135.791 53.345 136.001 53.545C136.221 53.735 136.441 53.87 136.661 53.95C136.881 54.03 137.111 54.07 137.351 54.07C137.941 54.07 138.371 53.88 138.641 53.5C138.911 53.11 139.061 52.68 139.091 52.21ZM144.15 48.61H141.54V47.38H148.56V48.61H145.95V55H144.15V48.61ZM149.837 47.38H151.487V48.13H151.517C152.077 47.43 152.897 47.08 153.977 47.08C154.437 47.08 154.872 47.155 155.282 47.305C155.702 47.455 156.092 47.685 156.452 47.995C156.822 48.305 157.112 48.73 157.322 49.27C157.542 49.81 157.652 50.435 157.652 51.145C157.652 51.505 157.622 51.86 157.562 52.21C157.512 52.55 157.402 52.915 157.232 53.305C157.072 53.685 156.862 54.02 156.602 54.31C156.352 54.59 156.002 54.825 155.552 55.015C155.112 55.205 154.607 55.3 154.037 55.3C153.917 55.3 153.787 55.29 153.647 55.27C153.507 55.26 153.292 55.225 153.002 55.165C152.722 55.115 152.457 55.01 152.207 54.85C151.967 54.68 151.777 54.47 151.637 54.22V57.775H149.837V47.38ZM151.502 51.205C151.502 52.085 151.677 52.785 152.027 53.305C152.377 53.815 152.877 54.07 153.527 54.07C153.767 54.07 153.997 54.035 154.217 53.965C154.437 53.895 154.667 53.77 154.907 53.59C155.157 53.41 155.357 53.12 155.507 52.72C155.657 52.31 155.732 51.82 155.732 51.25C155.732 50.24 155.527 49.5 155.117 49.03C154.717 48.55 154.212 48.31 153.602 48.31C153.372 48.31 153.147 48.35 152.927 48.43C152.717 48.5 152.497 48.63 152.267 48.82C152.037 49.01 151.852 49.31 151.712 49.72C151.572 50.13 151.502 50.625 151.502 51.205ZM161.218 47.38C161.698 47.18 162.248 47.08 162.868 47.08C163.488 47.08 164.038 47.18 164.518 47.38C164.998 47.57 165.378 47.81 165.658 48.1C165.938 48.39 166.168 48.73 166.348 49.12C166.528 49.51 166.648 49.87 166.708 50.2C166.768 50.53 166.798 50.86 166.798 51.19C166.798 51.52 166.768 51.85 166.708 52.18C166.648 52.51 166.528 52.87 166.348 53.26C166.168 53.65 165.938 53.99 165.658 54.28C165.378 54.57 164.998 54.81 164.518 55C164.038 55.2 163.488 55.3 162.868 55.3C162.248 55.3 161.698 55.2 161.218 55C160.738 54.81 160.358 54.57 160.078 54.28C159.798 53.99 159.568 53.655 159.388 53.275C159.208 52.885 159.088 52.525 159.028 52.195C158.968 51.855 158.938 51.52 158.938 51.19C158.938 50.86 158.968 50.53 159.028 50.2C159.088 49.87 159.208 49.51 159.388 49.12C159.568 48.73 159.798 48.39 160.078 48.1C160.358 47.81 160.738 47.57 161.218 47.38ZM163.468 48.4C163.278 48.34 163.078 48.31 162.868 48.31C162.658 48.31 162.458 48.34 162.268 48.4C162.078 48.46 161.863 48.58 161.623 48.76C161.393 48.94 161.208 49.24 161.068 49.66C160.928 50.07 160.858 50.58 160.858 51.19C160.858 51.8 160.928 52.315 161.068 52.735C161.208 53.145 161.393 53.44 161.623 53.62C161.863 53.8 162.078 53.92 162.268 53.98C162.458 54.04 162.658 54.07 162.868 54.07C163.078 54.07 163.278 54.04 163.468 53.98C163.658 53.92 163.868 53.8 164.098 53.62C164.338 53.44 164.528 53.145 164.668 52.735C164.808 52.315 164.878 51.8 164.878 51.19C164.878 50.58 164.808 50.07 164.668 49.66C164.528 49.24 164.338 48.94 164.098 48.76C163.868 48.58 163.658 48.46 163.468 48.4ZM170.328 52.87L173.898 47.38H175.878V55H174.078V49.51L170.508 55H168.528V47.38H170.328V52.87ZM179.76 48.61H177.15V47.38H184.17V48.61H181.56V55H179.76V48.61ZM185.447 47.38H187.247V50.32H189.002C189.262 50.32 189.482 50.325 189.662 50.335C189.852 50.345 190.082 50.375 190.352 50.425C190.632 50.465 190.862 50.54 191.042 50.65C191.232 50.75 191.417 50.885 191.597 51.055C191.787 51.215 191.927 51.435 192.017 51.715C192.117 51.985 192.167 52.305 192.167 52.675C192.167 54.225 191.252 55 189.422 55H185.447V47.38ZM187.247 51.55V53.77H188.987C189.377 53.77 189.692 53.68 189.932 53.5C190.182 53.31 190.307 53.02 190.307 52.63C190.307 51.91 189.867 51.55 188.987 51.55H187.247ZM115.88 74.87L119.45 69.38H121.43V77H119.63V71.51L116.06 77H114.08V69.38H115.88V74.87ZM125.387 73.61V77H123.587V69.38H125.387V72.38H128.687V69.38H130.487V77H128.687V73.61H125.387ZM134.365 70.61H131.755V69.38H138.775V70.61H136.165V77H134.365V70.61ZM145.114 74.795H146.824C146.764 75.085 146.669 75.36 146.539 75.62C146.419 75.87 146.229 76.135 145.969 76.415C145.719 76.685 145.354 76.9 144.874 77.06C144.394 77.22 143.834 77.3 143.194 77.3C142.954 77.3 142.714 77.285 142.474 77.255C142.244 77.235 141.924 77.15 141.514 77C141.104 76.85 140.749 76.65 140.449 76.4C140.159 76.14 139.899 75.745 139.669 75.215C139.439 74.675 139.324 74.045 139.324 73.325C139.324 71.995 139.649 70.955 140.299 70.205C140.959 69.455 141.929 69.08 143.209 69.08C145.579 69.08 146.819 70.46 146.929 73.22C146.929 73.28 146.929 73.355 146.929 73.445C146.939 73.535 146.944 73.605 146.944 73.655H141.244C141.244 73.925 141.279 74.19 141.349 74.45C141.419 74.71 141.529 74.97 141.679 75.23C141.829 75.48 142.049 75.685 142.339 75.845C142.629 75.995 142.964 76.07 143.344 76.07C143.774 76.07 144.159 75.96 144.499 75.74C144.849 75.51 145.054 75.195 145.114 74.795ZM141.244 72.425H145.039C145.039 72.215 145.014 72.005 144.964 71.795C144.924 71.585 144.844 71.36 144.724 71.12C144.604 70.88 144.414 70.685 144.154 70.535C143.904 70.385 143.594 70.31 143.224 70.31C142.574 70.31 142.074 70.525 141.724 70.955C141.384 71.385 141.224 71.875 141.244 72.425ZM150.465 70.61V77H148.665V69.38H154.215V70.61H150.465ZM155.476 69.38H157.126V70.13H157.156C157.716 69.43 158.536 69.08 159.616 69.08C160.076 69.08 160.511 69.155 160.921 69.305C161.341 69.455 161.731 69.685 162.091 69.995C162.461 70.305 162.751 70.73 162.961 71.27C163.181 71.81 163.291 72.435 163.291 73.145C163.291 73.505 163.261 73.86 163.201 74.21C163.151 74.55 163.041 74.915 162.871 75.305C162.711 75.685 162.501 76.02 162.241 76.31C161.991 76.59 161.641 76.825 161.191 77.015C160.751 77.205 160.246 77.3 159.676 77.3C159.556 77.3 159.426 77.29 159.286 77.27C159.146 77.26 158.931 77.225 158.641 77.165C158.361 77.115 158.096 77.01 157.846 76.85C157.606 76.68 157.416 76.47 157.276 76.22V79.775H155.476V69.38ZM157.141 73.205C157.141 74.085 157.316 74.785 157.666 75.305C158.016 75.815 158.516 76.07 159.166 76.07C159.406 76.07 159.636 76.035 159.856 75.965C160.076 75.895 160.306 75.77 160.546 75.59C160.796 75.41 160.996 75.12 161.146 74.72C161.296 74.31 161.371 73.82 161.371 73.25C161.371 72.24 161.166 71.5 160.756 71.03C160.356 70.55 159.851 70.31 159.241 70.31C159.011 70.31 158.786 70.35 158.566 70.43C158.356 70.5 158.136 70.63 157.906 70.82C157.676 71.01 157.491 71.31 157.351 71.72C157.211 72.13 157.141 72.625 157.141 73.205ZM166.393 71.735H164.683C164.663 70.975 164.943 70.345 165.523 69.845C166.103 69.335 166.983 69.08 168.163 69.08C168.743 69.08 169.248 69.15 169.678 69.29C170.108 69.42 170.433 69.58 170.653 69.77C170.873 69.95 171.043 70.175 171.163 70.445C171.293 70.715 171.373 70.95 171.403 71.15C171.433 71.34 171.448 71.55 171.448 71.78V74.825C171.448 75.225 171.483 75.485 171.553 75.605C171.623 75.725 171.808 75.775 172.108 75.755V77C171.798 77.03 171.533 77.045 171.313 77.045C170.443 77.045 169.948 76.715 169.828 76.055C169.238 76.805 168.393 77.18 167.293 77.18C166.793 77.18 166.358 77.12 165.988 77C165.618 76.89 165.338 76.755 165.148 76.595C164.968 76.435 164.823 76.245 164.713 76.025C164.613 75.795 164.548 75.605 164.518 75.455C164.498 75.305 164.488 75.145 164.488 74.975C164.488 74.605 164.558 74.28 164.698 74C164.848 73.71 165.028 73.49 165.238 73.34C165.458 73.19 165.648 73.08 165.808 73.01C165.968 72.93 166.113 72.875 166.243 72.845C166.413 72.795 166.593 72.755 166.783 72.725C166.973 72.695 167.188 72.665 167.428 72.635C167.668 72.605 167.863 72.58 168.013 72.56C168.093 72.54 168.213 72.525 168.373 72.515C168.543 72.495 168.668 72.475 168.748 72.455C168.958 72.425 169.098 72.405 169.168 72.395C169.238 72.385 169.323 72.355 169.423 72.305C169.523 72.245 169.583 72.165 169.603 72.065C169.633 71.955 169.648 71.81 169.648 71.63C169.648 70.75 169.153 70.31 168.163 70.31C167.543 70.31 167.088 70.45 166.798 70.73C166.508 71 166.373 71.335 166.393 71.735ZM169.648 73.61V73.34C169.468 73.47 169.038 73.575 168.358 73.655C168.038 73.695 167.803 73.73 167.653 73.76C167.513 73.78 167.338 73.82 167.128 73.88C166.928 73.94 166.783 74.01 166.693 74.09C166.603 74.17 166.523 74.28 166.453 74.42C166.383 74.56 166.348 74.725 166.348 74.915C166.348 75.225 166.443 75.475 166.633 75.665C166.833 75.855 167.133 75.95 167.533 75.95C167.793 75.95 168.033 75.92 168.253 75.86C168.473 75.8 168.693 75.69 168.913 75.53C169.143 75.37 169.323 75.13 169.453 74.81C169.583 74.48 169.648 74.08 169.648 73.61ZM175.47 75.77H178.89V69.38H180.69V75.77H182.01L181.86 78.98H180.36V77H173.67V69.38H175.47V75.77ZM184.947 74.87L188.517 69.38H190.497V77H188.697V71.51L185.127 77H183.147V69.38H184.947V74.87ZM194.454 72.365H195.579C195.639 71.445 196.014 70.67 196.704 70.04C197.394 69.4 198.299 69.08 199.419 69.08C200.039 69.08 200.589 69.18 201.069 69.38C201.549 69.57 201.929 69.81 202.209 70.1C202.489 70.39 202.719 70.73 202.899 71.12C203.079 71.51 203.199 71.87 203.259 72.2C203.319 72.53 203.349 72.86 203.349 73.19C203.349 73.52 203.319 73.85 203.259 74.18C203.199 74.51 203.079 74.87 202.899 75.26C202.719 75.65 202.489 75.99 202.209 76.28C201.929 76.57 201.549 76.81 201.069 77C200.589 77.2 200.039 77.3 199.419 77.3C198.169 77.3 197.214 76.935 196.554 76.205C195.904 75.465 195.564 74.595 195.534 73.595H194.454V77H192.654V69.38H194.454V72.365ZM197.619 71.66C197.479 72.07 197.409 72.58 197.409 73.19C197.409 73.8 197.479 74.315 197.619 74.735C197.759 75.145 197.944 75.44 198.174 75.62C198.414 75.8 198.629 75.92 198.819 75.98C199.009 76.04 199.209 76.07 199.419 76.07C199.629 76.07 199.829 76.04 200.019 75.98C200.209 75.92 200.419 75.8 200.649 75.62C200.889 75.44 201.079 75.145 201.219 74.735C201.359 74.315 201.429 73.8 201.429 73.19C201.429 72.58 201.359 72.07 201.219 71.66C201.079 71.24 200.889 70.94 200.649 70.76C200.419 70.58 200.209 70.46 200.019 70.4C199.829 70.34 199.629 70.31 199.419 70.31C199.209 70.31 199.009 70.34 198.819 70.4C198.629 70.46 198.414 70.58 198.174 70.76C197.944 70.94 197.759 71.24 197.619 71.66Z" fill="#333333"/>
<rect x="30" y="27" width="66" height="66" rx="33" fill="url(#paint0_linear_2_457)"/>
<path d="M83.0095 56.9752C81.7632 56.2004 80.2368 56.1315 78.9267 56.7907L78.2219 57.1454V50.3355C78.2219 49.7493 77.7486 49.274 77.1661 49.274C74.5298 49.274 72.3169 51.1268 71.7412 53.606L66.0513 47.8794C65.6397 47.465 64.9717 47.4644 64.5592 47.8799C64.3911 48.0492 64.2344 48.2269 64.0896 48.4122C63.8549 48.0257 63.5739 47.6639 63.2495 47.334C62.8455 46.9017 62.1597 46.8839 61.7356 47.3108L54.7631 54.3284C52.754 56.3504 51.5476 58.9652 51.3049 61.7809H50.0547C49.4722 61.7809 49 62.2562 49 62.8425V71.9385C49 72.5247 49.4722 73 50.0547 73H61.3516C61.5153 73 61.6768 72.9616 61.8232 72.888L84.417 61.5179C84.7743 61.3381 85 60.9705 85 60.5684C85 59.0947 84.2561 57.7515 83.0095 56.9752ZM63.2269 55.6336C63.3952 55.4643 63.5519 55.2865 63.6967 55.1012C63.9368 55.4966 64.2253 55.8659 64.5591 56.2019L67.075 58.7342V62.1238L62.9906 63.7682L60.7636 59.2859C60.5314 58.8185 60.622 58.256 60.9891 57.8865C61.6134 57.2582 62.4206 56.4457 63.2269 55.6336ZM71.5937 65.5975L61.1025 70.877H51.1094V63.904H52.314C52.8965 63.904 53.3687 63.4288 53.3687 62.8425V62.842C53.3687 60.193 54.3936 57.7027 56.2546 55.8296L62.3751 49.6696C62.6725 50.216 62.8305 50.8321 62.8305 51.4725C62.8305 52.4773 62.4416 53.4218 61.7352 54.1326C60.9287 54.945 60.1216 55.7572 59.4976 56.3854C58.4874 57.402 58.238 58.9493 58.8769 60.2355L61.538 65.5914C61.7834 66.0851 62.3637 66.3072 62.873 66.1022L68.5214 63.8282C68.9219 63.667 69.1844 63.2767 69.1844 62.8426V58.2946C69.1844 58.013 69.0732 57.7431 68.8754 57.5439L66.0506 54.7008C65.3447 53.9903 64.9559 53.0457 64.9559 52.041C64.9559 51.4005 65.1139 50.7844 65.4114 50.2379L71.5938 56.4603V65.5975H71.5937ZM76.1125 58.8948C76.1125 60.9963 75.2202 62.9344 73.7031 64.273V54.8823C73.7031 53.3303 74.7164 52.012 76.1125 51.562V58.8948ZM77.4295 62.6607C77.8655 61.6717 78.1267 60.6128 78.2003 59.5299L79.8699 58.6897C80.5217 58.3617 81.281 58.396 81.9003 58.7811C82.342 59.0562 82.657 59.4744 82.8015 59.9573L77.4295 62.6607Z" fill="white"/>
<defs>
<linearGradient id="paint0_linear_2_457" x1="41.0939" y1="27" x2="97.6866" y2="43.1816" gradientUnits="userSpaceOnUse">
<stop stop-color="#3F0F72"/>
<stop offset="1" stop-color="#791281"/>
</linearGradient>
</defs>
</svg>
