<svg width="270" height="120" viewBox="0 0 270 120" fill="none" xmlns="http://www.w3.org/2000/svg">
<rect width="270" height="120" rx="9" fill="white"/>
<path d="M115.195 52.18L120.19 44.5H122.065V55H120.145V47.32L115.15 55H113.275V44.5H115.195V52.18ZM129.698 52.21H131.408C131.378 52.46 131.328 52.71 131.258 52.96C131.188 53.21 131.063 53.48 130.883 53.77C130.713 54.06 130.503 54.315 130.253 54.535C130.003 54.755 129.663 54.935 129.233 55.075C128.813 55.225 128.338 55.3 127.808 55.3C126.548 55.3 125.593 54.93 124.943 54.19C124.303 53.45 123.983 52.455 123.983 51.205C123.983 50.465 124.083 49.825 124.283 49.285C124.493 48.745 124.733 48.34 125.003 48.07C125.283 47.79 125.618 47.57 126.008 47.41C126.398 47.25 126.718 47.155 126.968 47.125C127.218 47.095 127.478 47.08 127.748 47.08C128.848 47.08 129.703 47.355 130.313 47.905C130.933 48.445 131.288 49.115 131.378 49.915H129.668C129.628 49.475 129.453 49.1 129.143 48.79C128.833 48.47 128.403 48.31 127.853 48.31C126.553 48.31 125.903 49.275 125.903 51.205C125.903 51.765 125.968 52.245 126.098 52.645C126.228 53.045 126.398 53.345 126.608 53.545C126.828 53.735 127.048 53.87 127.268 53.95C127.488 54.03 127.718 54.07 127.958 54.07C128.548 54.07 128.978 53.88 129.248 53.5C129.518 53.11 129.668 52.68 129.698 52.21ZM134.831 48.61V55H133.031V47.38H140.051V55H138.251V48.61H134.831ZM142.216 47.38H143.866V48.13H143.896C144.456 47.43 145.276 47.08 146.356 47.08C146.816 47.08 147.251 47.155 147.661 47.305C148.081 47.455 148.471 47.685 148.831 47.995C149.201 48.305 149.491 48.73 149.701 49.27C149.921 49.81 150.031 50.435 150.031 51.145C150.031 51.505 150.001 51.86 149.941 52.21C149.891 52.55 149.781 52.915 149.611 53.305C149.451 53.685 149.241 54.02 148.981 54.31C148.731 54.59 148.381 54.825 147.931 55.015C147.491 55.205 146.986 55.3 146.416 55.3C146.296 55.3 146.166 55.29 146.026 55.27C145.886 55.26 145.671 55.225 145.381 55.165C145.101 55.115 144.836 55.01 144.586 54.85C144.346 54.68 144.156 54.47 144.016 54.22V57.775H142.216V47.38ZM143.881 51.205C143.881 52.085 144.056 52.785 144.406 53.305C144.756 53.815 145.256 54.07 145.906 54.07C146.146 54.07 146.376 54.035 146.596 53.965C146.816 53.895 147.046 53.77 147.286 53.59C147.536 53.41 147.736 53.12 147.886 52.72C148.036 52.31 148.111 51.82 148.111 51.25C148.111 50.24 147.906 49.5 147.496 49.03C147.096 48.55 146.591 48.31 145.981 48.31C145.751 48.31 145.526 48.35 145.306 48.43C145.096 48.5 144.876 48.63 144.646 48.82C144.416 49.01 144.231 49.31 144.091 49.72C143.951 50.13 143.881 50.625 143.881 51.205ZM153.132 49.735H151.422C151.402 48.975 151.682 48.345 152.262 47.845C152.842 47.335 153.722 47.08 154.902 47.08C155.482 47.08 155.987 47.15 156.417 47.29C156.847 47.42 157.172 47.58 157.392 47.77C157.612 47.95 157.782 48.175 157.902 48.445C158.032 48.715 158.112 48.95 158.142 49.15C158.172 49.34 158.187 49.55 158.187 49.78V52.825C158.187 53.225 158.222 53.485 158.292 53.605C158.362 53.725 158.547 53.775 158.847 53.755V55C158.537 55.03 158.272 55.045 158.052 55.045C157.182 55.045 156.687 54.715 156.567 54.055C155.977 54.805 155.132 55.18 154.032 55.18C153.532 55.18 153.097 55.12 152.727 55C152.357 54.89 152.077 54.755 151.887 54.595C151.707 54.435 151.562 54.245 151.452 54.025C151.352 53.795 151.287 53.605 151.257 53.455C151.237 53.305 151.227 53.145 151.227 52.975C151.227 52.605 151.297 52.28 151.437 52C151.587 51.71 151.767 51.49 151.977 51.34C152.197 51.19 152.387 51.08 152.547 51.01C152.707 50.93 152.852 50.875 152.982 50.845C153.152 50.795 153.332 50.755 153.522 50.725C153.712 50.695 153.927 50.665 154.167 50.635C154.407 50.605 154.602 50.58 154.752 50.56C154.832 50.54 154.952 50.525 155.112 50.515C155.282 50.495 155.407 50.475 155.487 50.455C155.697 50.425 155.837 50.405 155.907 50.395C155.977 50.385 156.062 50.355 156.162 50.305C156.262 50.245 156.322 50.165 156.342 50.065C156.372 49.955 156.387 49.81 156.387 49.63C156.387 48.75 155.892 48.31 154.902 48.31C154.282 48.31 153.827 48.45 153.537 48.73C153.247 49 153.112 49.335 153.132 49.735ZM156.387 51.61V51.34C156.207 51.47 155.777 51.575 155.097 51.655C154.777 51.695 154.542 51.73 154.392 51.76C154.252 51.78 154.077 51.82 153.867 51.88C153.667 51.94 153.522 52.01 153.432 52.09C153.342 52.17 153.262 52.28 153.192 52.42C153.122 52.56 153.087 52.725 153.087 52.915C153.087 53.225 153.182 53.475 153.372 53.665C153.572 53.855 153.872 53.95 154.272 53.95C154.532 53.95 154.772 53.92 154.992 53.86C155.212 53.8 155.432 53.69 155.652 53.53C155.882 53.37 156.062 53.13 156.192 52.81C156.322 52.48 156.387 52.08 156.387 51.61ZM160.409 47.38H164.519C166.169 47.38 166.994 47.995 166.994 49.225C166.994 49.745 166.844 50.155 166.544 50.455C166.244 50.745 165.904 50.925 165.524 50.995V51.025C166.684 51.275 167.264 51.93 167.264 52.99C167.264 53.71 167.004 54.225 166.484 54.535C165.964 54.845 165.299 55 164.489 55H160.409V47.38ZM162.209 48.61V50.44H163.754C164.264 50.44 164.624 50.345 164.834 50.155C165.044 49.965 165.149 49.74 165.149 49.48C165.149 48.9 164.749 48.61 163.949 48.61H162.209ZM162.209 51.67V53.77H163.919C164.909 53.77 165.404 53.435 165.404 52.765C165.404 52.035 164.889 51.67 163.859 51.67H162.209ZM170.822 52.87L174.392 47.38H176.372V55H174.572V49.51L171.002 55H169.022V47.38H170.822V52.87ZM180.254 48.61H177.644V47.38H184.664V48.61H182.054V55H180.254V48.61ZM185.941 47.38H187.741V50.32H189.496C189.756 50.32 189.976 50.325 190.156 50.335C190.346 50.345 190.576 50.375 190.846 50.425C191.126 50.465 191.356 50.54 191.536 50.65C191.726 50.75 191.911 50.885 192.091 51.055C192.281 51.215 192.421 51.435 192.511 51.715C192.611 51.985 192.661 52.305 192.661 52.675C192.661 54.225 191.746 55 189.916 55H185.941V47.38ZM187.741 51.55V53.77H189.481C189.871 53.77 190.186 53.68 190.426 53.5C190.676 53.31 190.801 53.02 190.801 52.63C190.801 51.91 190.361 51.55 189.481 51.55H187.741ZM114.925 69.38C115.405 69.18 115.955 69.08 116.575 69.08C117.195 69.08 117.745 69.18 118.225 69.38C118.705 69.57 119.085 69.81 119.365 70.1C119.645 70.39 119.875 70.73 120.055 71.12C120.235 71.51 120.355 71.87 120.415 72.2C120.475 72.53 120.505 72.86 120.505 73.19C120.505 73.52 120.475 73.85 120.415 74.18C120.355 74.51 120.235 74.87 120.055 75.26C119.875 75.65 119.645 75.99 119.365 76.28C119.085 76.57 118.705 76.81 118.225 77C117.745 77.2 117.195 77.3 116.575 77.3C115.955 77.3 115.405 77.2 114.925 77C114.445 76.81 114.065 76.57 113.785 76.28C113.505 75.99 113.275 75.655 113.095 75.275C112.915 74.885 112.795 74.525 112.735 74.195C112.675 73.855 112.645 73.52 112.645 73.19C112.645 72.86 112.675 72.53 112.735 72.2C112.795 71.87 112.915 71.51 113.095 71.12C113.275 70.73 113.505 70.39 113.785 70.1C114.065 69.81 114.445 69.57 114.925 69.38ZM117.175 70.4C116.985 70.34 116.785 70.31 116.575 70.31C116.365 70.31 116.165 70.34 115.975 70.4C115.785 70.46 115.57 70.58 115.33 70.76C115.1 70.94 114.915 71.24 114.775 71.66C114.635 72.07 114.565 72.58 114.565 73.19C114.565 73.8 114.635 74.315 114.775 74.735C114.915 75.145 115.1 75.44 115.33 75.62C115.57 75.8 115.785 75.92 115.975 75.98C116.165 76.04 116.365 76.07 116.575 76.07C116.785 76.07 116.985 76.04 117.175 75.98C117.365 75.92 117.575 75.8 117.805 75.62C118.045 75.44 118.235 75.145 118.375 74.735C118.515 74.315 118.585 73.8 118.585 73.19C118.585 72.58 118.515 72.07 118.375 71.66C118.235 71.24 118.045 70.94 117.805 70.76C117.575 70.58 117.365 70.46 117.175 70.4ZM124.035 75.77H126.885V69.38H128.685V75.77H131.535V69.38H133.335V77H122.235V69.38H124.035V75.77ZM137.292 74.87L140.862 69.38H142.842V77H141.042V71.51L137.472 77H135.492V69.38H137.292V74.87ZM150.579 65.915H152.049C152.029 66.245 151.954 66.535 151.824 66.785C151.704 67.025 151.569 67.215 151.419 67.355C151.269 67.485 151.059 67.595 150.789 67.685C150.529 67.775 150.304 67.835 150.114 67.865C149.934 67.895 149.694 67.925 149.394 67.955C149.124 67.985 148.909 68.015 148.749 68.045C148.589 68.065 148.369 68.11 148.089 68.18C147.819 68.25 147.594 68.33 147.414 68.42C147.244 68.51 147.054 68.64 146.844 68.81C146.634 68.97 146.469 69.16 146.349 69.38C146.239 69.59 146.144 69.855 146.064 70.175C145.994 70.495 145.969 70.85 145.989 71.24H146.019C146.249 70.6 146.649 70.1 147.219 69.74C147.789 69.38 148.419 69.2 149.109 69.2C150.169 69.2 151.044 69.565 151.734 70.295C152.434 71.015 152.784 72 152.784 73.25C152.784 73.78 152.704 74.28 152.544 74.75C152.394 75.22 152.164 75.65 151.854 76.04C151.544 76.42 151.124 76.725 150.594 76.955C150.064 77.185 149.459 77.3 148.779 77.3C148.239 77.3 147.749 77.23 147.309 77.09C146.879 76.95 146.524 76.78 146.244 76.58C145.974 76.37 145.739 76.11 145.539 75.8C145.339 75.49 145.189 75.205 145.089 74.945C144.999 74.685 144.929 74.39 144.879 74.06C144.829 73.73 144.799 73.485 144.789 73.325C144.779 73.155 144.774 72.97 144.774 72.77C144.774 70.93 144.964 69.535 145.344 68.585C145.654 67.865 146.114 67.355 146.724 67.055C147.344 66.755 148.269 66.54 149.499 66.41C149.869 66.38 150.129 66.335 150.279 66.275C150.429 66.205 150.529 66.085 150.579 65.915ZM146.904 71.75C146.764 72.15 146.694 72.65 146.694 73.25C146.694 73.85 146.764 74.355 146.904 74.765C147.054 75.165 147.249 75.455 147.489 75.635C147.739 75.805 147.959 75.92 148.149 75.98C148.349 76.04 148.559 76.07 148.779 76.07C148.999 76.07 149.204 76.04 149.394 75.98C149.594 75.92 149.814 75.805 150.054 75.635C150.304 75.455 150.499 75.165 150.639 74.765C150.789 74.355 150.864 73.85 150.864 73.25C150.864 72.65 150.789 72.15 150.639 71.75C150.499 71.34 150.304 71.05 150.054 70.88C149.814 70.7 149.594 70.58 149.394 70.52C149.204 70.46 148.999 70.43 148.779 70.43C148.559 70.43 148.349 70.46 148.149 70.52C147.959 70.58 147.739 70.7 147.489 70.88C147.249 71.05 147.054 71.34 146.904 71.75ZM156.306 72.56L159.201 69.38H161.271L157.881 72.935L161.436 77H159.366L156.306 73.31V77H154.506V69.38H156.306V72.56ZM164.26 74.87L167.83 69.38H169.81V77H168.01V71.51L164.44 77H162.46V69.38H164.26V74.87Z" fill="#333333"/>
<rect x="29" y="27" width="66" height="66" rx="33" fill="url(#paint0_linear_2_380)"/>
<mask id="path-4-inside-1_2_380" fill="white">
<path d="M49 47C49 45.8954 49.8954 45 51 45H73C74.1046 45 75 45.8954 75 47V66.2146C75 67.3192 74.1046 68.2146 73 68.2146H67.469C66.2567 68.2146 65.1489 68.944 64.8663 70.1229C64.4847 71.7146 64.2621 73.9021 65.4667 75.0546C67.5 77 67.4712 80.0351 65.4667 81.8946C63.5229 83.6978 60.4771 83.6978 58.5333 81.8946C56.5288 80.0351 56.5 77 58.5333 75.0546C59.7379 73.9021 59.5153 71.7146 59.1337 70.1229C58.8511 68.944 57.7433 68.2146 56.531 68.2146H51C49.8954 68.2146 49 67.3192 49 66.2146V47Z"/>
</mask>
<path d="M58.5333 81.8946L59.8935 80.4284L58.5333 81.8946ZM65.4667 81.8946L64.1065 80.4284L65.4667 81.8946ZM51 47H73V43H51V47ZM73 47V66.2146H77V47H73ZM51 66.2146V47H47V66.2146H51ZM56.531 66.2146H51V70.2146H56.531V66.2146ZM73 66.2146H67.469V70.2146H73V66.2146ZM64.1065 80.4284C62.9298 81.5199 61.0702 81.5199 59.8935 80.4284L57.1732 83.3609C59.8841 85.8757 64.1159 85.8757 66.8268 83.3609L64.1065 80.4284ZM59.8935 80.4284C58.7467 79.3645 58.7011 77.662 59.916 76.4997L57.1507 73.6095C54.2989 76.338 54.3108 80.7056 57.1732 83.3609L59.8935 80.4284ZM59.916 76.4997C61.0374 75.4268 61.365 74.0006 61.4255 72.8594C61.4871 71.6988 61.2913 70.5438 61.0786 69.6566L57.1888 70.5891C57.3577 71.2937 57.464 72.0283 57.4311 72.6475C57.3972 73.2861 57.2339 73.5299 57.1507 73.6095L59.916 76.4997ZM62.9214 69.6566C62.7087 70.5438 62.5129 71.6988 62.5745 72.8594C62.635 74.0006 62.9626 75.4268 64.0841 76.4997L66.8493 73.6095C66.7661 73.5299 66.6028 73.2861 66.5689 72.6475C66.536 72.0283 66.6423 71.2937 66.8112 70.5891L62.9214 69.6566ZM64.0841 76.4997C65.2989 77.662 65.2533 79.3645 64.1065 80.4284L66.8268 83.3609C69.6892 80.7056 69.7011 76.338 66.8493 73.6095L64.0841 76.4997ZM67.469 66.2146C65.506 66.2146 63.4578 67.4192 62.9214 69.6566L66.8112 70.5891C66.8315 70.5046 66.8781 70.4277 66.9778 70.3567C67.0871 70.2791 67.258 70.2146 67.469 70.2146V66.2146ZM56.531 70.2146C56.742 70.2146 56.9129 70.2791 57.0222 70.3567C57.1219 70.4277 57.1685 70.5046 57.1888 70.5891L61.0786 69.6566C60.5422 67.4192 58.494 66.2146 56.531 66.2146V70.2146ZM47 66.2146C47 68.4237 48.7909 70.2146 51 70.2146V66.2146H51H47ZM73 66.2146V70.2146C75.2091 70.2146 77 68.4237 77 66.2146H73ZM73 47V47H77C77 44.7909 75.2091 43 73 43V47ZM51 43C48.7909 43 47 44.7909 47 47H51V47V43Z" fill="white" mask="url(#path-4-inside-1_2_380)"/>
<line x1="49" y1="62.24" x2="75" y2="62.24" stroke="white" stroke-width="2"/>
<line x1="49" y1="57.0945" x2="75" y2="57.0945" stroke="white" stroke-width="2"/>
<defs>
<linearGradient id="paint0_linear_2_380" x1="40.0939" y1="27" x2="96.6866" y2="43.1816" gradientUnits="userSpaceOnUse">
<stop stop-color="#3F0F72"/>
<stop offset="1" stop-color="#791281"/>
</linearGradient>
</defs>
</svg>
