<svg width="270" height="120" viewBox="0 0 270 120" fill="none" xmlns="http://www.w3.org/2000/svg">
<rect width="270" height="120" rx="9" fill="white"/>
<path d="M117.235 44.215C117.425 44.195 117.62 44.185 117.82 44.185C118.02 44.185 118.21 44.195 118.39 44.215C118.58 44.225 118.86 44.27 119.23 44.35C119.6 44.42 119.935 44.525 120.235 44.665C120.535 44.795 120.86 45 121.21 45.28C121.57 45.56 121.87 45.89 122.11 46.27C122.35 46.64 122.55 47.13 122.71 47.74C122.88 48.34 122.965 49.01 122.965 49.75C122.965 50.49 122.88 51.165 122.71 51.775C122.55 52.375 122.35 52.865 122.11 53.245C121.87 53.615 121.57 53.94 121.21 54.22C120.86 54.5 120.535 54.71 120.235 54.85C119.935 54.98 119.6 55.08 119.23 55.15C118.86 55.23 118.58 55.275 118.39 55.285C118.21 55.305 118.02 55.315 117.82 55.315C117.62 55.315 117.425 55.305 117.235 55.285C117.055 55.275 116.78 55.23 116.41 55.15C116.04 55.08 115.705 54.98 115.405 54.85C115.105 54.71 114.775 54.5 114.415 54.22C114.065 53.94 113.77 53.615 113.53 53.245C113.29 52.865 113.085 52.375 112.915 51.775C112.755 51.165 112.675 50.49 112.675 49.75C112.675 49.01 112.755 48.34 112.915 47.74C113.085 47.13 113.29 46.64 113.53 46.27C113.77 45.89 114.065 45.56 114.415 45.28C114.775 45 115.105 44.795 115.405 44.665C115.705 44.525 116.04 44.42 116.41 44.35C116.78 44.27 117.055 44.225 117.235 44.215ZM119.38 46.165C118.95 45.905 118.43 45.775 117.82 45.775C117.21 45.775 116.69 45.905 116.26 46.165C115.83 46.415 115.51 46.75 115.3 47.17C115.09 47.59 114.94 48.01 114.85 48.43C114.77 48.85 114.73 49.29 114.73 49.75C114.73 50.21 114.77 50.65 114.85 51.07C114.94 51.49 115.09 51.91 115.3 52.33C115.51 52.75 115.83 53.09 116.26 53.35C116.69 53.6 117.21 53.725 117.82 53.725C118.43 53.725 118.95 53.6 119.38 53.35C119.81 53.09 120.13 52.75 120.34 52.33C120.55 51.91 120.695 51.49 120.775 51.07C120.865 50.65 120.91 50.21 120.91 49.75C120.91 49.29 120.865 48.85 120.775 48.43C120.695 48.01 120.55 47.59 120.34 47.17C120.13 46.75 119.81 46.415 119.38 46.165ZM126.526 48.61V55H124.726V47.38H131.746V55H129.946V48.61H126.526ZM135.635 48.61H133.025V47.38H140.045V48.61H137.435V55H135.635V48.61ZM143.122 52.87L146.692 47.38H148.672V55H146.872V49.51L143.302 55H141.322V47.38H143.122V52.87ZM154.939 55L152.629 49.375H152.599L152.629 49.78V55H150.829V47.38H153.289L155.584 53.08L157.879 47.38H160.339V55H158.539V49.78L158.569 49.375H158.539L156.229 55H154.939ZM164.304 52.87L167.874 47.38H169.854V55H168.054V49.51L164.484 55H162.504V47.38H164.304V52.87ZM171.411 52.615H173.121C173.121 52.985 173.251 53.32 173.511 53.62C173.781 53.92 174.251 54.07 174.921 54.07C175.581 54.07 176.036 53.945 176.286 53.695C176.546 53.445 176.676 53.155 176.676 52.825C176.676 52.115 176.171 51.76 175.161 51.76H174.141V50.53H174.966C175.456 50.53 175.801 50.425 176.001 50.215C176.211 50.005 176.316 49.75 176.316 49.45C176.316 49.13 176.196 48.86 175.956 48.64C175.716 48.42 175.346 48.31 174.846 48.31C173.876 48.31 173.376 48.765 173.346 49.675H171.636C171.646 49.365 171.696 49.075 171.786 48.805C171.886 48.535 172.046 48.26 172.266 47.98C172.496 47.7 172.836 47.48 173.286 47.32C173.746 47.16 174.301 47.08 174.951 47.08C176.061 47.08 176.881 47.305 177.411 47.755C177.941 48.195 178.206 48.745 178.206 49.405C178.206 49.875 178.081 50.245 177.831 50.515C177.581 50.785 177.276 50.955 176.916 51.025V51.055C177.996 51.265 178.536 51.835 178.536 52.765C178.536 53.085 178.481 53.38 178.371 53.65C178.271 53.92 178.096 54.19 177.846 54.46C177.606 54.72 177.231 54.925 176.721 55.075C176.221 55.225 175.616 55.3 174.906 55.3C174.336 55.3 173.831 55.235 173.391 55.105C172.961 54.975 172.626 54.82 172.386 54.64C172.146 54.45 171.951 54.225 171.801 53.965C171.651 53.705 171.551 53.475 171.501 53.275C171.451 53.065 171.421 52.845 171.411 52.615ZM182.058 52.87L185.628 47.38H187.608V55H185.808V49.51L182.238 55H180.258V47.38H182.058V52.87ZM189.765 47.38H191.415V48.13H191.445C192.005 47.43 192.825 47.08 193.905 47.08C194.365 47.08 194.8 47.155 195.21 47.305C195.63 47.455 196.02 47.685 196.38 47.995C196.75 48.305 197.04 48.73 197.25 49.27C197.47 49.81 197.58 50.435 197.58 51.145C197.58 51.505 197.55 51.86 197.49 52.21C197.44 52.55 197.33 52.915 197.16 53.305C197 53.685 196.79 54.02 196.53 54.31C196.28 54.59 195.93 54.825 195.48 55.015C195.04 55.205 194.535 55.3 193.965 55.3C193.845 55.3 193.715 55.29 193.575 55.27C193.435 55.26 193.22 55.225 192.93 55.165C192.65 55.115 192.385 55.01 192.135 54.85C191.895 54.68 191.705 54.47 191.565 54.22V57.775H189.765V47.38ZM191.43 51.205C191.43 52.085 191.605 52.785 191.955 53.305C192.305 53.815 192.805 54.07 193.455 54.07C193.695 54.07 193.925 54.035 194.145 53.965C194.365 53.895 194.595 53.77 194.835 53.59C195.085 53.41 195.285 53.12 195.435 52.72C195.585 52.31 195.66 51.82 195.66 51.25C195.66 50.24 195.455 49.5 195.045 49.03C194.645 48.55 194.14 48.31 193.53 48.31C193.3 48.31 193.075 48.35 192.855 48.43C192.645 48.5 192.425 48.63 192.195 48.82C191.965 49.01 191.78 49.31 191.64 49.72C191.5 50.13 191.43 50.625 191.43 51.205ZM201.146 47.38C201.626 47.18 202.176 47.08 202.796 47.08C203.416 47.08 203.966 47.18 204.446 47.38C204.926 47.57 205.306 47.81 205.586 48.1C205.866 48.39 206.096 48.73 206.276 49.12C206.456 49.51 206.576 49.87 206.636 50.2C206.696 50.53 206.726 50.86 206.726 51.19C206.726 51.52 206.696 51.85 206.636 52.18C206.576 52.51 206.456 52.87 206.276 53.26C206.096 53.65 205.866 53.99 205.586 54.28C205.306 54.57 204.926 54.81 204.446 55C203.966 55.2 203.416 55.3 202.796 55.3C202.176 55.3 201.626 55.2 201.146 55C200.666 54.81 200.286 54.57 200.006 54.28C199.726 53.99 199.496 53.655 199.316 53.275C199.136 52.885 199.016 52.525 198.956 52.195C198.896 51.855 198.866 51.52 198.866 51.19C198.866 50.86 198.896 50.53 198.956 50.2C199.016 49.87 199.136 49.51 199.316 49.12C199.496 48.73 199.726 48.39 200.006 48.1C200.286 47.81 200.666 47.57 201.146 47.38ZM203.396 48.4C203.206 48.34 203.006 48.31 202.796 48.31C202.586 48.31 202.386 48.34 202.196 48.4C202.006 48.46 201.791 48.58 201.551 48.76C201.321 48.94 201.136 49.24 200.996 49.66C200.856 50.07 200.786 50.58 200.786 51.19C200.786 51.8 200.856 52.315 200.996 52.735C201.136 53.145 201.321 53.44 201.551 53.62C201.791 53.8 202.006 53.92 202.196 53.98C202.386 54.04 202.586 54.07 202.796 54.07C203.006 54.07 203.206 54.04 203.396 53.98C203.586 53.92 203.796 53.8 204.026 53.62C204.266 53.44 204.456 53.145 204.596 52.735C204.736 52.315 204.806 51.8 204.806 51.19C204.806 50.58 204.736 50.07 204.596 49.66C204.456 49.24 204.266 48.94 204.026 48.76C203.796 48.58 203.586 48.46 203.396 48.4ZM208.456 47.38H212.566C214.216 47.38 215.041 47.995 215.041 49.225C215.041 49.745 214.891 50.155 214.591 50.455C214.291 50.745 213.951 50.925 213.571 50.995V51.025C214.731 51.275 215.311 51.93 215.311 52.99C215.311 53.71 215.051 54.225 214.531 54.535C214.011 54.845 213.346 55 212.536 55H208.456V47.38ZM210.256 48.61V50.44H211.801C212.311 50.44 212.671 50.345 212.881 50.155C213.091 49.965 213.196 49.74 213.196 49.48C213.196 48.9 212.796 48.61 211.996 48.61H210.256ZM210.256 51.67V53.77H211.966C212.956 53.77 213.451 53.435 213.451 52.765C213.451 52.035 212.936 51.67 211.906 51.67H210.256ZM218.449 49.735H216.739C216.719 48.975 216.999 48.345 217.579 47.845C218.159 47.335 219.039 47.08 220.219 47.08C220.799 47.08 221.304 47.15 221.734 47.29C222.164 47.42 222.489 47.58 222.709 47.77C222.929 47.95 223.099 48.175 223.219 48.445C223.349 48.715 223.429 48.95 223.459 49.15C223.489 49.34 223.504 49.55 223.504 49.78V52.825C223.504 53.225 223.539 53.485 223.609 53.605C223.679 53.725 223.864 53.775 224.164 53.755V55C223.854 55.03 223.589 55.045 223.369 55.045C222.499 55.045 222.004 54.715 221.884 54.055C221.294 54.805 220.449 55.18 219.349 55.18C218.849 55.18 218.414 55.12 218.044 55C217.674 54.89 217.394 54.755 217.204 54.595C217.024 54.435 216.879 54.245 216.769 54.025C216.669 53.795 216.604 53.605 216.574 53.455C216.554 53.305 216.544 53.145 216.544 52.975C216.544 52.605 216.614 52.28 216.754 52C216.904 51.71 217.084 51.49 217.294 51.34C217.514 51.19 217.704 51.08 217.864 51.01C218.024 50.93 218.169 50.875 218.299 50.845C218.469 50.795 218.649 50.755 218.839 50.725C219.029 50.695 219.244 50.665 219.484 50.635C219.724 50.605 219.919 50.58 220.069 50.56C220.149 50.54 220.269 50.525 220.429 50.515C220.599 50.495 220.724 50.475 220.804 50.455C221.014 50.425 221.154 50.405 221.224 50.395C221.294 50.385 221.379 50.355 221.479 50.305C221.579 50.245 221.639 50.165 221.659 50.065C221.689 49.955 221.704 49.81 221.704 49.63C221.704 48.75 221.209 48.31 220.219 48.31C219.599 48.31 219.144 48.45 218.854 48.73C218.564 49 218.429 49.335 218.449 49.735ZM221.704 51.61V51.34C221.524 51.47 221.094 51.575 220.414 51.655C220.094 51.695 219.859 51.73 219.709 51.76C219.569 51.78 219.394 51.82 219.184 51.88C218.984 51.94 218.839 52.01 218.749 52.09C218.659 52.17 218.579 52.28 218.509 52.42C218.439 52.56 218.404 52.725 218.404 52.915C218.404 53.225 218.499 53.475 218.689 53.665C218.889 53.855 219.189 53.95 219.589 53.95C219.849 53.95 220.089 53.92 220.309 53.86C220.529 53.8 220.749 53.69 220.969 53.53C221.199 53.37 221.379 53.13 221.509 52.81C221.639 52.48 221.704 52.08 221.704 51.61ZM227.173 48.61H224.563V47.38H231.583V48.61H228.973V55H227.173V48.61ZM232.86 47.38H234.66V50.32H236.415C236.675 50.32 236.895 50.325 237.075 50.335C237.265 50.345 237.495 50.375 237.765 50.425C238.045 50.465 238.275 50.54 238.455 50.65C238.645 50.75 238.83 50.885 239.01 51.055C239.2 51.215 239.34 51.435 239.43 51.715C239.53 51.985 239.58 52.305 239.58 52.675C239.58 54.225 238.665 55 236.835 55H232.86V47.38ZM234.66 51.55V53.77H236.4C236.79 53.77 237.105 53.68 237.345 53.5C237.595 53.31 237.72 53.02 237.72 52.63C237.72 51.91 237.28 51.55 236.4 51.55H234.66ZM113.08 69.38H117.19C118.84 69.38 119.665 69.995 119.665 71.225C119.665 71.745 119.515 72.155 119.215 72.455C118.915 72.745 118.575 72.925 118.195 72.995V73.025C119.355 73.275 119.935 73.93 119.935 74.99C119.935 75.71 119.675 76.225 119.155 76.535C118.635 76.845 117.97 77 117.16 77H113.08V69.38ZM114.88 70.61V72.44H116.425C116.935 72.44 117.295 72.345 117.505 72.155C117.715 71.965 117.82 71.74 117.82 71.48C117.82 70.9 117.42 70.61 116.62 70.61H114.88ZM114.88 73.67V75.77H116.59C117.58 75.77 118.075 75.435 118.075 74.765C118.075 74.035 117.56 73.67 116.53 73.67H114.88ZM127.048 74.795H128.758C128.698 75.085 128.603 75.36 128.473 75.62C128.353 75.87 128.163 76.135 127.903 76.415C127.653 76.685 127.288 76.9 126.808 77.06C126.328 77.22 125.768 77.3 125.128 77.3C124.888 77.3 124.648 77.285 124.408 77.255C124.178 77.235 123.858 77.15 123.448 77C123.038 76.85 122.683 76.65 122.383 76.4C122.093 76.14 121.833 75.745 121.603 75.215C121.373 74.675 121.258 74.045 121.258 73.325C121.258 71.995 121.583 70.955 122.233 70.205C122.893 69.455 123.863 69.08 125.143 69.08C127.513 69.08 128.753 70.46 128.863 73.22C128.863 73.28 128.863 73.355 128.863 73.445C128.873 73.535 128.878 73.605 128.878 73.655H123.178C123.178 73.925 123.213 74.19 123.283 74.45C123.353 74.71 123.463 74.97 123.613 75.23C123.763 75.48 123.983 75.685 124.273 75.845C124.563 75.995 124.898 76.07 125.278 76.07C125.708 76.07 126.093 75.96 126.433 75.74C126.783 75.51 126.988 75.195 127.048 74.795ZM123.178 72.425H126.973C126.973 72.215 126.948 72.005 126.898 71.795C126.858 71.585 126.778 71.36 126.658 71.12C126.538 70.88 126.348 70.685 126.088 70.535C125.838 70.385 125.528 70.31 125.158 70.31C124.508 70.31 124.008 70.525 123.658 70.955C123.318 71.385 123.158 71.875 123.178 72.425ZM130.6 69.38H132.25V70.13H132.28C132.84 69.43 133.66 69.08 134.74 69.08C135.2 69.08 135.635 69.155 136.045 69.305C136.465 69.455 136.855 69.685 137.215 69.995C137.585 70.305 137.875 70.73 138.085 71.27C138.305 71.81 138.415 72.435 138.415 73.145C138.415 73.505 138.385 73.86 138.325 74.21C138.275 74.55 138.165 74.915 137.995 75.305C137.835 75.685 137.625 76.02 137.365 76.31C137.115 76.59 136.765 76.825 136.315 77.015C135.875 77.205 135.37 77.3 134.8 77.3C134.68 77.3 134.55 77.29 134.41 77.27C134.27 77.26 134.055 77.225 133.765 77.165C133.485 77.115 133.22 77.01 132.97 76.85C132.73 76.68 132.54 76.47 132.4 76.22V79.775H130.6V69.38ZM132.265 73.205C132.265 74.085 132.44 74.785 132.79 75.305C133.14 75.815 133.64 76.07 134.29 76.07C134.53 76.07 134.76 76.035 134.98 75.965C135.2 75.895 135.43 75.77 135.67 75.59C135.92 75.41 136.12 75.12 136.27 74.72C136.42 74.31 136.495 73.82 136.495 73.25C136.495 72.24 136.29 71.5 135.88 71.03C135.48 70.55 134.975 70.31 134.365 70.31C134.135 70.31 133.91 70.35 133.69 70.43C133.48 70.5 133.26 70.63 133.03 70.82C132.8 71.01 132.615 71.31 132.475 71.72C132.335 72.13 132.265 72.625 132.265 73.205ZM145.416 74.21H147.126C147.096 74.46 147.046 74.71 146.976 74.96C146.906 75.21 146.781 75.48 146.601 75.77C146.431 76.06 146.221 76.315 145.971 76.535C145.721 76.755 145.381 76.935 144.951 77.075C144.531 77.225 144.056 77.3 143.526 77.3C142.266 77.3 141.311 76.93 140.661 76.19C140.021 75.45 139.701 74.455 139.701 73.205C139.701 72.465 139.801 71.825 140.001 71.285C140.211 70.745 140.451 70.34 140.721 70.07C141.001 69.79 141.336 69.57 141.726 69.41C142.116 69.25 142.436 69.155 142.686 69.125C142.936 69.095 143.196 69.08 143.466 69.08C144.566 69.08 145.421 69.355 146.031 69.905C146.651 70.445 147.006 71.115 147.096 71.915H145.386C145.346 71.475 145.171 71.1 144.861 70.79C144.551 70.47 144.121 70.31 143.571 70.31C142.271 70.31 141.621 71.275 141.621 73.205C141.621 73.765 141.686 74.245 141.816 74.645C141.946 75.045 142.116 75.345 142.326 75.545C142.546 75.735 142.766 75.87 142.986 75.95C143.206 76.03 143.436 76.07 143.676 76.07C144.266 76.07 144.696 75.88 144.966 75.5C145.236 75.11 145.386 74.68 145.416 74.21ZM150.474 70.61H147.864V69.38H154.884V70.61H152.274V77H150.474V70.61ZM157.961 72.56L160.856 69.38H162.926L159.536 72.935L163.091 77H161.021L157.961 73.31V77H156.161V69.38H157.961V72.56ZM164.932 79.745V78.515C165.172 78.575 165.402 78.605 165.622 78.605C165.962 78.605 166.212 78.51 166.372 78.32C166.542 78.14 166.692 77.815 166.822 77.345L166.927 76.985L163.462 69.38H165.622L167.917 75.05L169.672 69.38H171.472L168.562 77.66C168.342 78.3 168.127 78.75 167.917 79.01C167.477 79.56 166.857 79.835 166.057 79.835C165.667 79.835 165.292 79.805 164.932 79.745Z" fill="#333333"/>
<rect x="29" y="27" width="66" height="66" rx="33" fill="url(#paint0_linear_2_420)"/>
<mask id="path-4-inside-1_2_420" fill="white">
<path fill-rule="evenodd" clip-rule="evenodd" d="M59 42C59 41.4477 59.4477 41 60 41H65C65.5523 41 66 41.4477 66 42V45.7149C66 46.1641 66.301 46.5545 66.7262 46.6997C67.3469 46.9117 67.9477 47.1691 68.525 47.4682C68.9311 47.6785 69.4309 47.6194 69.7543 47.296L72.3996 44.6507C72.7901 44.2602 73.4233 44.2602 73.8138 44.6507L77.3493 48.1862C77.7399 48.5768 77.7399 49.2099 77.3493 49.6005L74.6471 52.3027C74.3276 52.6222 74.2654 53.1146 74.469 53.518C74.7547 54.0842 75.0041 54.6732 75.2141 55.2817C75.3596 55.7033 75.7483 56 76.1943 56H80C80.5523 56 81 56.4477 81 57V62C81 62.5523 80.5523 63 80 63H76.5007C76.0278 63 75.6233 63.3324 75.4998 63.7888C75.3072 64.5011 75.0616 65.1904 74.7677 65.8519C74.5921 66.2472 74.6633 66.7135 74.9692 67.0194L77.3492 69.3994C77.7397 69.7899 77.7397 70.4231 77.3492 70.8136L73.8137 74.3492C73.4231 74.7397 72.79 74.7397 72.3994 74.3492L70.3985 72.3482C70.0608 72.0105 69.5334 71.9623 69.1211 72.2034C68.365 72.6455 67.5637 73.0143 66.7262 73.3003C66.301 73.4455 66 73.8358 66 74.2851V77C66 77.5523 65.5523 78 65 78H60C59.4477 78 59 77.5523 59 77V74.2851C59 73.8358 58.699 73.4455 58.2738 73.3003C57.4363 73.0143 56.635 72.6455 55.879 72.2034C55.4667 71.9624 54.9393 72.0105 54.6016 72.3482L52.6006 74.3492C52.2101 74.7397 51.5769 74.7397 51.1864 74.3492L47.6508 70.8137C47.2603 70.4231 47.2603 69.79 47.6508 69.3994L50.0309 67.0194C50.3367 66.7136 50.408 66.2472 50.2324 65.852C49.9385 65.1905 49.6928 64.5011 49.5002 63.7888C49.3767 63.3324 48.9722 63 48.4993 63H45C44.4477 63 44 62.5523 44 62V57C44 56.4477 44.4477 56 45 56H48.8057C49.2517 56 49.6404 55.7033 49.7859 55.2817C49.9959 54.6732 50.2453 54.0842 50.5311 53.518C50.7346 53.1146 50.6724 52.6221 50.3529 52.3026L47.6507 49.6004C47.2602 49.2099 47.2602 48.5767 47.6507 48.1862L51.1862 44.6507C51.5768 44.2601 52.2099 44.2601 52.6005 44.6507L55.2457 47.296C55.5691 47.6194 56.069 47.6785 56.4751 47.4681C57.0523 47.1691 57.6531 46.9117 58.2738 46.6997C58.699 46.5545 59 46.1641 59 45.7149V42Z"/>
</mask>
<path d="M72.3996 44.6507L73.8138 46.0649L73.8138 46.0649L72.3996 44.6507ZM73.8138 44.6507L75.228 43.2365L75.228 43.2365L73.8138 44.6507ZM77.3493 48.1862L78.7635 46.772L78.7635 46.772L77.3493 48.1862ZM77.3493 49.6005L78.7635 51.0147L78.7635 51.0147L77.3493 49.6005ZM77.3492 70.8136L75.935 69.3994L75.935 69.3994L77.3492 70.8136ZM73.8137 74.3492L75.2279 75.7634L75.2279 75.7634L73.8137 74.3492ZM72.3994 74.3492L70.9852 75.7634L70.9852 75.7634L72.3994 74.3492ZM52.6006 74.3492L51.1864 72.935L51.1864 72.935L52.6006 74.3492ZM51.1864 74.3492L52.6006 72.935L52.6006 72.935L51.1864 74.3492ZM47.6508 70.8137L46.2366 72.2279L46.2366 72.2279L47.6508 70.8137ZM47.6508 69.3994L46.2366 67.9852L46.2366 67.9852L47.6508 69.3994ZM47.6507 49.6004L46.2365 51.0146L46.2365 51.0146L47.6507 49.6004ZM47.6507 48.1862L49.0649 49.6004L49.0649 49.6004L47.6507 48.1862ZM51.1862 44.6507L49.772 43.2365L49.772 43.2365L51.1862 44.6507ZM52.6005 44.6507L54.0147 43.2365L54.0147 43.2365L52.6005 44.6507ZM49.5002 63.7888L47.5696 64.311L49.5002 63.7888ZM55.879 72.2034L54.8694 73.9299L55.879 72.2034ZM54.6016 72.3482L53.1874 70.934L54.6016 72.3482ZM50.0309 67.0194L51.4451 68.4336L50.0309 67.0194ZM50.2324 65.852L52.0601 65.0399L50.2324 65.852ZM66.7262 73.3003L67.3726 75.193L66.7262 73.3003ZM69.7543 47.296L68.3401 45.8818L69.7543 47.296ZM58.2738 73.3003L57.6274 75.193L58.2738 73.3003ZM49.7859 55.2817L47.8953 54.6292L49.7859 55.2817ZM75.4998 63.7888L77.4304 64.311L75.4998 63.7888ZM70.3985 72.3482L71.8127 70.934L70.3985 72.3482ZM69.1211 72.2034L68.1115 70.4769L69.1211 72.2034ZM74.6471 52.3027L73.2329 50.8885L74.6471 52.3027ZM74.469 53.518L76.2545 52.617L74.469 53.518ZM66.7262 46.6997L66.0798 48.5924L66.7262 46.6997ZM60 39C58.3431 39 57 40.3431 57 42H61C61 42.5523 60.5523 43 60 43V39ZM65 39H60V43H65V39ZM68 42C68 40.3431 66.6569 39 65 39V43C64.4477 43 64 42.5523 64 42H68ZM68 45.7149V42H64V45.7149H68ZM66.0798 48.5924C66.6054 48.7719 67.1148 48.9901 67.605 49.244L69.4449 45.6923C68.7806 45.3481 68.0884 45.0515 67.3726 44.807L66.0798 48.5924ZM70.9854 43.2365L68.3401 45.8818L71.1685 48.7102L73.8138 46.0649L70.9854 43.2365ZM75.228 43.2365C74.0564 42.0649 72.1569 42.0649 70.9854 43.2365L73.8138 46.0649C73.4233 46.4555 72.7901 46.4554 72.3996 46.0649L75.228 43.2365ZM78.7635 46.772L75.228 43.2365L72.3996 46.0649L75.9351 49.6005L78.7635 46.772ZM78.7635 51.0147C79.9351 49.8431 79.9351 47.9436 78.7635 46.772L75.9351 49.6005C75.5446 49.2099 75.5446 48.5768 75.9351 48.1862L78.7635 51.0147ZM76.0613 53.7169L78.7635 51.0147L75.9351 48.1862L73.2329 50.8885L76.0613 53.7169ZM72.6834 54.419C72.9287 54.9052 73.143 55.4112 73.3235 55.9341L77.1047 54.6292C76.8652 53.9353 76.5806 53.2632 76.2545 52.617L72.6834 54.419ZM80 54H76.1943V58H80V54ZM83 57C83 55.3431 81.6569 54 80 54V58C79.4477 58 79 57.5523 79 57H83ZM83 62V57H79V62H83ZM80 65C81.6569 65 83 63.6569 83 62H79C79 61.4477 79.4477 61 80 61V65ZM76.5007 65H80V61H76.5007V65ZM73.5692 63.2667C73.4035 63.8793 73.1924 64.4717 72.9399 65.0399L76.5954 66.6639C76.9307 65.9092 77.2108 65.123 77.4304 64.311L73.5692 63.2667ZM78.7634 67.9852L76.3834 65.6052L73.5549 68.4336L75.935 70.8136L78.7634 67.9852ZM78.7634 72.2278C79.935 71.0563 79.935 69.1568 78.7634 67.9852L75.935 70.8136C75.5445 70.4231 75.5445 69.7899 75.935 69.3994L78.7634 72.2278ZM75.2279 75.7634L78.7634 72.2278L75.935 69.3994L72.3994 72.9349L75.2279 75.7634ZM70.9852 75.7634C72.1568 76.9349 74.0563 76.9349 75.2279 75.7634L72.3995 72.9349C72.79 72.5444 73.4231 72.5444 73.8137 72.9349L70.9852 75.7634ZM68.9843 73.7624L70.9852 75.7634L73.8137 72.9349L71.8127 70.934L68.9843 73.7624ZM68.1115 70.4769C67.4687 70.8528 66.7889 71.1654 66.0798 71.4076L67.3726 75.193C68.3385 74.8631 69.2613 74.4383 70.1307 73.9299L68.1115 70.4769ZM68 77V74.2851H64V77H68ZM65 80C66.6569 80 68 78.6569 68 77H64C64 76.4477 64.4477 76 65 76V80ZM60 80H65V76H60V80ZM57 77C57 78.6569 58.3431 80 60 80V76C60.5523 76 61 76.4477 61 77H57ZM57 74.2851V77H61V74.2851H57ZM58.9202 71.4076C58.2111 71.1655 57.5313 70.8528 56.8885 70.4769L54.8694 73.9299C55.7388 74.4383 56.6615 74.8631 57.6274 75.193L58.9202 71.4076ZM54.0148 75.7634L56.0158 73.7624L53.1874 70.934L51.1864 72.935L54.0148 75.7634ZM49.7722 75.7634C50.9437 76.935 52.8432 76.935 54.0148 75.7634L51.1864 72.935C51.5769 72.5445 52.2101 72.5445 52.6006 72.935L49.7722 75.7634ZM46.2366 72.2279L49.7722 75.7634L52.6006 72.935L49.0651 69.3994L46.2366 72.2279ZM46.2366 67.9852C45.0651 69.1568 45.0651 71.0563 46.2366 72.2279L49.0651 69.3995C49.4556 69.79 49.4556 70.4231 49.0651 70.8137L46.2366 67.9852ZM48.6167 65.6052L46.2366 67.9852L49.0651 70.8137L51.4451 68.4336L48.6167 65.6052ZM52.0601 65.0399C51.8076 64.4717 51.5965 63.8793 51.4308 63.2667L47.5696 64.311C47.7892 65.123 48.0693 65.9092 48.4046 66.664L52.0601 65.0399ZM45 65H48.4993V61H45V65ZM42 62C42 63.6569 43.3431 65 45 65V61C45.5523 61 46 61.4477 46 62H42ZM42 57V62H46V57H42ZM45 54C43.3431 54 42 55.3431 42 57H46C46 57.5523 45.5523 58 45 58V54ZM48.8057 54H45V58H48.8057V54ZM51.6765 55.9341C51.857 55.4111 52.0713 54.9051 52.3166 54.419L48.7455 52.6169C48.4194 53.2632 48.1348 53.9352 47.8953 54.6292L51.6765 55.9341ZM46.2365 51.0146L48.9387 53.7169L51.7672 50.8884L49.0649 48.1862L46.2365 51.0146ZM46.2365 46.772C45.0649 47.9436 45.0649 49.8431 46.2365 51.0146L49.0649 48.1862C49.4554 48.5767 49.4554 49.2099 49.0649 49.6004L46.2365 46.772ZM49.772 43.2365L46.2365 46.772L49.0649 49.6004L52.6005 46.0649L49.772 43.2365ZM54.0147 43.2365C52.8431 42.0649 50.9436 42.0649 49.772 43.2365L52.6005 46.0649C52.2099 46.4554 51.5768 46.4554 51.1862 46.0649L54.0147 43.2365ZM56.66 45.8817L54.0147 43.2365L51.1862 46.0649L53.8315 48.7102L56.66 45.8817ZM57.3951 49.244C57.8852 48.9901 58.3946 48.7719 58.9202 48.5924L57.6274 44.807C56.9116 45.0515 56.2194 45.3481 55.5551 45.6923L57.3951 49.244ZM57 42V45.7149H61V42H57ZM58.9202 48.5924C60.0898 48.1929 61 47.0865 61 45.7149H57C57 45.2418 57.3082 44.9161 57.6274 44.807L58.9202 48.5924ZM52.3166 54.419C52.8803 53.3018 52.7414 51.8627 51.7672 50.8884L48.9387 53.7169C48.6034 53.3816 48.5889 52.9273 48.7455 52.6169L52.3166 54.419ZM51.4308 63.2667C51.0893 62.0038 49.942 61 48.4993 61V65C48.0023 65 47.6642 64.6609 47.5696 64.311L51.4308 63.2667ZM56.8885 70.4769C55.7551 69.8142 54.2189 69.9025 53.1874 70.934L56.0158 73.7624C55.6597 74.1185 55.1783 74.1105 54.8694 73.9299L56.8885 70.4769ZM73.3235 55.9341C73.727 57.1033 74.8345 58 76.1943 58V54C76.6621 54 76.9922 54.3034 77.1047 54.6292L73.3235 55.9341ZM51.4451 68.4336C52.3772 67.5015 52.5474 66.1367 52.0601 65.0399L48.4046 66.664C48.2685 66.3577 48.2962 65.9256 48.6167 65.6052L51.4451 68.4336ZM53.8315 48.7102C54.8189 49.6975 56.2769 49.8233 57.3951 49.244L55.5551 45.6923C55.8611 45.5338 56.3194 45.5412 56.66 45.8817L53.8315 48.7102ZM66.0798 71.4076C64.9103 71.8071 64 72.9135 64 74.2851H68C68 74.7582 67.6918 75.084 67.3726 75.193L66.0798 71.4076ZM67.605 49.244C68.7232 49.8233 70.1812 49.6975 71.1685 48.7102L68.3401 45.8818C68.6806 45.5412 69.139 45.5338 69.4449 45.6923L67.605 49.244ZM61 74.2851C61 72.9135 60.0897 71.8071 58.9202 71.4076L57.6274 75.193C57.3082 75.084 57 74.7582 57 74.2851H61ZM48.8057 58C50.1655 58 51.273 57.1033 51.6765 55.9341L47.8953 54.6292C48.0078 54.3034 48.3379 54 48.8057 54V58ZM72.9399 65.0399C72.4526 66.1367 72.6229 67.5015 73.5549 68.4336L76.3834 65.6052C76.7038 65.9256 76.7315 66.3577 76.5954 66.6639L72.9399 65.0399ZM76.5007 61C75.058 61 73.9107 62.0038 73.5692 63.2667L77.4304 64.311C77.3358 64.6609 76.9977 65 76.5007 65V61ZM71.8127 70.934C70.7812 69.9024 69.245 69.8141 68.1115 70.4769L70.1307 73.9299C69.8218 74.1105 69.3404 74.1185 68.9843 73.7624L71.8127 70.934ZM73.2329 50.8885C72.2586 51.8627 72.1197 53.3019 72.6834 54.419L76.2545 52.617C76.4111 52.9274 76.3966 53.3816 76.0613 53.7169L73.2329 50.8885ZM64 45.7149C64 47.0865 64.9102 48.1929 66.0798 48.5924L67.3726 44.807C67.6918 44.9161 68 45.2418 68 45.7149H64Z" fill="white" mask="url(#path-4-inside-1_2_420)"/>
<circle cx="62.5" cy="59.5" r="6.5" stroke="white" stroke-width="2"/>
<defs>
<linearGradient id="paint0_linear_2_420" x1="40.0939" y1="27" x2="96.6866" y2="43.1816" gradientUnits="userSpaceOnUse">
<stop stop-color="#3F0F72"/>
<stop offset="1" stop-color="#791281"/>
</linearGradient>
</defs>
</svg>
