<svg width="16" height="16" viewBox="0 0 16 16" fill="none" xmlns="http://www.w3.org/2000/svg">
<g clip-path="url(#clip0_2_541)">
<path d="M6.46066 4.958C6.62736 4.5761 6.67511 4.15284 6.59769 3.7434C6.52027 3.33396 6.32128 2.95734 6.02666 2.66267L4.63666 1.27267C4.40893 1.04222 4.12967 0.869204 3.82192 0.767897C3.51418 0.66659 3.18676 0.639891 2.86666 0.690001C2.54294 0.737542 2.23513 0.861266 1.96856 1.051C1.70199 1.24072 1.48427 1.49104 1.33333 1.78133C0.660772 3.04672 0.487804 4.5185 0.848663 5.90533C1.73466 9.42533 6.572 14.2627 10.092 15.1487C10.5671 15.2691 11.0552 15.3305 11.5453 15.3313C12.4767 15.3307 13.3936 15.1018 14.216 14.6647C14.5043 14.5143 14.7531 14.2983 14.9424 14.0339C15.1318 13.7696 15.2562 13.4644 15.3057 13.1431C15.3552 12.8217 15.3285 12.4933 15.2275 12.1842C15.1266 11.8751 14.9543 11.5942 14.7247 11.364L13.3373 9.97334C13.0424 9.6789 12.6657 9.48004 12.2562 9.40264C11.8467 9.32523 11.4234 9.37286 11.0413 9.53934C10.6769 9.69672 10.3445 9.91976 10.0607 10.1973C9.72 10.538 8.46666 10.044 7.21066 8.78934C5.95466 7.53467 5.462 6.28067 5.8 5.93933C6.07868 5.65563 6.30265 5.32295 6.46066 4.958ZM6.26666 9.73334C7.796 11.2613 9.852 12.2907 11 11.1413C11.1692 10.9794 11.3664 10.8495 11.582 10.758C11.7173 10.7003 11.8669 10.6847 12.0112 10.7131C12.1555 10.7415 12.288 10.8127 12.3913 10.9173L13.7813 12.3073C13.863 12.3881 13.9243 12.4871 13.9602 12.5961C13.9961 12.7052 14.0057 12.8212 13.988 12.9347C13.9708 13.0513 13.9261 13.1621 13.8576 13.2579C13.7891 13.3538 13.6987 13.432 13.594 13.486C12.6205 14.0091 11.4844 14.1416 10.4167 13.8567C7.39266 13.0933 2.90666 8.60733 2.14466 5.58C1.85933 4.51143 1.99188 3.3743 2.51533 2.4C2.56966 2.29576 2.64798 2.20593 2.74383 2.13789C2.83969 2.06985 2.95034 2.02556 3.06666 2.00867C3.10371 2.0028 3.14116 1.9999 3.17866 2C3.27453 2.00002 3.36945 2.01906 3.45791 2.05603C3.54637 2.09299 3.62661 2.14714 3.694 2.21533L5.084 3.60533C5.18853 3.70864 5.25961 3.84097 5.28802 3.98517C5.31643 4.12936 5.30086 4.27876 5.24333 4.414C5.15229 4.63104 5.02238 4.82963 4.86 5C3.71066 6.146 4.73933 8.2 6.26666 9.73334ZM13.614 7.71533C13.9683 6.96947 14.0831 6.13223 13.9426 5.31854C13.8021 4.50484 13.4132 3.75457 12.8293 3.17069C12.2454 2.58681 11.4952 2.19793 10.6815 2.05744C9.86776 1.91694 9.03053 2.03172 8.28466 2.386C8.20531 2.42601 8.11877 2.44974 8.03011 2.45582C7.94145 2.46189 7.85248 2.45018 7.76841 2.42137C7.68435 2.39256 7.60689 2.34724 7.5406 2.28806C7.4743 2.22889 7.42051 2.15706 7.38237 2.07679C7.34424 1.99652 7.32254 1.90944 7.31855 1.82067C7.31455 1.7319 7.32835 1.64322 7.35912 1.55985C7.38989 1.47649 7.43702 1.40012 7.49774 1.33523C7.55845 1.27034 7.63152 1.21824 7.71266 1.182C8.707 0.709677 9.82314 0.556609 10.9079 0.743799C11.9927 0.930988 12.993 1.44926 13.7715 2.22751C14.5501 3.00577 15.0687 4.00586 15.2563 5.09058C15.4439 6.17529 15.2913 7.29148 14.8193 8.286C14.741 8.44146 14.6049 8.5601 14.4402 8.61654C14.2755 8.67298 14.0952 8.66276 13.938 8.58805C13.7807 8.51333 13.6589 8.38007 13.5986 8.21674C13.5383 8.05341 13.5443 7.87297 13.6153 7.714L13.614 7.71533ZM10.9413 6.944C11.1913 6.69396 11.3317 6.35489 11.3317 6.00133C11.3317 5.64778 11.1913 5.3087 10.9413 5.05867C10.6874 4.81611 10.3498 4.68076 9.99866 4.68076C9.64752 4.68076 9.3099 4.81611 9.05599 5.05867C8.93026 5.18011 8.76186 5.2473 8.58706 5.24578C8.41226 5.24427 8.24506 5.17415 8.12145 5.05055C7.99784 4.92694 7.92773 4.75973 7.92621 4.58494C7.92469 4.41014 7.99189 4.24174 8.11333 4.116C8.62105 3.63074 9.29634 3.35993 9.99866 3.35993C10.701 3.35993 11.3763 3.63074 11.884 4.116C12.3839 4.61608 12.6648 5.29423 12.6648 6.00133C12.6648 6.70844 12.3839 7.38659 11.884 7.88667C11.7583 8.00811 11.5899 8.0753 11.4151 8.07378C11.2403 8.07227 11.0731 8.00215 10.9494 7.87855C10.8258 7.75494 10.7557 7.58773 10.7542 7.41294C10.7527 7.23814 10.8199 7.06974 10.9413 6.944Z" fill="white"/>
</g>
<defs>
<clipPath id="clip0_2_541">
<rect width="16" height="16" fill="white"/>
</clipPath>
</defs>
</svg>
