<svg width="139" height="28" viewBox="0 0 139 28" fill="none" xmlns="http://www.w3.org/2000/svg">
<path d="M138.653 13.1286C138.653 14.4221 138.418 15.6435 137.948 16.7926C137.475 17.9463 136.791 18.9725 135.89 19.8757C134.984 20.779 133.958 21.4702 132.814 21.9494C131.673 22.4286 130.475 22.6703 129.223 22.6703C127.95 22.6703 126.74 22.4286 125.583 21.9451C124.43 21.4574 123.413 20.7705 122.527 19.8757C121.625 18.9725 120.942 17.9504 120.477 16.8053C120.011 15.6646 119.777 14.4391 119.777 13.1286C119.777 11.8267 120.011 10.6012 120.477 9.45207C120.942 8.2986 121.625 7.26806 122.527 6.35639C123.429 5.45313 124.45 4.76611 125.591 4.29524C126.732 3.82459 127.942 3.58716 129.223 3.58716C130.491 3.58716 131.694 3.82459 132.834 4.29524C133.97 4.76611 134.992 5.45313 135.89 6.35639C136.791 7.27663 137.475 8.31559 137.948 9.46905C138.418 10.6267 138.653 11.8437 138.653 13.1286ZM59.9727 13.2051C59.9399 13.0651 59.8863 12.6749 59.8164 12.0389C59.7504 11.5088 59.6928 11.0677 59.6474 10.7199C59.5734 11.1356 59.4704 11.5511 59.3385 11.9626C59.2069 12.3781 59.038 12.7979 58.8362 13.2304L54.5678 22.1868H53.8717L49.5959 13.0312C49.4024 12.6241 49.2335 12.2339 49.0937 11.8522C48.9538 11.4706 48.83 11.0932 48.7273 10.7199C48.7188 11.1017 48.6901 11.5003 48.6365 11.9202C48.5831 12.3399 48.5047 12.7767 48.402 13.2304L46.5076 22.1868H45.9211H43.8641L47.8719 3.99178H48.385L53.2526 14.7105C53.3309 14.8886 53.4543 15.194 53.619 15.6138C53.7837 16.0379 53.9813 16.5595 54.2162 17.1786C54.3849 16.657 54.6527 15.9954 55.015 15.194C55.1097 14.9777 55.1837 14.8123 55.2291 14.6977L59.9847 3.99178H60.4942L64.5929 22.1868H61.9246L59.9727 13.2051ZM80.0817 22.1868L78.0803 17.505H71.0801L69.0296 22.1868H66.0154L74.2466 3.99178H74.8888L83.1123 22.1868H80.0817ZM72.1425 15.037H77.0675L75.2557 10.8896C75.1526 10.6267 75.0415 10.3213 74.9304 9.97797C74.8192 9.63439 74.7039 9.25275 74.5927 8.82865C74.4979 9.2272 74.395 9.59633 74.2838 9.9397C74.1769 10.2833 74.0657 10.6012 73.9543 10.8896L72.1425 15.037ZM84.7717 22.1868V3.99178H85.4888L95.9967 14.3966C96.3015 14.7105 96.6103 15.0456 96.9272 15.4017C97.2403 15.7581 97.5699 16.1607 97.9155 16.6061V3.99427H100.559V22.1868H99.8393L89.1158 11.5766C88.8113 11.2671 88.5149 10.9448 88.2306 10.6056C87.9425 10.2662 87.6747 9.91001 87.4152 9.53673V22.1868H84.7717ZM116.285 22.1868L114.284 17.505H107.284L105.233 22.1868H102.219L110.45 3.99178H111.092L119.316 22.1868H116.285ZM108.346 15.037H113.271L111.459 10.8896C111.356 10.6267 111.245 10.3213 111.134 9.97797C111.023 9.63439 110.907 9.25275 110.796 8.82865C110.701 9.2272 110.598 9.59633 110.487 9.9397C110.38 10.2833 110.269 10.6012 110.158 10.8896L108.346 15.037ZM135.663 13.1286C135.663 12.2084 135.498 11.3349 135.173 10.5079C134.848 9.68099 134.378 8.94322 133.769 8.2986C133.172 7.65827 132.484 7.17048 131.702 6.82704C130.915 6.48345 130.088 6.30962 129.223 6.30962C128.354 6.30962 127.526 6.4793 126.74 6.81846C125.958 7.15769 125.258 7.6497 124.648 8.2986C124.039 8.93466 123.569 9.66822 123.248 10.4952C122.927 11.3222 122.766 12.2 122.766 13.1286C122.766 14.0491 122.927 14.9183 123.248 15.7367C123.569 16.5552 124.039 17.2887 124.648 17.9335C125.258 18.5823 125.953 19.0742 126.736 19.4134C127.514 19.7526 128.346 19.9223 129.223 19.9223C130.083 19.9223 130.899 19.7526 131.677 19.4134C132.451 19.0742 133.151 18.5823 133.769 17.9335C134.378 17.2887 134.848 16.5552 135.173 15.7325C135.498 14.9056 135.663 14.0405 135.663 13.1286Z" fill="white"/>
<path fill-rule="evenodd" clip-rule="evenodd" d="M17.5168 8.35794L13.133 0.000361394L-1.74676e-08 0.0548912L12.0232 19.2356V19.2357L17.5171 28L23.0104 19.2353V19.2352L35.0336 0.0545426L21.9006 -1.11541e-06L17.5168 8.35794Z" fill="white"/>
<path fill-rule="evenodd" clip-rule="evenodd" d="M0.832397 3.02148L7.26871 13.2681L0.832397 24.9785V3.02148Z" fill="white"/>
<path fill-rule="evenodd" clip-rule="evenodd" d="M34.2201 3.02148L27.7838 13.2681L34.2201 24.9785V3.02148Z" fill="white"/>
</svg>
