<svg width="17" height="17" viewBox="0 0 17 17" fill="none" xmlns="http://www.w3.org/2000/svg">
<path d="M15.5833 2.125H1.41668C1.22882 2.125 1.04865 2.19963 0.915809 2.33247C0.782971 2.4653 0.708344 2.64547 0.708344 2.83333V14.1667C0.708344 14.3545 0.782971 14.5347 0.915809 14.6675C1.04865 14.8004 1.22882 14.875 1.41668 14.875H15.5833C15.7712 14.875 15.9514 14.8004 16.0842 14.6675C16.217 14.5347 16.2917 14.3545 16.2917 14.1667V2.83333C16.2917 2.64547 16.217 2.4653 16.0842 2.33247C15.9514 2.19963 15.7712 2.125 15.5833 2.125ZM14.875 13.4583H2.12501V6.71287L8.23651 9.15804C8.40578 9.2251 8.59424 9.2251 8.76351 9.15804L14.875 6.71287V13.4583ZM14.875 5.18712L8.50001 7.73712L2.12501 5.18712V3.54167H14.875V5.18712Z" fill="white"/>
</svg>
