<svg width="96" height="20" viewBox="0 0 96 20" fill="none" xmlns="http://www.w3.org/2000/svg">
<path d="M96 9.08994C96 9.98555 95.8375 10.8312 95.5125 11.6268C95.1845 12.4256 94.7112 13.1361 94.0871 13.7615C93.4597 14.3869 92.7497 14.8655 91.9573 15.1973C91.1675 15.5291 90.3378 15.6964 89.4711 15.6964C88.5902 15.6964 87.7518 15.5291 86.9508 15.1943C86.1524 14.8566 85.4482 14.381 84.8353 13.7615C84.2108 13.1361 83.7376 12.4284 83.4154 11.6356C83.0933 10.8458 82.9308 9.99726 82.9308 9.08994C82.9308 8.18855 83.0933 7.34 83.4154 6.54438C83.7376 5.74575 84.2108 5.03222 84.8353 4.401C85.4597 3.7756 86.1668 3.29992 86.9564 2.9739C87.7463 2.64804 88.5845 2.48365 89.4711 2.48365C90.3492 2.48365 91.1818 2.64804 91.9715 2.9739C92.7583 3.29992 93.4654 3.7756 94.0871 4.401C94.7112 5.03815 95.1845 5.7575 95.5125 6.55614C95.8375 7.35764 96 8.20031 96 9.08994ZM41.5238 9.14287C41.5011 9.04594 41.464 8.77578 41.4156 8.33544C41.3699 7.96845 41.33 7.663 41.2986 7.42219C41.2473 7.71 41.1761 7.99771 41.0847 8.28261C40.9936 8.57032 40.8766 8.86099 40.737 9.16042L37.7816 15.3617H37.2996L34.3392 9.02252C34.2052 8.74064 34.0882 8.47047 33.9915 8.20619C33.8946 7.94196 33.8089 7.68064 33.7377 7.42219C33.7319 7.68657 33.712 7.96251 33.6749 8.25324C33.6379 8.54382 33.5836 8.84627 33.5125 9.16042L32.2009 15.3617H31.7948H30.3705L33.1454 2.76379H33.5007L36.8709 10.1852C36.9252 10.3085 37.0106 10.5199 37.1247 10.8106C37.2387 11.1043 37.3755 11.4654 37.5382 11.8941C37.655 11.5329 37.8403 11.0749 38.0912 10.5199C38.1568 10.3702 38.208 10.2557 38.2394 10.1764L41.5321 2.76379H41.8849L44.7228 15.3617H42.8753L41.5238 9.14287ZM55.4468 15.3617L54.0612 12.1201H49.2143L47.7946 15.3617H45.7076L51.4068 2.76379H51.8514L57.5451 15.3617H55.4468ZM49.9499 10.4113H53.3598L52.1054 7.53968C52.034 7.35764 51.9571 7.14624 51.8802 6.9085C51.8032 6.67061 51.7234 6.40638 51.6464 6.11274C51.5807 6.38868 51.5095 6.64426 51.4325 6.882C51.3585 7.11989 51.2815 7.33999 51.2044 7.53968L49.9499 10.4113ZM58.6941 15.3617V2.76379H59.1906L66.4661 9.9679C66.6771 10.1852 66.8909 10.4172 67.1103 10.6638C67.3271 10.9105 67.5553 11.1893 67.7946 11.4977V2.76552H69.6251V15.3617H69.1266L61.7019 8.01536C61.4911 7.80104 61.2858 7.57789 61.089 7.34306C60.8895 7.10804 60.7041 6.86145 60.5244 6.603V15.3617H58.6941ZM80.5132 15.3617L79.1275 12.1201H74.2808L72.8611 15.3617H70.774L76.4731 2.76379H76.9178L82.6115 15.3617H80.5132ZM75.0163 10.4113H78.4263L77.1718 7.53968C77.1004 7.35764 77.0236 7.14624 76.9466 6.9085C76.8696 6.67061 76.7897 6.40638 76.7128 6.11274C76.6472 6.38868 76.5759 6.64426 76.4989 6.882C76.4248 7.11989 76.3479 7.33999 76.2709 7.53968L75.0163 10.4113ZM93.9302 9.08994C93.9302 8.45278 93.8161 7.84804 93.5908 7.27544C93.3655 6.70288 93.0407 6.19207 92.6186 5.74575C92.2052 5.30239 91.7291 4.96466 91.1874 4.72686C90.6429 4.48897 90.0699 4.36862 89.4711 4.36862C88.8695 4.36862 88.2965 4.4861 87.7518 4.72093C87.2103 4.9558 86.7257 5.29646 86.3036 5.74575C85.8816 6.18614 85.5566 6.69404 85.3343 7.26664C85.1118 7.83925 85.0007 8.447 85.0007 9.08994C85.0007 9.72724 85.1118 10.3291 85.3343 10.8957C85.5566 11.4624 85.8816 11.9703 86.3036 12.4167C86.7257 12.8659 87.2074 13.2066 87.7491 13.4414C88.288 13.6763 88.8639 13.7938 89.4711 13.7938C90.0669 13.7938 90.6316 13.6763 91.1702 13.4414C91.7063 13.2066 92.191 12.8659 92.6186 12.4167C93.0407 11.9703 93.3655 11.4624 93.5908 10.8928C93.8161 10.3203 93.9302 9.72131 93.9302 9.08994Z" fill="#3F0F72"/>
<path fill-rule="evenodd" clip-rule="evenodd" d="M12.1283 5.78686L9.09304 0.000250222L-1.20942e-08 0.0380055L8.32461 13.3183V13.3184L12.1285 19.3866L15.9319 13.3181V13.3181L24.2565 0.0377641L15.1635 -7.72289e-07L12.1283 5.78686Z" fill="#3F0F72"/>
<path fill-rule="evenodd" clip-rule="evenodd" d="M0.576355 2.09204L5.03272 9.18657L0.576355 17.2946V2.09204Z" fill="#3F0F72"/>
<path fill-rule="evenodd" clip-rule="evenodd" d="M23.6933 2.09204L19.2369 9.18657L23.6933 17.2946V2.09204Z" fill="#3F0F72"/>
</svg>
